<svg xmlns="http://www.w3.org/2000/svg" width="22.647" height="16.469" viewBox="0 0 22.647 16.469">
  <path id="logo" d="M115.747,141.659A10.815,10.815,0,0,0,110.6,139.6l-.248.5a9.961,9.961,0,0,1,4.883,2.583,15.5,15.5,0,0,0-15.443,0,10.173,10.173,0,0,1,4.883-2.583l-.248-.5a10.752,10.752,0,0,0-5.145,2.059s-2.633,3.822-3.086,11.324a9.705,9.705,0,0,0,6.688,3.086l.842-1.125a10.278,10.278,0,0,1-4.445-2.994,14.46,14.46,0,0,0,16.476,0,10.278,10.278,0,0,1-4.445,2.994l.842,1.125a9.705,9.705,0,0,0,6.688-3.086C118.38,145.481,115.747,141.659,115.747,141.659Zm-11.585,9.264a2.077,2.077,0,1,1,1.8-2.06A1.943,1.943,0,0,1,104.162,150.924Zm6.7,0a2.077,2.077,0,1,1,1.8-2.06A1.943,1.943,0,0,1,110.857,150.924Z" transform="translate(-96.2 -139.6)" fill="#000"/>
</svg>
