<svg xmlns="http://www.w3.org/2000/svg" width="22.645" height="18.404" viewBox="0 0 22.645 18.404">
  <path id="Path_238" data-name="Path 238" d="M537,6289.355a13.271,13.271,0,0,0,20.354-11.213v-.536a10.357,10.357,0,0,0,2.291-2.389,10.137,10.137,0,0,1-2.632.682h0a4.835,4.835,0,0,0,2.023-2.582,14.955,14.955,0,0,1-2.243.949c-.219.073-.463.146-.682.219a4.657,4.657,0,0,0-8.068,3.169,4.973,4.973,0,0,0,.122,1.051,13.937,13.937,0,0,1-9.555-4.827s-2.218,3.046,1.341,6.166a4.807,4.807,0,0,1-2.023-.611,4.44,4.44,0,0,0,3.681,4.633,4.236,4.236,0,0,1-2.047.073,4.607,4.607,0,0,0,4.266,3.266,8.952,8.952,0,0,1-6.825,1.951Z" transform="translate(-537 -6272.999)" fill="#000" fill-rule="evenodd"/>
</svg>
