<svg id="Group_20750" data-name="Group 20750" xmlns="http://www.w3.org/2000/svg" width="22.824" height="18.711" viewBox="0 0 22.824 18.711">
  <path id="Path_874" data-name="Path 874" d="M20.854,18.661,13.824,15.4,13.772.6a.484.484,0,0,1,.694-.423l6.664,3.1a.467.467,0,0,1,.274.422V18.326A.384.384,0,0,1,20.854,18.661Z" transform="translate(1.419 0.013)" fill="#000"/>
  <path id="Path_875" data-name="Path 875" d="M14.53,15.409,6.922,11.875,14.247.225a.494.494,0,0,1,.624-.179l6.757,3.139a.46.46,0,0,1,.2.666Z" transform="translate(0.714 0)" fill="#000" opacity="0.65"/>
  <path id="Path_876" data-name="Path 876" d="M15.187,15.376,7.579,11.842.606.871A.365.365,0,0,1,1.084.359l6.5,3.017Z" transform="translate(0.057 0.033)" fill="#000" opacity="0.52"/>
  <path id="Path_877" data-name="Path 877" d="M7.085,18.667.218,15.477A.37.37,0,0,1,0,15.142V.427A.372.372,0,0,1,.533.1l7.1,3.3V18.332A.384.384,0,0,1,7.085,18.667Z" transform="translate(0 0.007)" fill="#000"/>
</svg>
