<svg xmlns="http://www.w3.org/2000/svg" width="22.647" height="18.873" viewBox="0 0 22.647 18.873">
  <path id="telegram" d="M1.557,8.125q9.119-4,12.161-5.268C19.51.435,20.713.014,21.5,0a1.367,1.367,0,0,1,.808.244.885.885,0,0,1,.3.568,3.728,3.728,0,0,1,.035.825C22.323,4.953,20.965,13,20.275,16.713c-.292,1.571-.868,2.1-1.425,2.15-1.211.112-2.131-.8-3.3-1.578-1.835-1.21-2.872-1.963-4.654-3.143-2.059-1.364-.724-2.114.449-3.34.307-.321,5.643-5.2,5.746-5.644a.43.43,0,0,0-.1-.371.478.478,0,0,0-.432-.042q-.276.063-8.8,5.846a3.945,3.945,0,0,1-2.262.84,14.813,14.813,0,0,1-3.242-.771C.953,10.234-.085,10.008.005,9.283Q.076,8.717,1.557,8.125Z" fill="#000"/>
</svg>
