<svg xmlns="http://www.w3.org/2000/svg" width="16.72" height="10.64" viewBox="0 0 16.72 10.64">
  <path id="input-behance" d="M25.847,18.387a4.01,4.01,0,0,1,3.873,4.126h0V22.6a.385.385,0,0,1-.379.391H23.91a2.039,2.039,0,0,0,1.937,1.7,1.772,1.772,0,0,0,1.3-.531.158.158,0,0,1,.112-.048h0l1.9,0a.169.169,0,0,1,.148.243,4.189,4.189,0,0,1-.244.447,3.811,3.811,0,0,1-3.221,1.834,4.01,4.01,0,0,1-3.873-4.126A4.01,4.01,0,0,1,25.847,18.387ZM17.67,16a2.882,2.882,0,0,1,2.851,2.856,2.955,2.955,0,0,1-.445,1.614,3.364,3.364,0,0,1,1.369,2.736,3.308,3.308,0,0,1-3.271,3.319H13.365A.371.371,0,0,1,13,26.148h0V16.377A.371.371,0,0,1,13.365,16H17.67Zm.546,5.81H14.889v2.766h3.328a1.384,1.384,0,0,0,0-2.766Zm7.63-1.473a1.947,1.947,0,0,0-1.659.984h3.318A1.947,1.947,0,0,0,25.847,20.337Zm-8.14-2.387H14.889V19.86h2.818a.956.956,0,0,0,0-1.911Zm9.749-1.535a.3.3,0,0,1,.29.3v.89a.3.3,0,0,1-.29.3H24.021a.3.3,0,0,1-.29-.3v-.89c0-.165.29-.3.29-.3Z" transform="translate(-13 -16)" fill="#000"/>
</svg>
