<svg xmlns="http://www.w3.org/2000/svg" width="19.5" height="19.5" viewBox="0 0 19.5 19.5">
  <path id="Path_971" data-name="Path 971" d="M21.475,11.067c.015.221.025.443.025.668a9.744,9.744,0,0,1-15.477,7.9C11.34,18.875,17.914,16.387,21.475,11.067ZM3.637,6.345a9.734,9.734,0,0,1,17.306,2.21,1.394,1.394,0,0,1-.211,1.3,15.626,15.626,0,0,1-3.01,2.9l-.359.266V7.129a.829.829,0,0,0-.723-.823l-.1-.007H15.156a.828.828,0,0,0-.821.725l-.006.1v7.157a.692.692,0,0,1-.422.637l-.682.282v-6a.829.829,0,0,0-.724-.823l-.1-.006H11.017A.828.828,0,0,0,10.2,9.1l-.006.1V15.67a.691.691,0,0,1-.532.672l-.31.075h0l-.262.071V11.274a.829.829,0,0,0-.724-.823l-.1-.007-1.376,0a.827.827,0,0,0-.823.719l-.007.109v5.176a.69.69,0,0,1-.611.685l-.628.068h0l-.344.032h0a1.231,1.231,0,0,1-1.175-.61A9.775,9.775,0,0,1,3.637,6.345Z" transform="translate(-2 -2)" fill="#b16f36"/>
</svg>
