<svg xmlns="http://www.w3.org/2000/svg" width="16.72" height="12.159" viewBox="0 0 16.72 12.159">
  <path id="logo" d="M110.631,141.12a7.984,7.984,0,0,0-3.8-1.52l-.183.371a7.354,7.354,0,0,1,3.605,1.907,11.446,11.446,0,0,0-11.4,0,7.511,7.511,0,0,1,3.605-1.907l-.183-.371a7.938,7.938,0,0,0-3.8,1.52s-1.944,2.822-2.278,8.36a7.165,7.165,0,0,0,4.938,2.278l.622-.831a7.588,7.588,0,0,1-3.281-2.21,10.675,10.675,0,0,0,12.164,0,7.588,7.588,0,0,1-3.281,2.21l.622.831a7.165,7.165,0,0,0,4.938-2.278C112.575,143.942,110.631,141.12,110.631,141.12Zm-8.553,6.84a1.534,1.534,0,1,1,1.332-1.52A1.434,1.434,0,0,1,102.078,147.96Zm4.943,0a1.534,1.534,0,1,1,1.332-1.52A1.434,1.434,0,0,1,107.021,147.96Z" transform="translate(-96.2 -139.6)" fill="#000"/>
</svg>
