<svg xmlns="http://www.w3.org/2000/svg" width="16.72" height="16.72" viewBox="0 0 16.72 16.72">
  <path id="Icon_awesome-dribbble" data-name="Icon awesome-dribbble" d="M8.923.563a8.36,8.36,0,1,0,8.36,8.36A8.369,8.369,0,0,0,8.923.563ZM14.45,4.418a7.107,7.107,0,0,1,1.613,4.448,16.687,16.687,0,0,0-4.972-.23c-.194-.473-.377-.89-.628-1.4A9.512,9.512,0,0,0,14.45,4.418Zm-.794-.826A8.062,8.062,0,0,1,9.914,6.171a38.116,38.116,0,0,0-2.664-4.18,7.122,7.122,0,0,1,6.407,1.6ZM5.887,2.471A45.563,45.563,0,0,1,8.534,6.6a26.635,26.635,0,0,1-6.6.87A7.167,7.167,0,0,1,5.887,2.471Zm-4.1,6.462c0-.073,0-.146,0-.218A26.341,26.341,0,0,0,9.124,7.7c.2.4.4.806.579,1.212a11.061,11.061,0,0,0-6.086,4.8A7.112,7.112,0,0,1,1.782,8.933Zm2.758,5.633a10.044,10.044,0,0,1,5.649-4.475,29.682,29.682,0,0,1,1.523,5.415,7.126,7.126,0,0,1-7.172-.94Zm8.373.286a30.82,30.82,0,0,0-1.387-5.091,10.481,10.481,0,0,1,4.448.305,7.153,7.153,0,0,1-3.061,4.786Z" transform="translate(-0.563 -0.563)" fill="#000"/>
</svg>
