<svg xmlns="http://www.w3.org/2000/svg" width="18.468" height="18.468" viewBox="0 0 18.468 18.468">
  <path id="Icon_metro-earth2" data-name="Icon metro-earth2" d="M11.8,20.4a9.234,9.234,0,1,1,9.234-9.234A9.235,9.235,0,0,1,11.8,20.4Zm7.484-10.008a.058.058,0,0,0,.029-.04.281.281,0,0,0,.089.162c0,.006,0,0,0,.013s.008,0,.012,0a.279.279,0,0,0,.176.066.285.285,0,0,0,.241-.139.139.139,0,0,1,.012.014c0-.009,0-.018,0-.028a.28.28,0,0,0,.038-.136.289.289,0,0,0-.289-.289.285.285,0,0,0-.238.134s0-.009-.006-.006A.261.261,0,0,0,19.308,10v.3A.3.3,0,0,1,19.289,10.388ZM6.029,10.3c0-.087-.2-.235-.25-.235,0-.016-.081-.193-.111-.193,0-.06-.211-.33-.244-.212-.022.076.161.179.161.267.034,0,.177.271.205.319.313.529-.234.167-.234-.057a.736.736,0,0,1-.18-.373,1.193,1.193,0,0,1-.152-.29c0-.169-.093-.249-.278-.249-.009-.017-.164-.235-.167-.235a.611.611,0,0,0-.194-.318,2.237,2.237,0,0,1-.041-.47,1.592,1.592,0,0,0-.061-.494A8.054,8.054,0,0,0,9.032,18.744c0-.286.025-.629.09-.629,0-.043.036-.222.069-.222a3.5,3.5,0,0,0,0-.373c-.041-.083.054-.188.083-.318.16-.08.047-.885.167-.885a5.482,5.482,0,0,0,.027-1.009c.031,0-.182-.226-.18-.222-.2,0-.346-.327-.346-.47a.871.871,0,0,1-.07-.235c.047,0-.291-.494-.291-.484-.179-.1.01-.238.028-.4-.155-.051,0-.47.069-.47a.13.13,0,0,1,.084-.11c.035.138.2-.069.069-.069,0-.091-.01-.286,0-.332,0-.141-.125-.417-.222-.125-.1-.051-.366-.042-.388-.207.016-.081-.149-.248-.208-.276.054-.142-.281-.332-.4-.332,0-.031-.064-.017-.083-.055-.124,0-.152-.166-.291-.166-.161,0-.323-.11-.472-.11-.05-.1-.28-.06-.333-.166-.121,0-.168-.229-.171-.313-.005-.1-.088-.463-.232-.463ZM17.719,5.67a.029.029,0,0,1,0,.013c.009,0,.019.01.029.014Zm.174.191a.186.186,0,0,1,.031.1c.02,0,.03-.01.046-.014C17.945,5.917,17.918,5.89,17.893,5.861Zm.5,2.629c.009-.249-.208-.208-.276-.346-.072,0-.1-.055-.194-.055a.119.119,0,0,0-.149.045c-.148.057-.059-.072-.17-.072.005-.143-.051-.182-.208-.166-.09.2-.229.325-.208.553.066.015.055.03.042.1.088,0,.624-.028.624-.083.018,0,.111.191.111.028.074,0,.114.175.291.124,0,.036.3-.124.138-.124Zm.028,2.945c.01-.051-.025-.073-.055-.125.079,0-.25-.61-.25-.705-.05-.025-.114-.2-.126-.263a.663.663,0,0,1-.166-.276,1,1,0,0,1-.263-.346c.1.011.249.031.249-.1-.067,0-.077-.083-.013-.083-.021-.085.045-.146.059-.212a1.565,1.565,0,0,0,.051-.3.457.457,0,0,0-.194.042c0,.056-.169-.014-.194-.014-.036-.073-.3.095-.374-.055-.119-.108-.087-.191-.126-.343-.02-.077-.125-.082-.189-.095-.181-.035-.05.215-.06.272.111,0-.07.137-.07.207-.187-.04-.125-.249-.235-.3-.033-.055-.007-.1-.084-.1,0-.074.039-.208-.042-.235,0-.036-.157-.05-.18-.1-.1,0-.33-.375-.4-.249-.044.081.038.1.054.166.144-.028.13.237.305.207a.481.481,0,0,0,.013.111c.13-.031.115.1.18.1-.047.063-.2-.1-.156.037.024.08.01.148-.093.226,0-.086-.007-.318-.1-.318-.061-.122-.243-.093-.32-.207-.062,0-.087-.194-.194-.207a.217.217,0,0,1-.125.055c-.058.117-.388.012-.388.028s-.185.44-.2.5c-.02.124-.12.126-.15.244-.015.059-.377.031-.377.074a.369.369,0,0,1-.291-.332,2.6,2.6,0,0,1,.056-.5c.032.009.038.02.056.055.1-.036.319.024.319-.083q.139,0,.083.111c.087.016.236.038.236-.083-.051,0-.056,0-.056-.055.166-.173-.125-.328-.125-.414-.059-.02-.179-.147-.093-.1s.336.122.232-.053a.019.019,0,0,0,.013-.013c.029.021.154.148.154.028.034,0,.166-.083.055-.083.01-.062.008-.114.013-.152.176.095.078-.065.167-.124,0,.115.095-.055.152-.055.069-.1.226-.023.264-.139-.085-.028-.069-.24-.069-.317.1.017.216-.138.231-.032.006.041.011.154.032.17.152.08.111-.046.111-.124-.051,0-.118-.178-.125-.263-.042.006-.109.023-.125.055-.151,0-.254-.055-.374-.055A2.145,2.145,0,0,1,15,6.334c-.084-.145.084-.1.111-.11,0-.137.572-.113.6-.332-.188,0,.194-.319.194-.317.128-.109.2-.2.354-.215.067,0,.811-.21.811-.117l.232.006A8.044,8.044,0,0,0,6.451,5.122a.2.2,0,0,1,.022.076c.076-.005.184-.054.208.042a.474.474,0,0,1-.111-.014c.027.214-.093.083-.194.083a.279.279,0,0,0-.092-.036c-.031.029-.063.056-.093.085,0,.009,0,.01,0,.02.032,0,.016.05.108.081a2.057,2.057,0,0,0,.336.074,1.071,1.071,0,0,0,.222-.017c0-.012.19-.1.056-.1.018-.076-.016-.1-.1-.1.007-.081.2-.028.278-.028.06-.1,0-.089.055-.181.063-.113.139-.015.181-.123a.193.193,0,0,1,.139.137c.05.042.305.418.305.152.091.031.137.2.139.291.166-.024.18-.148.18-.277.038,0-.014-.062-.014-.083.062-.023.139.059.139-.027.027,0,.028.027.028.055.086.017.141-.01.194.009.036.013.018.2,0,.268-.021.084-.182.085-.182.125-.182.136.215.207.278.29a.767.767,0,0,1-.18-.027c-.09,0-.308.1-.388.027.112,0,.149-.134.167-.263a.2.2,0,0,0-.254.128c-.048.17-.161-.007-.218.107-.022.007-.222.1-.222.069C7.219,6,7.278,6.2,7.278,6.4c.089.054.271.207.263.29.2.036.276.057.458.083a.22.22,0,0,0,.111.069c0,.119.108.1.208.1,0-.152.177.126.194.179-.024,0,.042.155.055.208-.028-.01-.036,0-.028.028.088.032.227.023.25-.069-.084,0-.056-.1-.056-.152a.1.1,0,0,1,.014-.193c0,.078.286-.049.125-.11a.311.311,0,0,0,0-.3c-.041-.048-.092,0-.113-.073.109-.027.029-.235.028-.332.035-.013.125.022.125,0,.107,0,.285.135.347-.028.178.081.036.159.222.1a.8.8,0,0,0,.236.249c0,.01-.005.069.041.069,0,.044-.028-.025-.028.055.026,0,.167.028.167-.027.089,0,.152-.11.152-.193.056-.036.154.3.222.3.05.077.208.19.208.263.033.034.069.025.069.125.042,0,.125-.166.125-.014a.262.262,0,0,1,.167.152c-.1,0-.005.1-.057.1,0,.1-.214.02-.263.014-.066.3-.467.084-.709.16a.826.826,0,0,0-.387.462c.155,0,.223-.134.361-.18.113,0,.134-.068.236-.1,0,.028.028.013.028.042-.2,0-.077.128-.02.22a.238.238,0,0,0,.122.1.549.549,0,0,0-.047.1h0c-.038.013-.111.04-.125.069-.223.025-.113.01-.1-.044.008.019.088,0,.085,0-.013-.067-.033-.058-.014-.1-.121,0-.18.055-.278.055-.016.033-.1.111-.139.111a.656.656,0,0,1-.167.29c0-.023-.2.124-.18.124-.044.071-.092.069-.111.179a.931.931,0,0,0-.069.221c-.086.057-.118.29-.264.29-.089.178-.25.154-.25.387a1.218,1.218,0,0,1,.092.379c.021.1.053.2-.077.2-.009-.014-.1-.152-.084-.152a.88.88,0,0,0-.111-.3c-.055-.077-.156.012-.236-.021-.034-.068-.264-.083-.346-.083.013.051.051.068.055.125a.315.315,0,0,1-.178.049c-.121-.017-.106-.111-.239-.1a.4.4,0,0,0-.361.408,1.222,1.222,0,0,0,0,.415c0,.117.1.2.1.29.094,0,.2.207.291.207.01.073-.046.085.111.084,0-.008.085-.054.1-.111-.109-.027,0-.166.069-.193,0,.1.139-.033.139-.042l.153-.055c0-.112.1.011.028.055-.075,0-.069.125-.111.125-.018.089-.053.166-.074.253-.027.107.06.118.032.218a1.735,1.735,0,0,0,.333,0,.1.1,0,0,0-.014-.055c.161,0,.014.3.111.3,0,.115.055.2.055.276a.184.184,0,0,1,.1.207c.092.012.291.036.291-.083.14,0,.15.1.14.193.279,0,.1-.276.221-.276.011-.046.03-.054.057-.024.057.031.1-.057.146-.085a.376.376,0,0,1,.074-.039c.039.024.043.017.06.043a.416.416,0,0,0,.218-.088c.1.012.068.227.255.24a.664.664,0,0,0,.313-.018c.016-.011.076.038.082.058.062,0,.058.054.084.053a.023.023,0,0,0,.028.013c.008.024.058.031.084.1,0,.06.125.07.125.11.089.045-.031.057.107.1a1,1,0,0,0,.227.068c.026-.1.11.013.153.013.022.045.033.011.055.055.129.107.044.066.1.18.062.04.081.181.1.263-.05,0-.014.19-.014.208-.06,0,.154.114.154-.028.088.014.145.11.208.11-.036.084.1.147.1.014.132.013.1.209.084.276.1,0,.126-.054.209-.065a.564.564,0,0,1,.3-.1.577.577,0,0,1,.577.577.57.57,0,0,1-.489.559,1.01,1.01,0,0,1-.073.078c0,.028-.006.3-.014.3,0,.055-.042.36-.083.36,0,.156-.1.185-.139.332-.084.062-.312.166-.347.235-.065,0-.114.055-.18.055-.009.019-.151.152-.125.152-.01.1.008.329-.046.394-.036.043-.087.038-.065.105-.078,0,0,.055-.118.055a.274.274,0,0,0-.219.2.307.307,0,0,1-.134.267c0,.039-.18.051-.18.152.017,0,0,.188,0,.207a.328.328,0,0,0-.208.1c-.181,0-.159.018-.277.1,0,.024-.017.11-.042.11,0,.14-.1.013-.181.084.032,0,.072.138.055.138,0,.122-.076.132-.152.222-.036.024-.071.125-.1.125,0,.082-.041.156-.041.235.017,0,0,.035.013.068.039-.011.04-.055.055-.055,0-.069.11.041.042.041-.057.087-.119.088-.153.208-.035,0-.065.033-.09.073a8.033,8.033,0,0,0,8.91-3.4,2.215,2.215,0,0,1,.063-.467c.057.042.1.119.139,0-.1-.02-.076-.054-.042-.138a.35.35,0,0,0,.177.047c.019-.036.034-.074.053-.11-.057-.044.021-.158.048-.1.014-.028.027-.057.04-.084-.006,0,0,0-.014,0,0-.05.009-.044.042-.069a.051.051,0,0,0,0,.01,8.038,8.038,0,0,0,.795-3.477c0-.041-.006-.08-.006-.121-.015.057-.043.118-.083.132,0,.036-.413.216-.388.29-.073,0-.328.073-.375.166a.644.644,0,0,0-.278.111c-.257,0-.208-.3-.332-.3ZM19.6,8.277H19.29s0,0-.007-.008-.081-.147-.055-.18a.41.41,0,0,1,.05,0c-.026-.063-.054-.126-.083-.189a.4.4,0,0,1-.2.1c0,.024-.123.263,0,.263a.042.042,0,0,0,0,.012.287.287,0,0,0,.024.573h.114c.007.053.035.1.136.121.032.133.27.181.305.041-.1,0-.068-.1-.059-.162H19.6a.289.289,0,0,0,0-.577Zm-.841,3.753c.02,0,.154,0,.154-.026a1.41,1.41,0,0,0,.4-.056c0,.179-.151.279-.125.457-.1,0-.056.1-.056.138-.065.04-.074.113-.152.152,0,.08-.18.213-.233.282s-.241.21-.264.308c.006-.023-.33.35-.252.35,0,.07-.095.622.028.622,0,.048.1.512.041.512,0,.149-.1.24-.1.359-.047.032-.115.05-.139.1-.085,0-.126.18-.166.18,0,.192-.056.335-.056.553.016,0-.111.311-.111.331-.1.069-.361.315-.361.443,0,0-.18.253-.208.29a1.787,1.787,0,0,0-.472.111c-.089,0-.319.07-.374-.014,0-.088-.048-.2-.055-.319-.043,0-.05-.179-.1-.179a4.768,4.768,0,0,1-.222-.567.929.929,0,0,0-.055-.235c0-.19-.139-.349-.139-.525-.041,0-.126-.387-.083-.387a4.336,4.336,0,0,1,.1-.562,1.336,1.336,0,0,0-.059-.573c-.024,0-.1-.132-.111-.166a.42.42,0,0,1-.152-.359.935.935,0,0,0,.084-.5.62.62,0,0,0-.347-.042c-.089-.179-.69-.069-.861-.069,0,.1-.418-.019-.458-.1-.1,0-.3-.217-.3-.318a1.139,1.139,0,0,1-.291-.567c-.1-.048-.068-.235-.014-.235a.986.986,0,0,0-.057-.294c-.017-.058.057-.121.057-.19a.834.834,0,0,1,.113-.488,1.885,1.885,0,0,0,.109-.206c.058-.145.075-.007.153-.136.074-.037.118-.16.194-.221.033-.044.035-.063,0-.1a.833.833,0,0,0,.1-.262c.109-.151.032-.082.139-.069.039-.043.1-.152.166-.152a.175.175,0,0,1,.153-.083c0,.083.226-.027.25-.027a.639.639,0,0,1,.347-.166c0-.095.492.027.569.014V9c.105.025.3.446.277.54a1.081,1.081,0,0,1,.208,0c0,.089.169.111.245.115.107.005.42-.011.42-.157a.13.13,0,0,1,.14.152c.093.01.649.021.61.138.081,0,.1.139.18.139-.016.1.1.346.18.346a.435.435,0,0,0,.125.29,1.012,1.012,0,0,0,.291.443c-.052.1.079.179.111.276-.008,0,.028.145.069.166,0,.1.207.5.32.5.008.048-.106.07.042.081Zm-3-3.1c.021-.083.07-.018.115,0,.107.035.07,0,.149-.038C16.023,9.117,15.894,8.946,15.759,8.933Zm-.292-.415c.057,0,.072.254-.083.207,0-.063-.04-.179.042-.179.024.1.041.058.041-.028ZM15.4,8.352c.064.028.092.018.083-.028.084.028-.011.088-.028.152C15.411,8.434,15.424,8.419,15.4,8.352ZM13.914,7.121c-.136-.035.14-.076.152-.11a.064.064,0,0,1-.06-.088c.021-.048.055.057.1.033.056-.006.166-.089.11.072s-.11.284-.318.287c-.074-.075,0-.114.014-.194Zm.514-.567c.112,0,.014.083-.011.083.019.008,0,.074,0,.1.1,0,.106-.065.18-.083-.016.093-.119.111-.018.19.054.042.109.092.087.156.132,0,.152.127.125.276.073,0,.07,0,.07-.07.071.02,0,.084,0,.084a1.164,1.164,0,0,1-.361.124c0-.1-.02-.107-.113-.078-.127.039-.028-.1-.025-.17.014,0,.288.013.125-.042-.009-.149-.042-.193-.18-.193,0-.1-.036-.094-.053-.205-.024-.164.129.012.178-.168Zm-.042.9c0,.034-.069.061-.083.013.013,0,.018,0,.013-.013ZM13.248,5.968h-.577a.289.289,0,1,1,0-.577h.577a.289.289,0,0,1,0,.577ZM9.885,11.076c.032,0,.07.013.07.042C9.913,11.117,9.859,11.157,9.885,11.076Zm-.526.028c-.023.044-.21.036-.236-.014.069,0,.123.028.194,0,0-.038-.032-.069-.055-.11.076,0,.16.058.264.055,0-.064-.028.014,0-.069a.324.324,0,0,1,.152.152,2.059,2.059,0,0,0-.319-.013Zm-.611-.332a.389.389,0,0,1-.25-.125c.069,0,.137.031.18-.042.176.018.192.139.333.139.027.047.178.154.032.168a.321.321,0,0,1-.295-.141Zm.111.387c-.051,0-.136.023-.1-.084C8.83,11.085,8.863,11.113,8.859,11.159Zm.1-.014-.083.014C8.881,11.1,8.942,11.024,8.956,11.145Zm.513.608c-.011.039-.009.041-.055.041,0-.018.009-.036.013-.055ZM8.221,10.606l.042.014c.018.069.055.035.1.014C8.359,10.714,8.174,10.737,8.221,10.606Z" transform="translate(-2.571 -1.928)" fill="#000"/>
</svg>
