<svg xmlns="http://www.w3.org/2000/svg" width="21.25" height="21.25" viewBox="0 0 21.25 21.25">
  <g id="Icon_ionic-ios-image" data-name="Icon ionic-ios-image" transform="translate(-3.375 -3.375)">
    <path id="Path_983" data-name="Path 983" d="M7.809,18.793H17.55a.284.284,0,0,0,.23-.45l-4.873-7.836a.282.282,0,0,0-.465,0L7.574,18.344A.286.286,0,0,0,7.809,18.793Z" transform="translate(-1.134 -1.917)" fill="#fff"/>
    <path id="Path_984" data-name="Path 984" d="M21.546,17.1l1.788,2.845a.277.277,0,0,0,.23.123h2.718a.284.284,0,0,0,.23-.45l-3.147-4.48a.282.282,0,0,0-.465,0l-1.359,1.64A.294.294,0,0,0,21.546,17.1Z" transform="translate(-4.956 -3.183)" fill="#fff"/>
    <path id="Path_985" data-name="Path 985" d="M24.094,10.731a1.43,1.43,0,1,0-1.568-1.568A1.435,1.435,0,0,0,24.094,10.731Z" transform="translate(-5.236 -1.232)" fill="#fff"/>
    <path id="Path_986" data-name="Path 986" d="M22.99,3.375H5.01A1.633,1.633,0,0,0,3.375,5.01V22.99A1.633,1.633,0,0,0,5.01,24.625H22.99a1.633,1.633,0,0,0,1.635-1.635V5.01A1.633,1.633,0,0,0,22.99,3.375Zm-.138,14.3a.41.41,0,0,1-.409.409H5.556a.41.41,0,0,1-.409-.409V5.556a.41.41,0,0,1,.409-.409H22.449a.41.41,0,0,1,.409.409V17.678Z" fill="#fff"/>
  </g>
</svg>
