<svg xmlns="http://www.w3.org/2000/svg" width="32.798" height="27.803" viewBox="0 0 32.798 27.803">
  <g id="_3161370" data-name="3161370" transform="translate(-214.467 -73.956)">
    <path id="Path_1209" data-name="Path 1209" d="M220.791,79h-4.81c-.9,0-1.481-.5-1.481-1.27a1.288,1.288,0,0,1,1.462-1.25h4.81c.058-.25.077-.481.135-.712a2.511,2.511,0,0,1,2.366-1.808c.75-.019,1.5,0,2.251,0a2.584,2.584,0,0,1,2.886,2.52h17.353a2.452,2.452,0,0,1,.539.038,1.267,1.267,0,0,1,.981,1.385,1.287,1.287,0,0,1-1.27,1.116h-17.6a2.7,2.7,0,0,1-.712,1.731,2.49,2.49,0,0,1-1.789.789c-.808.019-1.635,0-2.443,0a2.534,2.534,0,0,1-2.636-2.347A.483.483,0,0,1,220.791,79Zm2.559-2.5v2.482h2.463V76.5Z" transform="translate(-0.027 0)" fill="#000"/>
    <path id="Path_1210" data-name="Path 1210" d="M230.845,129.02a2.562,2.562,0,0,1,2.77-2.52h1.924a2.58,2.58,0,0,1,2.905,2.52h7.465a1.251,1.251,0,0,1,1.27.923,1.208,1.208,0,0,1-.539,1.4,2.025,2.025,0,0,1-.827.212c-2.309.019-4.617,0-6.926,0h-.442c-.038.192-.058.366-.1.539a2.522,2.522,0,0,1-2.386,1.982c-.77.019-1.539,0-2.328,0a2.558,2.558,0,0,1-2.79-2.52H215.859a1.274,1.274,0,1,1,0-2.539h14.987Zm2.559,2.5h2.463v-2.482H233.4Z" transform="translate(0 -42.436)" fill="#000"/>
    <path id="Path_1211" data-name="Path 1211" d="M220.791,184h-4.81c-.9,0-1.481-.5-1.481-1.27a1.288,1.288,0,0,1,1.462-1.25h4.81c.058-.269.077-.5.154-.75a2.494,2.494,0,0,1,2.347-1.77c.77-.019,1.52,0,2.289,0a2.558,2.558,0,0,1,2.828,2.52h.462q8.484,0,16.968.019a1.9,1.9,0,0,1,.866.192,1.206,1.206,0,0,1,.558,1.366,1.261,1.261,0,0,1-1.251.962H228.467a8.113,8.113,0,0,1-.385,1.154,2.386,2.386,0,0,1-2.193,1.366q-1.241.029-2.482,0a2.547,2.547,0,0,1-2.6-2.309C220.81,184.158,220.791,184.1,220.791,184Zm5.021-.019V181.5H223.35v2.482Z" transform="translate(-0.027 -84.8)" fill="#000"/>
  </g>
</svg>
