<svg xmlns="http://www.w3.org/2000/svg" width="13.5" height="13.135" viewBox="0 0 13.5 13.135">
  <path id="Icon_ionic-ios-heart" data-name="Icon ionic-ios-heart" d="M12.51,3.938h-.03A3.419,3.419,0,0,0,9.625,5.5,3.419,3.419,0,0,0,6.77,3.938H6.74a3.4,3.4,0,0,0-3.365,3.4A7.314,7.314,0,0,0,4.811,11.32a25.17,25.17,0,0,0,4.814,4.636,25.17,25.17,0,0,0,4.814-4.636,7.314,7.314,0,0,0,1.436-3.987A3.4,3.4,0,0,0,12.51,3.938Z" transform="translate(-2.875 -3.438)" fill="none" stroke="#b16f36" stroke-width="1"/>
</svg>
