<svg xmlns="http://www.w3.org/2000/svg" width="14" height="13" style=""><rect id="backgroundrect" width="100%" height="100%" x="0" y="0" fill="none" stroke="none" class="" style=""/>
  
<g class="currentLayer" style=""><title>Layer 1</title><path id="Icon_ionic-ios-heart" data-name="Icon ionic-ios-heart" d="M9.635,0.500000006437302 h-0.030000000000000027 A3.419,3.419 0 0 0 6.75,2.0620000064373016 A3.419,3.419 0 0 0 3.8949999999999996,0.500000006437302 H3.865 a3.4,3.4 0 0 0 -3.365,3.4 A7.314,7.314 0 0 0 1.936,7.882000006437302 a25.17,25.17 0 0 0 4.814,4.636 a25.17,25.17 0 0 0 4.814,-4.636 a7.314,7.314 0 0 0 1.436,-3.987 A3.4,3.4 0 0 0 9.635,0.500000006437302 z" fill="#b16f36" stroke="#b16f36" stroke-width="1" class="selected" fill-opacity="1"/></g></svg>