<svg xmlns="http://www.w3.org/2000/svg" xmlns:xlink="http://www.w3.org/1999/xlink" width="13.621" height="11.529" viewBox="0 0 13.621 11.529">
  <defs>
    <linearGradient id="linear-gradient" x1="0.11" y1="0.085" x2="1" y2="1" gradientUnits="objectBoundingBox">
      <stop offset="0" stop-color="#cb8f89"/>
      <stop offset="0.494" stop-color="#e9a46e"/>
      <stop offset="1" stop-color="#b16f36"/>
    </linearGradient>
  </defs>
  <g id="Icon_ionic-ios-log-out" data-name="Icon ionic-ios-log-out" transform="translate(-3.375 -5.625)">
    <path id="Path_981" data-name="Path 981" d="M12.021,15.188a.46.46,0,0,0-.459.459.591.591,0,0,1-.59.59H4.882a.591.591,0,0,1-.59-.59V7.132a.591.591,0,0,1,.59-.59h6.092a.591.591,0,0,1,.59.59.459.459,0,0,0,.917,0,1.507,1.507,0,0,0-1.507-1.507H4.882A1.507,1.507,0,0,0,3.375,7.132v8.515a1.507,1.507,0,0,0,1.507,1.507h6.092a1.507,1.507,0,0,0,1.507-1.507A.46.46,0,0,0,12.021,15.188Z" fill="url(#linear-gradient)"/>
    <path id="Path_982" data-name="Path 982" d="M17.772,10.962a.456.456,0,0,0-.324-.134.448.448,0,0,0-.324.134.457.457,0,0,0,0,.648l2.135,2.1H10.865a.459.459,0,1,0,0,.917h8.4l-2.083,2.1a.463.463,0,0,0,0,.648l0,0a.474.474,0,0,0,.321.128.443.443,0,0,0,.324-.134l2.705-2.7a.643.643,0,0,0,0-.956Z" transform="translate(-3.756 -2.78)" fill="url(#linear-gradient)"/>
  </g>
</svg>
