<svg xmlns="http://www.w3.org/2000/svg" width="16.72" height="16.72" viewBox="0 0 16.72 16.72">
  <path id="input-instagram" d="M27.739,16a4.987,4.987,0,0,1,4.976,4.759l0,.222v6.758a4.987,4.987,0,0,1-4.759,4.976l-.222,0H20.981A4.987,4.987,0,0,1,16,27.961l0-.222V20.981A4.987,4.987,0,0,1,20.759,16l.222,0ZM24.36,20.644a3.716,3.716,0,0,0,0,7.431c2.049,0,3.716-3.716,3.716-3.716S26.409,20.644,24.36,20.644ZM29,17.765A1.034,1.034,0,1,0,30.039,18.8,1.034,1.034,0,0,0,29,17.765Z" transform="translate(-16 -16)" fill="#000"/>
</svg>
