<svg xmlns="http://www.w3.org/2000/svg" width="14.092" height="15.546" viewBox="0 0 14.092 15.546">
  <g id="Icon_feather-share-2" data-name="Icon feather-share-2" transform="translate(0.5 0.5)">
    <path id="Path_971" data-name="Path 971" d="M26.864,5.182A2.182,2.182,0,1,1,24.682,3,2.182,2.182,0,0,1,26.864,5.182Z" transform="translate(-13.772 -3)" fill="none" stroke="#fff" stroke-linecap="round" stroke-linejoin="round" stroke-width="1"/>
    <path id="Path_972" data-name="Path 972" d="M8.864,15.682A2.182,2.182,0,1,1,6.682,13.5,2.182,2.182,0,0,1,8.864,15.682Z" transform="translate(-4.5 -8.409)" fill="none" stroke="#fff" stroke-linecap="round" stroke-linejoin="round" stroke-width="1"/>
    <path id="Path_973" data-name="Path 973" d="M26.864,26.182A2.182,2.182,0,1,1,24.682,24,2.182,2.182,0,0,1,26.864,26.182Z" transform="translate(-13.772 -13.818)" fill="none" stroke="#fff" stroke-linecap="round" stroke-linejoin="round" stroke-width="1"/>
    <path id="Path_974" data-name="Path 974" d="M12.885,20.265l4.968,2.895" transform="translate(-8.819 -11.894)" fill="none" stroke="#fff" stroke-linecap="round" stroke-linejoin="round" stroke-width="1"/>
    <path id="Path_975" data-name="Path 975" d="M17.845,9.765l-4.96,2.895" transform="translate(-8.819 -6.485)" fill="none" stroke="#fff" stroke-linecap="round" stroke-linejoin="round" stroke-width="1"/>
  </g>
</svg>
