<svg xmlns="http://www.w3.org/2000/svg" width="23" height="20.54" viewBox="0 0 23 20.54">
  <g id="Symbols" transform="translate(-7.5 -7.5)">
    <g id="header_-03HD-default" data-name="header/-03HD-default" transform="translate(7.5 7.5)">
      <g id="btn-active" transform="translate(0 0)">
        <g id="icon_48x48_-metamask2-2" data-name="icon/48x48/-metamask2-2" transform="translate(0)">
          <g id="metamask2">
            <path id="Path" d="M5.962,17.148l2.987.792V16.9l.244-.244H10.9v2.073H9.071l-2.255-.975Z" transform="translate(0.634 1.747)" fill="#cdbdb2" fill-rule="evenodd"/>
            <path id="Path-2" data-name="Path" d="M15.3,17.148l-2.926.792V16.9l-.244-.244H10.42v2.073h1.828l2.255-.975Z" transform="translate(1.108 1.747)" fill="#cdbdb2" fill-rule="evenodd"/>
            <path id="Path-3" data-name="Path" d="M8.936,15.07l-.244,2.011.3-.244h3.17l.366.244-.244-2.011-.488-.3-2.438.061Z" transform="translate(0.919 1.569)" fill="#393939" fill-rule="evenodd"/>
            <path id="Path-4" data-name="Path" d="M7.411,2.619,8.874,6.032l.67,9.935h2.377l.732-9.935,1.341-3.413Z" transform="translate(0.798 0.246)" fill="#f89c35" fill-rule="evenodd"/>
            <path id="Path-5" data-name="Path" d="M1.707,9.629,0,14.567l4.267-.244H7.01V12.189L6.888,7.8l-.61.488Z" transform="translate(0 0.847)" fill="#f89d35" fill-rule="evenodd"/>
            <path id="Path-6" data-name="Path" d="M4.513,9.974l5,.122-.549,2.56-2.377-.609Z" transform="translate(0.48 1.049)" fill="#d87c30" fill-rule="evenodd"/>
            <path id="Path-7" data-name="Path" d="M4.513,10.03l2.072,1.95v1.95Z" transform="translate(0.472 1.063)" fill="#ea8d3a" fill-rule="evenodd"/>
            <path id="Path-8" data-name="Path" d="M6.408,11.868l2.438.609L9.638,15.1l-.549.3L6.408,13.819Z" transform="translate(0.675 1.255)" fill="#f89d35" fill-rule="evenodd"/>
            <path id="Path-9" data-name="Path" d="M6.45,13.651,5.962,17.43l3.231-2.255Z" transform="translate(0.628 1.464)" fill="#eb8f35" fill-rule="evenodd"/>
            <path id="Path-10" data-name="Path" d="M9.135,10.085l.3,5.181-.914-2.651Z" transform="translate(0.888 1.079)" fill="#ea8e3a" fill-rule="evenodd"/>
            <path id="Path-11" data-name="Path" d="M3.845,13.712l2.8-.061L6.161,17.43Z" transform="translate(0.404 1.464)" fill="#d87c30" fill-rule="evenodd"/>
            <path id="Path-12" data-name="Path" d="M1.341,19.071l5.181-1.646L4.206,13.707,0,14.012Z" transform="translate(0 1.469)" fill="#eb8f35" fill-rule="evenodd"/>
            <path id="Path-13" data-name="Path" d="M9.146,5.739,6.525,7.933,4.513,10.371l5,.183Z" transform="translate(0.48 0.613)" fill="#e8821e" fill-rule="evenodd"/>
            <path id="Path-14" data-name="Path" d="M5.962,17.3l3.231-2.255-.244,1.95v1.1l-2.194-.427Z" transform="translate(0.628 1.595)" fill="#dfcec3" fill-rule="evenodd"/>
            <path id="Path-15" data-name="Path" d="M15.149,17.3,11.98,15.044l.244,1.95v1.1l2.194-.427Z" transform="translate(1.261 1.595)" fill="#dfcec3" fill-rule="evenodd"/>
            <path id="Path-16" data-name="Path" d="M8,11.088l.67,1.4L6.3,11.881Z" transform="translate(0.66 1.158)" fill="#393939" fill-rule="evenodd"/>
            <path id="Path-17" data-name="Path" d="M1.17,0,9.46,6.278l-1.4-3.413Z" transform="translate(0.11)" fill="#e88f35" fill-rule="evenodd"/>
            <path id="Path-18" data-name="Path" d="M1.264,0,.167,3.352.777,7.01.35,7.253.96,7.8l-.488.427.67.61L.716,9.2l.975,1.219,4.571-1.4A40.03,40.03,0,0,0,9.554,6.278Q9.493,6.217,1.264,0Z" transform="translate(0.016)" fill="#8e5a30" fill-rule="evenodd"/>
            <path id="Path-19" data-name="Path" d="M19.734,9.629l1.707,4.937-4.267-.244H14.431V12.189L14.553,7.8l.61.488Z" transform="translate(1.559 0.847)" fill="#f89d35" fill-rule="evenodd"/>
            <path id="Path-20" data-name="Path" d="M16.755,9.974l-5,.122.548,2.56,2.377-.609Z" transform="translate(1.251 1.049)" fill="#d87c30" fill-rule="evenodd"/>
            <path id="Path-21" data-name="Path" d="M16.5,10.03l-2.072,1.95v1.95Z" transform="translate(1.511 1.063)" fill="#ea8d3a" fill-rule="evenodd"/>
            <path id="Path-22" data-name="Path" d="M14.709,11.868l-2.438.609L11.478,15.1l.549.3,2.682-1.585Z" transform="translate(1.209 1.255)" fill="#f89d35" fill-rule="evenodd"/>
            <path id="Path-23" data-name="Path" d="M14.662,13.651l.488,3.779L11.98,15.236Z" transform="translate(1.261 1.464)" fill="#eb8f35" fill-rule="evenodd"/>
            <path id="Path-24" data-name="Path" d="M11.783,10.085l-.3,5.181.914-2.651Z" transform="translate(1.195 1.079)" fill="#ea8e3a" fill-rule="evenodd"/>
            <path id="Path-25" data-name="Path" d="M17.235,13.712l-2.8-.061.488,3.779Z" transform="translate(1.516 1.464)" fill="#d87c30" fill-rule="evenodd"/>
            <path id="Path-26" data-name="Path" d="M20.058,19.071l-5.181-1.646,2.316-3.718,4.206.3Z" transform="translate(1.601 1.469)" fill="#eb8f35" fill-rule="evenodd"/>
            <path id="Path-27" data-name="Path" d="M12.123,5.739l2.621,2.194,2.011,2.438-5,.183Z" transform="translate(1.251 0.613)" fill="#e8821e" fill-rule="evenodd"/>
            <path id="Path-28" data-name="Path" d="M13.04,11.088l-.67,1.4,2.377-.61Z" transform="translate(1.297 1.158)" fill="#393939" fill-rule="evenodd"/>
            <path id="Path-29" data-name="Path" d="M20.381,0l-8.29,6.278,1.4-3.413Z" transform="translate(1.339)" fill="#e88f35" fill-rule="evenodd"/>
            <path id="Path-30" data-name="Path" d="M20.381,0l1.1,3.352-.61,3.657.427.244-.61.549.488.427-.671.61.427.366-.975,1.219-4.571-1.4a40.048,40.048,0,0,1-3.291-2.743Q12.152,6.217,20.381,0Z" transform="translate(1.339)" fill="#8e5a30" fill-rule="evenodd"/>
          </g>
        </g>
      </g>
    </g>
  </g>
</svg>
