<svg xmlns="http://www.w3.org/2000/svg" width="19.371" height="16.939" viewBox="0 0 19.371 16.939">
  <path id="table-date" d="M12.97,3a8.47,8.47,0,1,1,0,16.939.6.6,0,1,1,0-1.21A7.26,7.26,0,1,0,5.711,11.2h0l1.4-1.355a.6.6,0,1,1,.847.847h0l-2.42,2.42a.645.645,0,0,1-.871,0h0L2.25,10.671A.6.6,0,0,1,3.1,9.824h0l1.4,1.4A8.495,8.495,0,0,1,12.97,3ZM12.6,6.345a.6.6,0,0,1,.6.6h0v4.84h2.42a.605.605,0,1,1,0,1.21H12.6a.6.6,0,0,1-.605-.6h0V6.95A.6.6,0,0,1,12.6,6.345Z" transform="translate(-2.069 -3)" fill="#b16f36"/>
</svg>
