<svg xmlns="http://www.w3.org/2000/svg" width="16.72" height="13.933" viewBox="0 0 16.72 13.933">
  <path id="telegram" d="M1.149,6q6.732-2.949,8.979-3.889C14.4.321,15.292.01,15.871,0a1.009,1.009,0,0,1,.6.18A.653.653,0,0,1,16.687.6a2.753,2.753,0,0,1,.026.609c-.232,2.448-1.234,8.389-1.744,11.13-.216,1.16-.641,1.549-1.052,1.587-.894.083-1.573-.594-2.439-1.165-1.355-.893-2.121-1.449-3.436-2.321-1.52-1.007-.535-1.561.332-2.466.227-.237,4.166-3.84,4.242-4.167a.318.318,0,0,0-.072-.274.353.353,0,0,0-.319-.031q-.2.047-6.494,4.316a2.913,2.913,0,0,1-1.67.62,10.937,10.937,0,0,1-2.393-.569C.7,7.555-.063,7.389,0,6.854Q.056,6.435,1.149,6Z" fill="#000"/>
</svg>
