<svg xmlns="http://www.w3.org/2000/svg" width="22" height="22" style=""><rect id="backgroundrect" width="100%" height="100%" x="0" y="0" fill="none" stroke="none"/><defs><linearGradient gradientUnits="userSpaceOnUse" y2="-2.622999906539917" x2="0" y1="986.6699829101562" id="0"><stop stop-color="#ffce3b"/><stop offset="1" stop-color="#ffd762"/></linearGradient><linearGradient y2="-2.622999906539917" x2="0" y1="986.6699829101562" gradientUnits="userSpaceOnUse"><stop stop-color="#ffce3b"/><stop offset="1" stop-color="#fef4ab"/></linearGradient></defs><g class="currentLayer" style=""><title>Layer 1</title><rect y="1037.3341064453125" x="7.0129008293151855" height="8" width="8" fill="#ecdad2" rx="4" transform="matrix(2.7244596970665413,0,0,2.7598427450482372,-19.004203000966726,-2862.9185285936974) " stroke-width="0" id="svg_2" class="selected" fill-opacity="1"/><path d="m18.02174041310719,8.0338815947679 l-1.3161537861364814,-1.3332469120198631 c-0.18055539304399396,-0.18302062754352097 -0.40007273932379694,-0.27447077674343967 -0.6580768930682412,-0.27447077674343967 c-0.25812294018723597,0 -0.4775215000242471,0.09145014919991848 -0.6581956795110334,0.27447077674343967 l-6.3491353672378095,6.4412190614100435 l-2.8452916641992,-2.8927126141658404 c-0.18067417948678605,-0.18302062754352097 -0.40007273932379694,-0.27447077674343967 -0.6580768930682412,-0.27447077674343967 c-0.25812294018723597,0 -0.4775215000242471,0.09145014919991848 -0.6581956795110334,0.27447077674343967 l-1.3161537861364814,1.3332469120198631 c-0.18067417948678605,0.18302062754352097 -0.27095187600878307,0.4052685559280595 -0.27095187600878307,0.6667437851536161 c0,0.26135490008187234 0.09027769652199703,0.4837231576100947 0.27095187600878307,0.6666234560099324 l3.5033685572674402,3.5488674346752536 l1.3161537861364814,1.3332469120198631 c0.18055539304399396,0.18302062754352097 0.3999539528810053,0.27447077674343967 0.6580768930682412,0.27447077674343967 c0.2580041537444441,0 0.4775215000242471,-0.09157047834360259 0.6580768930682412,-0.27447077674343967 l1.3161537861364814,-1.3332469120198631 l7.0067371145348805,-7.097734869350507 c0.18055539304399396,-0.18302062754352097 0.27095187600878307,-0.4052685559280595 0.27095187600878307,-0.6667437851536161 c0.000011878644279210146,-0.26135490008187234 -0.09039648296478911,-0.4837231576100947 -0.27095187600878307,-0.6666234560099324 " fill="#b16f36" stroke="none" stroke-width="1" id="svg_3" class="" transform="rotate(0.6095569729804993 10.791743278503487,12.249252319335943) " fill-opacity="1"/></g></svg>