<svg xmlns="http://www.w3.org/2000/svg" width="16.72" height="19.245" viewBox="0 0 16.72 19.245">
  <path id="Icon_simple-tiktok" data-name="Icon simple-tiktok" d="M11.15.016C12.2,0,13.243.008,14.285,0a5,5,0,0,0,1.4,3.344,5.655,5.655,0,0,0,3.4,1.435V8.011a8.583,8.583,0,0,1-3.368-.778,9.907,9.907,0,0,1-1.3-.746c-.008,2.342.008,4.683-.016,7.016a6.125,6.125,0,0,1-1.083,3.159,5.974,5.974,0,0,1-4.739,2.574,5.847,5.847,0,0,1-3.272-.826,6.047,6.047,0,0,1-2.927-4.579c-.016-.4-.024-.8-.008-1.195a6.037,6.037,0,0,1,7-5.357c.016,1.187-.032,2.374-.032,3.56a2.751,2.751,0,0,0-3.512,1.7,3.181,3.181,0,0,0-.112,1.291,2.729,2.729,0,0,0,2.807,2.3,2.694,2.694,0,0,0,2.221-1.291,1.85,1.85,0,0,0,.329-.85c.08-1.435.056-4.3.056-4.3S11.126,3.24,11.15.016Z" transform="translate(-2.369)" fill="#000"/>
</svg>
