<svg xmlns="http://www.w3.org/2000/svg" width="16.721" height="14.12" viewBox="0 0 16.721 14.12">
  <path id="input-twitter" d="M32.721,18.671a6.647,6.647,0,0,1-1.971.561,3.549,3.549,0,0,0,1.508-1.972,6.714,6.714,0,0,1-2.178.865A3.365,3.365,0,0,0,27.576,17a3.536,3.536,0,0,0-3.342,4.376,9.622,9.622,0,0,1-7.071-3.724,3.655,3.655,0,0,0,1.062,4.759,3.321,3.321,0,0,1-1.554-.446A3.538,3.538,0,0,0,19.423,25.5a3.31,3.31,0,0,1-1.549.061,3.453,3.453,0,0,0,3.2,2.476A6.717,6.717,0,0,1,16,29.518a9.453,9.453,0,0,0,5.258,1.6c6.369,0,9.968-5.59,9.75-10.6a7.131,7.131,0,0,0,1.712-1.845" transform="translate(-16 -17)" fill="#000"/>
</svg>
