<svg xmlns="http://www.w3.org/2000/svg" width="16.72" height="12.92" viewBox="0 0 16.72 12.92">
  <path id="input-youtube" d="M21.456,16c.579.006,3.649.046,5.756.2a2.193,2.193,0,0,1,1.672.763,4.368,4.368,0,0,1,.663,1.821,29.919,29.919,0,0,1,.173,3h0v1.38c0,1.468-.173,2.966-.173,2.966a4.368,4.368,0,0,1-.663,1.821,2.308,2.308,0,0,1-1.672.763c-1.993.175-4.848.2-5.641.2H21.29c-.29,0-1.438-.013-2.652-.041l-.385-.009c-1.027-.027-2.041-.067-2.572-.125a2.743,2.743,0,0,1-1.845-.793,4.368,4.368,0,0,1-.663-1.821A28.956,28.956,0,0,1,13,23.165V21.618c.012-1.44.172-2.829.172-2.829a3.971,3.971,0,0,1,.663-1.821,2.308,2.308,0,0,1,1.672-.763c2.107-.159,5.177-.2,5.756-.2Zm-2.114,3.493v6.372s5.477-1.52,5.477-3.113S19.342,19.494,19.342,19.494Z" transform="translate(-13 -16.001)" fill="#000"/>
</svg>
