<svg xmlns="http://www.w3.org/2000/svg" xmlns:xlink="http://www.w3.org/1999/xlink" width="1170" height="75" viewBox="0 0 1170 75">
  <defs>
    <linearGradient id="linear-gradient" y1="0.5" x2="1" y2="0.501" gradientUnits="objectBoundingBox">
      <stop offset="0" stop-color="#fdeaa0"/>
      <stop offset="1" stop-color="#f8c02c"/>
    </linearGradient>
  </defs>
  <g id="Group_20727" data-name="Group 20727" transform="translate(-135 -2313)">
    <path id="Path_867" data-name="Path 867" d="M78.345.025h4.848l6.062,28.744H84.663L80.805,7.111h0l-.119,0L78.468,19.7h0c.344.031.679.034,1.008.032h.165l.246,0h.326l.289,0h.523l.866,0h.225l.775,3.689H77.951L74.128,46H68.712L78.345.025ZM146.511,30.93l.1,0,.1,0a1.7,1.7,0,0,1,.323.013.477.477,0,0,1,.307.175l.158.267h0l.237.4h0l.158.268h0l.158.269h0l.237.406h0l.32.547h0l.9,1.548h0l-.11,0-.071,0h0l-.068,0h0l-.131.007h0l-.062,0a1.8,1.8,0,0,1-.431-.021.637.637,0,0,1-.387-.326.819.819,0,0,0-.91-.5h-.021a11.153,11.153,0,0,1-1.148.009L146,34a.5.5,0,0,0-.563.308l-.006.016a.754.754,0,0,1-.907.528l-.033,0h0l-.034-.005h0l-.034-.006h0l-.035-.007h0l-.034-.007h0l-.036-.008h0a1.294,1.294,0,0,1,.069-.181l.023-.051.026-.056.029-.06.015-.032.033-.067h0l.035-.07h0l.038-.074h0l.04-.077h0l.041-.08h0l.067-.126h0l.046-.087h0l.048-.09h0l.05-.092h0l.076-.141h0l.107-.194h0l.083-.148h0l.084-.15h0l.057-.1h0l.057-.1h0l.115-.2h0l.058-.1h0l.087-.149h0l.086-.147h0l.085-.144h0l.084-.141h0l.055-.091h0l.054-.089h0l.053-.087h0l.052-.084h0l.05-.081h0l.049-.078h0l.048-.075h0l.046-.071h0l.044-.068h0l.042-.064c.013-.021.027-.04.04-.059l.038-.055C146.457,31,146.485,30.964,146.511,30.93Zm-19.107.346a.65.65,0,0,1,1.17-.033q.691,1.172,1.372,2.351l.546.942h0a.937.937,0,0,1,.051.11l.047.124c0,.007.005.014.008.021l.018.044H130.5l-.071,0h0l-.1,0a2.147,2.147,0,0,0-.278.007l-.029,0a.558.558,0,0,1-.646-.356l-.007-.017a.729.729,0,0,0-.806-.473h-.022A9.6,9.6,0,0,1,127.3,34l-.083,0a.637.637,0,0,0-.7.4,1.71,1.71,0,0,1-.154.259l-.043.063-.042.063-.021.031h-.866l.022-.049h0l.02-.046h0l.045-.1h0l.016-.037c.017-.036.033-.069.052-.1Q126.474,32.876,127.4,31.276Zm-19.2-.012a.658.658,0,0,1,1.2.01c.625,1.063,1.243,2.13,1.863,3.2.016.028.031.058.047.089l.018.038h0l.028.061h0l.03.067h0l.023.048h0l.012.025h-.976l-.014-.008-.024-.013a.082.082,0,0,1-.039-.036,1.2,1.2,0,0,0-1.443-.774,3.633,3.633,0,0,1-.713.022l-.143-.007h0l-.1,0-.1,0a.432.432,0,0,0-.479.287.817.817,0,0,1-1.06.556l-.039-.008-.02,0-.039-.009-.02-.005c.007-.02.015-.04.022-.06l.031-.09a1.032,1.032,0,0,1,.074-.173Q107.27,32.863,108.2,31.264Zm-22.712-.331h.221l.663,0c.589,0,1.179,0,1.768.009a1.543,1.543,0,0,1,1.585,1.277,1.95,1.95,0,0,1-1.964,2.632H85.227V30.989l.068-.017.044-.012A.583.583,0,0,1,85.489,30.933Zm65.817.007V34.09h2.853l.029.637h0a1.049,1.049,0,0,1-.131.028l-.044.006-.046.006-.051.006h0l-.054.006-.028,0-.059.005-.03,0-.064.005h0l-.066,0h0l-.069,0h0l-.072,0h0l-.074,0h0l-.116.006h0l-.079,0h0l-.082,0h0l-.126,0h0l-.13,0h0l-.132,0h0l-.09,0h0l-.137,0h-.891l-.14,0h0l-.138,0h0l-.091,0h0l-.089,0h0l-.089,0h0l-.13,0h0l-.085,0h0l-.083,0h0l-.081,0h0l-.079,0h0l-.077,0h0l-.074-.005-.037,0-.071-.006h0c0-.478,0-.957,0-1.441v-.565h0l0-1.428h0V30.94h.955Zm-38.96.011h.775l.038,3.118h2.93l.034.666h0a1.636,1.636,0,0,1-.264.043l-.057.006-.03,0-.063.005-.033,0-.069.005h0l-.071,0h0l-.075,0h0l-.078,0h0l-.08,0h0l-.125.005h0l-.087,0h0l-.088,0h0l-.136,0h0l-.092,0h0l-.141,0h0l-.142,0h0l-.145,0h-.626l-.141,0h0l-.138,0h0l-.09,0h0l-.088,0h0l-.129,0h0l-.083,0h0l-.081,0h0l-.078,0h0l-.075,0h0l-.071,0-.035,0-.067,0-.032,0-.062-.005c-.079-.007-.148-.015-.205-.024Zm-12.683.006h.847l0,.015s0,.005,0,.008l0,.018h0l0,.02h0l0,.022h0l0,.024h0l.006.039h0l0,.043h0l0,.047h0l.006.068h0l.008.094h0l.006.082h0l0,.065h0l0,.068h0l.007.143h0l0,.127h0l.005.132h0l.006.194h0l0,.2h0l0,.178h0l0,.211h0v.213h0v.311h0l0,.187h0l0,.147h0l0,.108h0l0,.106h0l0,.07h0l0,.1h0l0,.1h0l0,.065h0l0,.094h0l0,.091h0l0,.058h0l0,.056h0l0,.081h0l0,.052h0l0,.049h0l0,.047h0l0,.045h0l0,.042h0l-.005.04a.126.126,0,0,0,0,.019h-.837a1.059,1.059,0,0,1-.026-.138l-.006-.047c0-.024-.006-.05-.008-.078l-.005-.057h0l-.005-.061h0l0-.065h0l0-.069h0l0-.072h0l-.006-.114h0l0-.08h0l-.005-.124h0l0-.13h0l0-.134h0l0-.138h0l0-.094h0l0-.144h0l0-.146h0l0-.147h0v-.1h0v-.149h0v-.1h0V32.51h0v-.1h0v-.145h0l0-.143h0l0-.093h0l0-.137h0l0-.089h0l0-.087h0l0-.126h0l0-.081h0l0-.078h0l0-.075h0l0-.072h0l0-.069,0-.033.005-.063,0-.03.005-.057Q99.658,30.994,99.663,30.957Zm24.2-.039a.679.679,0,0,1,.774.733c.006.067.007.134.007.205v.061h0v.063h0l0,.134h0v.147h-.806l-.14-.473h-2.284V34.04h2.341l.1-.654h.793c0,.251.008.5,0,.754-.018.464-.214.674-.68.689-.321.01-.642.01-.963.008l-.321,0h-.48l-.316,0c-.211,0-.422,0-.633,0-.5-.012-.779-.237-.8-.725-.031-.793-.031-1.589,0-2.382a.786.786,0,0,1,.867-.806C122.17,30.907,123.019,30.91,123.868,30.918Zm-26.962,0,.439,0h.079l.038,0h0l.037,0h0l.035,0h0l.034,0,.017,0,.033,0,.016,0,.031,0a.531.531,0,0,1,.5.5l0,.031,0,.016,0,.032,0,.017,0,.034v.017l0,.036h0v.037h0V31.7h0v.039h0v.041h0v.042h0c0,.005,0,.01,0,.015l0,.016h0l0,.017,0,.009-.006.028h0l-.018.084h0l-.01.047,0,.017h-.213c-.12,0-.242,0-.364,0a.425.425,0,0,1-.059-.008l-.021,0c-.053-.013-.1-.034-.109-.058a.333.333,0,0,0-.359-.3h-.08l-.058,0h0l-.069.005h0l-.034,0H96.7c-.3,0-.594-.006-.9-.006H95.55l-.66,0h-.27v2.351l.636.009.648.007h1.367v-.7H95.99v-.614h2.126v.99h0v.094h0v.059h0v.057h0V34h0l0,.052h0l0,.05h0l0,.048h0l0,.046c-.034.448-.153.584-.571.625l-.043,0h0l-.045,0h-.023l-.048,0h0l-.05,0H94.709c-.111,0-.221,0-.331,0-.443-.018-.71-.226-.723-.663-.026-.866-.026-1.734.007-2.6.017-.435.288-.648.734-.652.837-.008,1.674-.007,2.511,0Zm-4.766-.041v3.942h-.914v-3.89l.071-.012.068-.012a1.445,1.445,0,0,1,.193-.025c.084,0,.168,0,.257,0l.282,0Zm45.99.086V34.8h-.81V30.96Zm-31.992.014.028.655h-1.758V34.8h-.871V31.642h-1.769v-.636a1.4,1.4,0,0,1,.2-.031l.058-.006h0l.063-.005h0l.067-.005h0l.073,0h0l.077,0h0l.082,0h0l.085,0h0l.089,0h0l.093,0h0l.1,0h0l.15,0h0l.1,0h0l.105,0h0l.162,0h0l.165,0h0l.168,0h0l.17,0h.851l.164,0h0l.108,0h0l.105,0h0l.1,0h0l.1,0h0l.1,0h0l.094,0h0l.136.005h0l.085,0,.042,0,.079,0h0l.076,0h0l.07,0C105.986,30.956,106.072,30.964,106.138,30.974Zm37.688-.008v.714h-1.757V34.8h-.858V31.706h-1.769v-.74Zm-9.735-.038h.117l.352,0c.156,0,.313,0,.469.005a.715.715,0,0,1,.792.784c.007.138.007.276.005.414l0,.269h0l0,.04c0,.059-.006.115-.013.167l0,.034a.633.633,0,0,1-.632.6l-.036,0-.018,0-.038,0h-.019l-.04,0-.061,0c-.3.008-.593.008-.889.006l-.356,0h-1.243v1.536h-.839V30.928Zm-45.961.723c-.38-.014-.761-.016-1.148-.014l-.653,0h-.266v2.409l.395,0,.387.005c.384,0,.758.006,1.131-.017a.993.993,0,0,0,.962-.782,1.357,1.357,0,0,0-.318-1.386A.823.823,0,0,0,88.131,31.652Zm59.45,1.532-.755-1.476h0L146,33.147A2.978,2.978,0,0,0,147.581,33.183Zm-19.574-1.416c-.093.115-.18.23-.259.343l-.038.056-.038.056-.036.056c-.03.046-.058.092-.085.137l-.031.054q-.024.04-.045.08l-.028.052a2.176,2.176,0,0,0-.232.617l0,.019h1.536l-.741-1.469Zm-19.233-.082c-.034.06-.069.119-.1.177l-.067.114h0l-.165.276c-.011.018-.022.036-.032.054l-.064.108a6.7,6.7,0,0,0-.393.761l-.023.057h1.622l-.775-1.547Zm26.068.037H132.5V32.5h2.1a.284.284,0,0,0,.3-.317,1.258,1.258,0,0,0-.016-.2l-.009-.06h0l-.015-.094-.009-.066ZM54.66,25.056v3.651a1.235,1.235,0,0,1-.179.037l-.042.006h0l-.045.006-.024,0-.049.005-.025,0-.053.005h0l-.055,0h0l-.057,0h0l-.089.007h0l-.093.006h0l-.1.005h0l-.1,0h0l-.068,0h0l-.1,0h0l-.071,0h0l-.072,0h0l-.109,0h0l-.11,0H52.7l-.108,0h0l-.107,0h0l-.07,0h0l-.069,0h0l-.068,0h0l-.066,0h0l-.1,0h0l-.063,0h0l-.061,0h0l-.059,0h0l-.085-.007h0l-.054,0-.026,0-.05-.005-.024,0-.046-.006h0l0-.017h0l0-.019,0-.01,0-.022h0l0-.024h0l0-.026h0l0-.027h0l-.006-.044h0l-.005-.048h0l-.005-.052h0L51.6,28.4h0l-.006-.081h0l0-.064h0l-.007-.114h0l-.005-.1h0l-.006-.126h0l-.005-.132h0l0-.11h0l0-.141h0l0-.087h0l0-.147h0l0-.21h0l0-.213h0v-.163h0v-.123h0v-.163h0v-.121h0l0-.159h0l0-.117h0l0-.114h0l0-.111h0l0-.108h0l0-.1h0l0-.1h0l.005-.1h0l.006-.091h0l0-.058h0l.006-.082h0l0-.051,0-.025a1.007,1.007,0,0,1,.12-.027l.038-.006h0l.041-.006.022,0,.045-.006h0l.048-.005h0l.05,0h0l.053,0h0l.055,0h0l.086-.006h0l.091-.006h0l.063,0h0l.1,0h0l.067,0h0l.1,0h0l.105,0h0l.108,0h0l.11,0h0l.111,0h.6l.11,0h0l.073,0h0l.072,0h0l.071,0h0L54,25h0l.069,0h0l.067,0h0l.066,0h0l.064,0h0l.063,0h0l.061,0h0l.059.005.029,0,.056.006h0l.053.006h0l.051.006ZM120.532,0h5.124l-.031.073h0l-.045.1h0l-.041.1h0l-.026.062h0l-.026.06c-.022.049-.044.1-.067.144l-2.792,5.729q-3.49,7.161-6.987,14.318a2.85,2.85,0,0,0-.313,1.32c.012,1.241.012,2.482.011,3.723l0,1.861c0,.207,0,.414,0,.621v.668c-1.055.042-2.093.035-3.134.017l-.368-.007h0l-1.105-.021h0V.006h4.586c.014.384.015.768.013,1.151v.329c0,.109,0,.219,0,.328v.164c0,.646,0,1.293,0,1.939v7.919a6.376,6.376,0,0,0,.663-1.234l.066-.153h0l.07-.166c.047-.11.094-.22.142-.33.29-.659.567-1.323.85-1.984l.872-2.035h0q.425-.992.847-1.985c.282-.662.562-1.325.846-1.986q.182-.423.364-.845L120.532,0ZM46.705.148h4.6v3.6l-.134.008-.133.009c-.088.006-.176.01-.263.01q-3.875-.008-7.75-.02h-.045l-.107,0-.041,0h0l-.04,0a.86.86,0,0,0-.873.9l0,.043,0,.022,0,.045c0,.008,0,.015,0,.023-.023.509-.025,1.019-.024,1.529v.51q0,.17,0,.34v.17q0,.1,0,.2V7.84c0,.229,0,.458-.014.686l-.006.1a2.014,2.014,0,0,0,.761,1.751c2.282,1.984,4.547,3.988,6.829,5.973l.761.661a3.025,3.025,0,0,1,1.109,2.425q-.006,2.2,0,4.406v2.937q0,.734,0,1.469c0,.07,0,.139-.007.212l-.014.23q0,.041,0,.083H0V25.109H.671L22.115,25.1l10.722-.006,4.078,0h0l8.157-.008h.166c.055,0,.111,0,.166,0a.936.936,0,0,0,.947-.835,3.9,3.9,0,0,0,.047-.662c0-.239,0-.478,0-.717l0-.538c0-.538-.006-1.076.011-1.613l.006-.179a2.147,2.147,0,0,0-.825-1.83c-2.709-2.342-5.393-4.715-8.1-7.066a3.139,3.139,0,0,1-1.151-2.523c.009-1.25,0-2.5,0-3.75l-.006-1.071q0-.8-.007-1.607V2.575a4.226,4.226,0,0,1,.025-.5A2.042,2.042,0,0,1,38.2.179,3.6,3.6,0,0,1,38.705.15h8ZM55.358.17q6.117.008,12.235.022A4.753,4.753,0,0,1,68.2.227a2.083,2.083,0,0,1,1.841,1.666,4.973,4.973,0,0,1,.1,1.043q.006,4.4,0,8.794v4.4h0a2.168,2.168,0,0,1-2.053,2.306,4.637,4.637,0,0,1-.551.046q-3.294.013-6.588.018c-.058,0-.115,0-.176-.01l-.062-.006h0l-.065-.007h0l-.068-.006-.036,0v-3.7h4.8V4.1h0a1.9,1.9,0,0,0-.322-.044l-.077-.006-.041,0-.087-.006h0l-.093-.005h0l-.1-.005-.051,0-.161-.007h0l-.113,0h0l-.118,0h0l-.122,0h0l-.126,0h0l-.129,0h0l-.2,0h0l-.136,0h0l-.139,0h0l-.211,0h0l-.215,0h0l-.217,0h-1.3l-.2,0h0l-.133,0h0l-.13,0h0l-.189,0h0l-.121,0h0L60.5,4h0l-.113,0h0l-.108,0-.1,0-.1,0-.047,0-.089.005-.194.015-.007.041h0l-.016.085c-.014.072-.027.147-.034.222a1.862,1.862,0,0,0,0,.207v.083q0,.021,0,.042l-.023,23.45h0v.6H55.095c0-.025,0-.052-.005-.078l-.013-.166c-.007-.1-.014-.2-.014-.308l-.01-2.863q-.01-2.864-.013-5.727,0-7.494,0-14.987V.221l.068-.012L55.22.186A.729.729,0,0,1,55.358.17Zm51.6-.148c0,.037.006.073.009.109l.01.108c.008.089.015.178.015.266q.015,6.427.024,12.855a1.953,1.953,0,0,1-1.9,2.214,7.165,7.165,0,0,1-.931.062l-.288,0-.144,0-.108,0h0l-.072,0h-.37l-.372,0h-.183c.284.8.586,1.561.889,2.31l.182.448h0l.242.593.06.148.12.3q.09.222.178.443l.059.148q.432,1.094.873,2.184l.44,1.091q.221.545.44,1.091l.627,1.564h0l1.121,2.8h-4.916l-.5-1.249q-.189-.471-.377-.944l-1.2-3.013q-1.5-3.766-2.985-7.535a2.594,2.594,0,0,1-.169-.854c-.01-.32-.013-.64-.013-.967V14h0v-.2h0l0-.508h0v-.314c0-.035,0-.071,0-.106h4.629V4.023H96.589q0,2.055,0,4.113v4.115h0v4.1h0v12.4H91.966V.021ZM72.8,25.077,71.9,28.759H60.12V25.1h0a7.367,7.367,0,0,1,.858-.049l.2-.005h0l.223-.005h0l.24,0h0l.256,0h0l.27,0h0l.284,0h0l.3,0h0l.308,0h0l.482,0h0l.5,0h0l.344,0h0l.527,0h0l.537,0h0l.544,0H68.86l.337,0h0l.329,0h0l.32,0h0l.309,0h0l.3,0h0l.285,0h0l.272,0h0l.257,0,.123,0,.233,0C72.259,25.037,72.687,25.055,72.8,25.077Zm47.008-9.731.059-.1h0l6.463,13.477h-5.105l-.033-.063h0l-.067-.125c-.044-.083-.087-.166-.127-.251l-.358-.767h0l-1.074-2.3q-1.074-2.3-2.159-4.6a.838.838,0,0,1,.024-.866c.463-.844.914-1.693,1.364-2.544l.386-.729.387-.728.018-.033h0l.018-.033h0l.019-.033h0l.02-.034h0l.053-.089h0l.112-.187ZM167,0V3.746H124.585L126.456,0H167ZM119.986.018a1.191,1.191,0,0,1-.056.229L119.912.3h0l-.02.059h0l-.021.063-.012.033-.024.068h0L119.809.6h0l-.028.075h0l-.03.078h0l-.031.08h0l-.032.083h0L119.655,1h0l-.053.132h0l-.037.09h0l-.056.138h0l-.058.141h0l-.061.143h0l-.04.1h0l-.062.145h0l-.063.145h0l-.042.1h0l-.064.144h0l-.042.1h0l-.042.094h0l-.042.093h0l-.063.137h0l-.061.133h0l-.04.086h0l-.04.084h0l-.039.081h0l-.038.079-.019.038-.037.074-.018.036-.035.069h0l-.034.066-.016.032-.032.06c-.01.019-.021.038-.03.056l-.029.052h0l-.028.047c-.013.023-.026.043-.038.062h-2.668V.018Zm-9.725,0a.839.839,0,0,1,.023.111l.006.042c0,.022,0,.046.008.072l.005.053h0l.006.057h0l0,.061h0l0,.064h0l.007.1h0l0,.072h0l.006.114h0l0,.079h0l0,.081h0l0,.126h0l0,.13h0l0,.089h0l0,.136h0l0,.138h0l0,.14h0v.094h0V1.92h0v.142h0V2.2h0V2.3h0v.139h0v.092h0l0,.135h0l0,.132h0l0,.086h0l0,.084h0l0,.122h0l0,.078h0l0,.076h0l0,.073h0l0,.07c0,.011,0,.023,0,.034l-.005.065h0l0,.061c0,.01,0,.02,0,.029l-.006.056a.24.24,0,0,0,0,.026l-.006.05,0,.023h-2.842V1.594h0V.785h0V.247h0a.544.544,0,0,1,.016-.116l.012-.055h0l.008-.04c0-.007,0-.014,0-.021ZM83.633.02h7.894v2h0v.965q0,.12,0,.24c0,.049,0,.1,0,.147l-.006.093h0l0,.066h0l0,.069,0,.036H84.358L83.633.02Z" transform="translate(135 2328)" fill="#fff"/>
    <path id="Path_868" data-name="Path 868" d="M142.912.377a3.684,3.684,0,0,1,.982.1,1.693,1.693,0,0,1,.554.251.766.766,0,0,1,.247.346l.032.094a3.457,3.457,0,0,1,.127,1.089V8.586a8.01,8.01,0,0,1-1.751,5.026,6.442,6.442,0,0,1-2.2,1.738,6.793,6.793,0,0,1-2.991.649,6.574,6.574,0,0,1-2.97-.67,6.189,6.189,0,0,1-2.157-1.759,7.964,7.964,0,0,1-1.73-5.026V2.1h0l0-.243h0l.007-.2h0l.011-.154h0a1.851,1.851,0,0,1,.213-.565.937.937,0,0,1,.577-.44,4.786,4.786,0,0,1,2.179,0,.852.852,0,0,1,.555.44,2.83,2.83,0,0,1,.257,1.319V8.545a4.926,4.926,0,0,0,.64,2.429,2.386,2.386,0,0,0,.961.942,3.08,3.08,0,0,0,1.517.356,2.623,2.623,0,0,0,2.328-1.131,4.534,4.534,0,0,0,.77-2.618V2.115a2.257,2.257,0,0,1,.214-1.152A1.082,1.082,0,0,1,141.907.5,3.442,3.442,0,0,1,142.912.377ZM42.284,0a2.363,2.363,0,0,1,1.389.733,1.959,1.959,0,0,1,.833,1.3,1.937,1.937,0,0,1-.619,1.2l-4.4,4.743,4.294,4.628a2.231,2.231,0,0,1,.726,1.34q0,.544-.833,1.278a2.29,2.29,0,0,1-1.389.733,2,2,0,0,1-1.3-.838l-4.059-4.565L32.863,15.12a2.065,2.065,0,0,1-1.325.838,2.441,2.441,0,0,1-1.388-.733q-.833-.754-.833-1.278a2.283,2.283,0,0,1,.748-1.34l4.294-4.628L30.065,3.351a2.138,2.138,0,0,1-.748-1.319A1.8,1.8,0,0,1,30.036.858l.115-.1A2.34,2.34,0,0,1,31.539,0a2,2,0,0,1,1.325.838L36.922,5.4,40.981.838Q41.75,0,42.284,0ZM180.1.147A7.8,7.8,0,0,1,182.2.411l.235.07a4.418,4.418,0,0,1,1.475.649l.534.4q.663.607.662,1.026a2.279,2.279,0,0,1-.513,1.152A1.959,1.959,0,0,1,183.1,4.754a2.219,2.219,0,0,1-1.111-.419l-.057-.042h0l-.139-.115-.06-.052a2.573,2.573,0,0,0-.321-.272,2.194,2.194,0,0,0-1.153-.272,1.933,1.933,0,0,0-1.153.335,1.032,1.032,0,0,0-.45.9,1.071,1.071,0,0,0,.535.921,3.342,3.342,0,0,0,1.168.447l.2.035a14.287,14.287,0,0,1,1.457.311l.316.087a10.542,10.542,0,0,1,1.773.628,3.037,3.037,0,0,1,1.346,1.319A4.354,4.354,0,0,1,186,10.848a5.066,5.066,0,0,1-.555,2.408,4.2,4.2,0,0,1-1.453,1.592,6.724,6.724,0,0,1-3.7,1.11,7.611,7.611,0,0,1-1.9-.23,5.777,5.777,0,0,1-1.309-.52l-.144-.087a5.179,5.179,0,0,1-1.581-1.3l-.192-.23a1.982,1.982,0,0,1-.555-1.194q0-.544.918-1.424a1.635,1.635,0,0,1,1.132-.5q.6,0,1.667,1.047a3.392,3.392,0,0,0,.854.691,2.108,2.108,0,0,0,1.026.314q1.986,0,1.985-1.592a.917.917,0,0,0-.555-.8,3.59,3.59,0,0,0-1.147-.442l-.2-.04a12.651,12.651,0,0,1-1.752-.461,12.467,12.467,0,0,1-1.752-.775,3.591,3.591,0,0,1-1.366-1.382,4.672,4.672,0,0,1-.535-2.3,4.342,4.342,0,0,1,1.389-3.2A5.224,5.224,0,0,1,180.1.147ZM153.5.4a5.994,5.994,0,0,1,3.653,1.34A4.925,4.925,0,0,1,158.56,3.5a5.448,5.448,0,0,1,.555,2.471,5.15,5.15,0,0,1-1.6,3.9l.194.454h0l.315.722h0l.593,1.333h0l.35.779h0a3.284,3.284,0,0,1,.32,1.089q0,.8-1.324,1.34a3,3,0,0,1-1.111.293,1.188,1.188,0,0,1-.683-.189,1.7,1.7,0,0,1-.385-.419l-.075-.153h0l-.232-.507h0l-.551-1.254h0l-.808-1.877h0l-.662.042h-2.691v2.5h0l-.007.238q-.009.164-.024.286l-.012.077a1.5,1.5,0,0,1-.191.545q-.3.565-1.668.565-1.494,0-1.751-.775a3.45,3.45,0,0,1-.128-1.089V2.108h0l.006-.336h0L147,1.6q0-.038.006-.071a1.861,1.861,0,0,1,.215-.565q.3-.565,1.665-.565ZM11.727.419a3.679,3.679,0,0,1,.983.1,1.458,1.458,0,0,1,.556.251.768.768,0,0,1,.246.346l.031.094a3.231,3.231,0,0,1,.128,1.068V13.906q0,.144,0,.265l-.01.221h0l-.017.176h0l-.011.071a1.47,1.47,0,0,1-.192.545q-.3.565-1.666.565a3.585,3.585,0,0,1-1.154-.126,1.245,1.245,0,0,1-.534-.4L5.058,8.683h0L3.76,7.016h0v7.028h0l-.007.243q-.008.165-.024.281l-.011.071a1.47,1.47,0,0,1-.192.545q-.3.565-1.666.565-1.324,0-1.623-.565a1.868,1.868,0,0,1-.214-.566l-.01-.162h0L0,14.141q0-.059,0-.124V2.2A2.56,2.56,0,0,1,.192,1.047a1.046,1.046,0,0,1,.619-.5A3.618,3.618,0,0,1,1.858.419a3.51,3.51,0,0,1,.909.1l.1.029a1.437,1.437,0,0,1,.487.21l.068.058h0l.06.059h0l.138.151h0l.2.226.078.092L7.5,6.139h0L9.417,8.644h0l.494.634h0V2.2A2.559,2.559,0,0,1,10.1,1.047a1.045,1.045,0,0,1,.62-.5A3.438,3.438,0,0,1,11.727.419ZM17.746.4h8.417q.14,0,.26,0l.218.01a2.4,2.4,0,0,1,.249.028,1.545,1.545,0,0,1,.577.188q.577.293.577,1.634,0,1.466-.79,1.717a3.64,3.64,0,0,1-1.111.126H19.583V6.22h4.23l.26,0a3.356,3.356,0,0,1,.466.038,1.544,1.544,0,0,1,.577.188q.577.293.577,1.633,0,1.466-.812,1.717a3.64,3.64,0,0,1-1.111.126H19.583v2.115h6.579q.14,0,.26,0l.218.01h0l.176.017h0l.072.011a1.545,1.545,0,0,1,.577.188q.577.293.577,1.634,0,1.466-.79,1.717a3.642,3.642,0,0,1-1.111.126H17.682q-1.5,0-1.752-.8a3.231,3.231,0,0,1-.128-1.068V2.241A1.961,1.961,0,0,1,16.208.8,2.221,2.221,0,0,1,17.746.4ZM59.014.377a2.27,2.27,0,0,1,1,.168.762.762,0,0,1,.427.482,2.97,2.97,0,0,1,.107.88,2.97,2.97,0,0,1-.107.88.719.719,0,0,1-.363.44,2.531,2.531,0,0,1-1.089.188h-4.08V13.948q0,.138,0,.255l-.01.214h0l-.018.173c0,.025-.007.049-.011.071a1.47,1.47,0,0,1-.192.544.871.871,0,0,1-.556.419,4.6,4.6,0,0,1-2.136,0,.952.952,0,0,1-.556-.419,2.275,2.275,0,0,1-.192-.544l-.006-.076h0l-.009-.181h0l-.005-.219q0-.059,0-.123V3.414h-4.1a2.56,2.56,0,0,1-1-.147.835.835,0,0,1-.427-.5,2.967,2.967,0,0,1-.107-.88,2.756,2.756,0,0,1,.107-.859.725.725,0,0,1,.363-.461A2.532,2.532,0,0,1,47.137.377ZM87.1.4h8.417q.141,0,.26,0l.218.01a2.394,2.394,0,0,1,.248.028,1.544,1.544,0,0,1,.577.188q.577.293.577,1.634,0,1.466-.791,1.717a3.639,3.639,0,0,1-1.111.126H88.933V6.22h4.23l.26,0a3.359,3.359,0,0,1,.467.038,1.544,1.544,0,0,1,.577.188q.577.293.577,1.633,0,1.466-.812,1.717a3.638,3.638,0,0,1-1.11.126H88.933v2.115h6.579q.141,0,.26,0l.218.01h0l.176.017h0l.072.011a1.544,1.544,0,0,1,.577.188q.577.293.577,1.634,0,1.466-.791,1.717a3.641,3.641,0,0,1-1.111.126H87.032q-1.5,0-1.752-.8a3.235,3.235,0,0,1-.128-1.068V2.241A1.961,1.961,0,0,1,85.558.8,2.22,2.22,0,0,1,87.1.4Zm23.833.021a3.682,3.682,0,0,1,.983.1,1.458,1.458,0,0,1,.555.251.779.779,0,0,1,.246.346l.032.094a3.246,3.246,0,0,1,.128,1.068V13.906l0,.265a3.644,3.644,0,0,1-.029.4l-.011.071a1.5,1.5,0,0,1-.192.545q-.3.565-1.667.565a3.579,3.579,0,0,1-1.153-.126,1.253,1.253,0,0,1-.534-.4L104.272,8.7h0l-1.311-1.684h0v6.89q0,.144,0,.265l-.011.221h0l-.017.176h0l-.012.071a1.464,1.464,0,0,1-.192.545q-.3.565-1.666.565-1.324,0-1.624-.565a1.868,1.868,0,0,1-.214-.566l-.006-.076h0l-.009-.181h0l-.005-.219h0l0-.257h0V2.2a2.562,2.562,0,0,1,.192-1.152,1.047,1.047,0,0,1,.619-.5A3.623,3.623,0,0,1,101.06.419a3.51,3.51,0,0,1,.909.1l.1.029a1.425,1.425,0,0,1,.486.21l.068.058h0l.06.059h0l.138.151h0l.195.226.078.092,3.615,4.8h0l1.915,2.505h0l.494.634h0V2.2a2.546,2.546,0,0,1,.193-1.152,1.045,1.045,0,0,1,.619-.5A3.435,3.435,0,0,1,110.929.419ZM127.9.377a2.276,2.276,0,0,1,1.005.168.767.767,0,0,1,.427.482,2.977,2.977,0,0,1,.107.88,2.977,2.977,0,0,1-.107.88.723.723,0,0,1-.364.44,2.524,2.524,0,0,1-1.088.188h-4.08V13.948a4.2,4.2,0,0,1-.044.712,1.477,1.477,0,0,1-.191.544.877.877,0,0,1-.556.419,4.6,4.6,0,0,1-2.136,0,.952.952,0,0,1-.556-.419,2.282,2.282,0,0,1-.192-.544l-.01-.162h0l-.007-.2h0l0-.371h0V3.414h-4.1a2.564,2.564,0,0,1-1-.147.83.83,0,0,1-.427-.5,2.944,2.944,0,0,1-.107-.88,2.734,2.734,0,0,1,.107-.859.719.719,0,0,1,.364-.461,2.521,2.521,0,0,1,1.088-.188ZM162.83.4h8.416c.093,0,.18,0,.26,0l.218.01a2.4,2.4,0,0,1,.248.028,1.542,1.542,0,0,1,.577.188q.578.293.577,1.634,0,1.466-.79,1.717a3.65,3.65,0,0,1-1.112.126h-6.558V6.22h4.23l.26,0a3.353,3.353,0,0,1,.466.038,1.547,1.547,0,0,1,.577.188q.577.293.577,1.633,0,1.466-.812,1.717a3.635,3.635,0,0,1-1.11.126h-4.188v2.115h6.58c.093,0,.18,0,.26,0l.218.01h0l.176.017h0l.072.011a1.542,1.542,0,0,1,.577.188q.578.293.577,1.634,0,1.466-.79,1.717a3.652,3.652,0,0,1-1.112.126h-8.459q-1.494,0-1.751-.8a3.24,3.24,0,0,1-.129-1.068V2.241A1.963,1.963,0,0,1,161.291.8,2.224,2.224,0,0,1,162.83.4ZM81.024.272a2.856,2.856,0,0,1,1.261.356q1.26.607,1.26,1.34a2.658,2.658,0,0,1-.321,1.005L77.329,14.7a1.858,1.858,0,0,1-.726.754,1.933,1.933,0,0,1-.983.272h-.213a2.087,2.087,0,0,1-1.026-.272,1.9,1.9,0,0,1-.7-.754l-5.9-11.728a2.649,2.649,0,0,1-.321-1.005q0-.69,1.116-1.268L68.72.628A2.687,2.687,0,0,1,69.789.272a1.515,1.515,0,0,1,.577.084.989.989,0,0,1,.363.293,3.166,3.166,0,0,1,.341.565l.076.139h0l.106.211h0l.189.393h0l.313.671h0L73.313,5.99h0l.5,1.056h0l.477,1.019q.233.5.453.982l.769,1.592h0l4.272-9.173.109-.247h0l.1-.209q.047-.1.09-.172A1.118,1.118,0,0,1,81.024.272ZM153.455,4.1h-2.691V7.812H153.5a2.075,2.075,0,0,0,1.24-.461,1.614,1.614,0,0,0,.619-1.382,1.614,1.614,0,0,0-.619-1.382A2.07,2.07,0,0,0,153.455,4.1Z" transform="translate(392 2343)" fill="#fff"/>
    <path id="Path_869" data-name="Path 869" d="M103.866,58.564c2.326,0,2.96,2.376,2.96,5.017,0,.254-.015.9-.033,1.572h0l0,.13c-.015.543-.031,1.087-.042,1.44h0l-.015.342-.009.205h0l-.006.136-.006.136c-.047,1.016-.1,1.959-.1,2.376,0,.159.026.211.237.291h0l.688.264a.284.284,0,0,1,.158.29c0,.053-.026.053-.079.053-.267-.022-.853-.026-1.489-.026h-.361c-.661,0-1.216.026-1.507.026-.052,0-.105-.053-.105-.159-.019-.192-.039-.733-.048-1.268h0v-.1c0-.166,0-.33,0-.48s.026-.554.026-.66h0l-.053-.026c-.079.158-.158.37-.264.554C103.258,69.891,102.386,71,100.88,71c-1.454,0-2.749-1.267-2.749-3.7,0-2.218,1.11-4.726,3.462-4.726a2.549,2.549,0,0,1,1.85.687,4.726,4.726,0,0,1,.344.37h0l.1-.026a9.27,9.27,0,0,0-.1-1.426c-.106-1.109-.582-2.324-1.665-2.324a4.077,4.077,0,0,0-2.8,1.716c-.026.026-.053.053-.079.053-.079,0-.317-.238-.211-.37A5.765,5.765,0,0,1,103.866,58.564Zm-17.575,0a5.938,5.938,0,0,1,1.691.185.177.177,0,0,1,.106.185h0l.238,2.429c0,.132-.238.291-.344.291-.026,0-.053,0-.079-.053-.344-.634-.661-1.215-1.084-1.848a1.317,1.317,0,0,0-.317-.37,1.343,1.343,0,0,0-.846-.238,1.57,1.57,0,0,0-1.533,1.69c0,1.109.529,1.716,1.956,2.64,1.506.977,2.511,2.086,2.511,3.644C88.59,69.363,86.529,71,83.6,71a6.589,6.589,0,0,1-1.691-.211.263.263,0,0,1-.185-.238h0L81.507,68.1c0-.132.264-.264.343-.264.026,0,.053,0,.079.053.344.581.714,1.294,1.11,1.9a1.413,1.413,0,0,0,.476.423,1.639,1.639,0,0,0,.793.238,1.854,1.854,0,0,0,2.035-1.8c0-1.03-.581-1.769-2.22-2.746-1.744-1.03-2.458-2.086-2.458-3.459h0v-.026C81.666,60.623,83.463,58.564,86.291,58.564Zm-23.337,0c2.907,0,4.493,2.376,4.493,5.466,0,3.38-1.48,6.971-5.55,6.971H61.87c-2.617,0-4.2-2.429-4.2-5.545C57.668,61.89,59.307,58.564,62.954,58.564Zm-21.117,0c2.326,0,2.96,2.376,2.96,5.017,0,.254-.015.9-.033,1.572h0l0,.13c-.015.543-.031,1.087-.042,1.44h0l-.014.342-.009.205h0l-.006.136-.006.136c-.047,1.016-.1,1.959-.1,2.376,0,.159.027.211.238.291h0l.687.264a.285.285,0,0,1,.159.29c0,.053-.026.053-.079.053-.267-.022-.853-.026-1.489-.026H43.74c-.661,0-1.216.026-1.506.026-.053,0-.106-.053-.106-.159-.019-.192-.038-.733-.048-1.268h0v-.1c0-.166,0-.33,0-.48s.026-.554.026-.66h0l-.053-.026c-.079.158-.159.37-.264.554C41.229,69.891,40.357,71,38.851,71,37.4,71,36.1,69.733,36.1,67.3c0-2.218,1.11-4.726,3.462-4.726a2.549,2.549,0,0,1,1.85.687,4.723,4.723,0,0,1,.344.37h0l.106-.026a9.264,9.264,0,0,0-.106-1.426c-.106-1.109-.581-2.324-1.665-2.324a4.075,4.075,0,0,0-2.8,1.716c-.026.026-.053.053-.079.053-.079,0-.317-.238-.211-.37A5.765,5.765,0,0,1,41.837,58.564Zm-18.791,0c2.352,0,3.647,2.72,3.647,5.122h0v.026a.773.773,0,0,1-.529.845,12.917,12.917,0,0,1-2.9.194h-.137c-.732-.008-1.444-.038-1.953-.086,0,.246,0,.54.012.836h0l0,.126a9.709,9.709,0,0,0,.091,1.2c.317,1.822,1.057,3.142,2.458,3.142a4.27,4.27,0,0,0,1.3-.211,13.381,13.381,0,0,0,1.454-.66c.053-.026.132.185.132.29a.2.2,0,0,1-.053.132,12.58,12.58,0,0,1-2.669,1.32A5.878,5.878,0,0,1,22.253,71C19.69,71,18,69.31,18,65.614,18,62.445,19.61,58.564,23.046,58.564Zm9.329-3.353c.053,0,.079.053.053.211-.079.739-.238,2.588-.264,3.565h0l3.2.079a.057.057,0,0,1,.053.053c0,.159-.106.4-.159.4h0l-3.092.264q-.159,2.693-.159,6.02c0,3.8.951,4.357,1.9,4.357a4.485,4.485,0,0,0,.608-.026,5.051,5.051,0,0,0,1.031-.317c.079-.026.106.132.106.238a.206.206,0,0,1-.106.211,6.179,6.179,0,0,1-1.929.713,4,4,0,0,1-.535.025h-.549c-2.141,0-3.542-.977-3.568-4.779,0-.756.052-1.98.128-3.243h0l.013-.217.014-.217c.063-.976.139-1.947.214-2.713h0l-1.692.026c-.053,0-.106-.026-.106-.132a1.62,1.62,0,0,1,.079-.422c.079-.158.185-.343.423-.343h0l1.4.026c.053-.475.185-1.452.37-2.271.053-.291.238-.607.951-.924l.621-.243h0l.081-.032A5.7,5.7,0,0,1,32.375,55.21Zm93.347,0c.053,0,.079.053.053.211-.08.739-.238,2.588-.265,3.565h0l3.2.079a.056.056,0,0,1,.053.053c0,.159-.106.4-.158.4h0l-3.093.264q-.158,2.693-.158,6.02c0,3.8.951,4.357,1.9,4.357a4.49,4.49,0,0,0,.608-.026,5.042,5.042,0,0,0,1.03-.317c.08-.026.106.132.106.238a.206.206,0,0,1-.106.211,6.179,6.179,0,0,1-1.929.713,4,4,0,0,1-.535.025h-.549c-2.14,0-3.541-.977-3.568-4.779,0-.756.052-1.98.129-3.243h0l.027-.434c.063-.976.139-1.947.214-2.713h0l-1.691.026c-.053,0-.106-.026-.106-.132a1.619,1.619,0,0,1,.08-.422c.079-.158.185-.343.422-.343h0l1.4.026c.053-.475.185-1.452.37-2.271.053-.291.238-.607.952-.924l.621-.243h0l.081-.032A5.725,5.725,0,0,1,125.723,55.21Zm-71.676-.9a4.363,4.363,0,0,1,1.8.29c.106.026.132.106.159.238h0l.37,3.353c.026.106-.264.238-.37.238-.027,0-.053-.026-.079-.053-.449-.977-.9-1.98-1.348-2.957A1.15,1.15,0,0,0,54.312,55a.724.724,0,0,0-.5-.185,2.285,2.285,0,0,0-1.744,1.268c-1.057,1.611-1.612,3.908-1.612,7.34,0,5.017,1.982,6.5,3.251,6.5a5.837,5.837,0,0,0,1.4-.158,8.093,8.093,0,0,0,1.348-.555c.053-.026.132.132.132.317a.228.228,0,0,1-.079.158,11.643,11.643,0,0,1-1.9,1.03,5.5,5.5,0,0,1-1.929.29c-2.934,0-5.55-2.06-5.55-7.156h0v-.026c0-3.961,1.3-6.575,3.066-8.053A5.828,5.828,0,0,1,54.047,54.313Zm40.357.9c.053,0,.079.053.053.211-.079.739-.238,2.588-.264,3.565h0l3.2.079a.057.057,0,0,1,.053.053c0,.159-.106.4-.159.4h0l-3.092.264q-.159,2.693-.159,6.02c0,3.8.951,4.357,1.9,4.357a4.486,4.486,0,0,0,.608-.026,5.051,5.051,0,0,0,1.031-.317c.079-.026.106.132.106.238a.206.206,0,0,1-.106.211,6.179,6.179,0,0,1-1.929.713,4,4,0,0,1-.535.025h-.549c-2.141,0-3.542-.977-3.568-4.779,0-.756.052-1.98.128-3.243h0l.013-.217.014-.217c.063-.976.139-1.947.214-2.713h0l-1.691.026c-.053,0-.106-.026-.106-.132a1.616,1.616,0,0,1,.079-.422c.079-.158.185-.343.423-.343h0l1.4.026c.053-.475.185-1.452.37-2.271.053-.291.238-.607.951-.924l.621-.243h0l.082-.032A5.688,5.688,0,0,1,94.4,55.21ZM4.572,54.524a.2.2,0,0,1,.185.158c.449,1.584,2.669,9.506,3.224,11.565.079.238.159.528.317,1h.159c.159-.449.238-.845.317-1.083.714-2.271,2.326-8.529,3.171-11.512.026-.079.053-.132.132-.132h4.1a.07.07,0,0,1,.079.079c0,.106-.053.29-.132.317h0l-.608.158c-.291.079-.344.343-.37.634,0,.147-.007.433-.007.809v.529c0,.549,0,1.2.009,1.872h0v.36h0v.18c.009,1.379.021,2.706.021,3.168v1.6c0,.579,0,1.248,0,1.925h0v.271h0V66.7c0,1.29.01,2.528.022,3.141,0,.29.053.4.238.449h0l.661.238c.053.026.079.238.079.291,0,.026-.027.026-.053.026-.344-.026-1.163-.053-2.167-.053-1.084,0-2.088.026-2.484.053-.079,0-.079-.026-.079-.079,0-.106.053-.238.132-.264h0l.872-.211c.185-.053.238-.238.238-.423-.079-2.588-.476-8.423-.555-10.667,0-.291-.026-.607,0-.871h-.212c-.106.343-.185.634-.264.845-.389,1.275-.974,3.193-1.579,5.126h0l-.079.252c-.594,1.891-1.2,3.771-1.656,5.053h0l-.06.167q-.074.2-.141.385c-.132.343-.211.4-.714.422a4.485,4.485,0,0,1-.581.026.167.167,0,0,1-.159-.132c-.441-1.235-1.1-3.1-1.751-4.99h0l-.093-.271c-.681-1.987-1.341-3.98-1.724-5.3-.053-.211-.185-.5-.238-.766H2.7a5.709,5.709,0,0,1-.079.766c-.081.918-.24,2.7-.4,4.533h0l-.055.624c-.186,2.118-.363,4.164-.417,4.851,0,.264.053.4.238.423h0l.846.158c.053,0,.106.185.106.264,0,.053,0,.079-.079.079-.449-.026-.9-.053-1.48-.053-.449,0-.978.026-1.321.053C0,70.842,0,70.815,0,70.789c0-.106.053-.291.132-.291h0l.608-.132c.185-.026.238-.106.238-.4.012-.592.044-1.885.081-3.233h0l.005-.184c.046-1.658.1-3.355.126-3.9.025-.456.072-1.872.116-3.333l.018-.626c.042-1.456.077-2.826.077-3.2,0-.185-.079-.291-.37-.37h0L.4,54.92c-.106-.026-.132-.211-.132-.317a.07.07,0,0,1,.079-.079H4.572Zm108.121,4.04c.132-.026.185.079.185.211,0,.059-.025.963-.056,1.965h0l0,.108,0,.108h0l-.006.163h0v.054l0,.109,0,.108c-.019.577-.039,1.134-.056,1.531,0,.264-.026.528-.053.819h.106c.079-.317.159-.607.211-.739.608-2.007,1.956-4.436,3.6-4.436,1.823,0,2.7,1.8,2.7,5.1,0,1.743-.159,4.911-.265,6.02-.026.343.027.449.238.528h0l.872.317a.4.4,0,0,1,.106.264c0,.026,0,.053-.053.053l-.764-.025h0l-.147,0c-.441-.013-.891-.023-1.494-.023-.887,0-1.452.016-1.984.036h0l-.1,0-.1,0h0l-.1,0h0l-.149.006c-.053,0-.053-.026-.053-.053,0-.132.026-.238.105-.264h0l.82-.264a.4.4,0,0,0,.291-.4c.014-.2.052-1.017.083-1.886h0l0-.119c.025-.694.045-1.405.045-1.85,0-.407,0-.855-.016-1.313h0l0-.138c-.064-1.792-.323-3.671-1.354-3.671S113.3,63,112.825,65.693c-.006.046-.013.1-.021.156h0l-.011.09a36.453,36.453,0,0,0-.258,3.978.327.327,0,0,0,.238.343h0l.819.264c.079.026.106.185.106.264,0,.026,0,.053-.053.053-.82-.026-1.48-.053-2.458-.053-1.084,0-1.692.026-2.484.053-.053,0-.053-.026-.053-.053,0-.132.053-.264.132-.291h0l.951-.238c.159-.053.265-.132.265-.29,0-.374-.014-1.371-.027-2.395h0l0-.307c-.011-.844-.021-1.665-.022-2.129h0v-.181c0-.441-.027-1.343-.054-2.265h0l-.007-.243c-.029-.945-.058-1.871-.07-2.3,0-.185-.053-.317-.238-.343h0l-.9-.079c-.079,0-.158-.211-.158-.343,0-.026,0-.053.079-.079h0Zm-39.96,0c.132-.026.185.079.185.211,0,.059-.025.963-.056,1.965h0l0,.108h0l0,.108-.005.163h0l0,.054,0,.109,0,.108c-.019.577-.038,1.134-.055,1.531,0,.264-.026.528-.053.819h.106A7.479,7.479,0,0,1,73.05,63c.608-2.007,1.956-4.436,3.594-4.436,1.824,0,2.7,1.8,2.7,5.1,0,1.743-.159,4.911-.264,6.02-.026.343.026.449.238.528h0l.872.317a.4.4,0,0,1,.106.264c0,.026,0,.053-.053.053l-.765-.025h0l-.147,0c-.441-.013-.891-.023-1.494-.023-.887,0-1.452.016-1.984.036h0l-.1,0-.1,0h0l-.1,0-.15.006c-.053,0-.053-.026-.053-.053,0-.132.026-.238.106-.264h0l.819-.264a.4.4,0,0,0,.291-.4c.014-.2.052-1.017.084-1.886h0l0-.119c.025-.694.044-1.405.044-1.85V65.7c0-.319-.005-.658-.016-1h0l0-.138c-.064-1.792-.323-3.671-1.354-3.671S73.34,63,72.865,65.693c-.007.046-.014.1-.021.156h0l-.011.09a36.452,36.452,0,0,0-.258,3.978.327.327,0,0,0,.238.343h0l.819.264c.079.026.106.185.106.264,0,.026,0,.053-.053.053-.819-.026-1.48-.053-2.458-.053-.65,0-1.129.009-1.579.023l-.446.014-.459.016c-.053,0-.053-.026-.053-.053,0-.132.053-.264.132-.291h0l.951-.238c.159-.053.264-.132.264-.29,0-.374-.014-1.371-.027-2.395h0l0-.307c-.011-.844-.021-1.665-.022-2.129v-.08c0-.391-.026-1.366-.055-2.365h0l-.007-.243c-.028-.945-.058-1.871-.07-2.3,0-.185-.053-.317-.238-.343h0l-.9-.079c-.079,0-.159-.211-.159-.343,0-.026,0-.053.079-.079h0Zm-10.122.5c-1.533,0-1.771,2.878-1.771,5.994,0,2.72.608,5.439,1.8,5.439h.026c1.459,0,1.6-2.57,1.611-5.263h0v-.176q0-.132,0-.264v-.264C64.275,61.521,63.773,59.065,62.61,59.065Zm39.776,4.251c-.949,0-1.275,1.64-1.294,3.425h0v.166c0,1.663.423,2.667,1.11,2.667h.026c.661,0,1.428-1.056,1.745-2.614a4.074,4.074,0,0,0,.105-.766c0-.185-.052-.528-.079-.739C103.866,64.716,103.39,63.316,102.386,63.316Zm-62.029,0c-.949,0-1.275,1.64-1.294,3.425h0v.166c0,1.663.423,2.667,1.11,2.667H40.2c.661,0,1.427-1.056,1.744-2.614a4.086,4.086,0,0,0,.106-.766c0-.185-.053-.528-.079-.739C41.837,64.716,41.361,63.316,40.357,63.316ZM22.7,59.065h-.026c-.819,0-1.48,1.8-1.507,5.149a5.527,5.527,0,0,0,2.141-.158c.264-.106.476-.37.476-1.083h0v-.08c0-.921-.058-3.828-1.083-3.828ZM79.549,0a9.554,9.554,0,0,1,8.262,14.37l-15.353,26.3a9.569,9.569,0,0,1-16.531-.011l-15.305-26.3A9.558,9.558,0,0,1,48.891,0ZM53.322,13.811l-.307.006-.324.007-.315.008-.454.012-.291.009-.418.014-.267.01-.382.015-.243.011-.233.011-.113.006-.325.018-.2.012-.195.013-.185.013-.175.014L48.724,14l-.079.007-.151.014-.142.015-.132.015-.122.016a5.129,5.129,0,0,0-2.62,1.128L59.191,38.761a5.792,5.792,0,0,0,9.956.089l.049-.082L70.3,36.875c-.337.021-.694.026-1.077.019l-.2,0-.108-.015a5.763,5.763,0,0,1-3.151-1.321l-.11-.09-.056-.046-.113-.1-.057-.049-.115-.1-.177-.159A10.509,10.509,0,0,1,63.8,33.377l-.139-.2q-.319-.461-.683-1.024l-.164-.255-.084-.131-.171-.27-.175-.28-.18-.29-.185-.3-.094-.154h0l-.192-.316-.2-.326-.2-.337-.1-.172-.208-.352-.213-.362-.217-.373-.222-.383-.227-.394-.232-.4-.237-.415-.241-.425-.246-.436-.251-.447-.256-.457-.394-.706-.269-.484-.274-.495-.42-.762-.431-.787-.443-.811-.3-.554-.462-.852-.118-.219-1.7-2.912A4.151,4.151,0,0,1,53.322,13.811ZM79.645,3.773H76.511a7.418,7.418,0,0,1,1.314,5.637l-.009.059v.009a6.251,6.251,0,0,1-.314,1.4l-.041.12-.021.06-.044.122-.023.062-.048.125-.05.127-.026.064-.054.13-.056.132-.059.134-.061.136-.063.137-.066.14-.068.141-.035.071h0l-.072.145-.074.147-.076.149-.079.151-.081.153-.083.155-.086.157-.088.159-.091.161-.093.163-.047.083-.1.167-.149.254-.1.172-.1.175-.162.266-.167.271-.114.184-.107.17-2.334,3.83L67.831,27.8a4.171,4.171,0,0,1-2.04,1.765l0,.006.148.236.143.226.138.216.133.205.065.1.125.19.12.179.115.169a7.387,7.387,0,0,0,.893,1.134l.134.121.083.074.04.035.077.066.074.061.071.057.068.052a2,2,0,0,0,.947.408l.086.015.079.012.1,0h.136a3.9,3.9,0,0,0,2.13-.477l.044-.024.022-.013.046-.027.024-.015.051-.032.053-.035.028-.019.058-.04.06-.043.063-.046.066-.05.1-.08.072-.057.075-.06.077-.064.08-.066.125-.106.086-.074.089-.077.138-.122.143-.128.148-.135.153-.142.159-.148.1-.1L84.55,12.47a5.783,5.783,0,0,0-4.9-8.7Zm-9.556,0h-21.2a5.786,5.786,0,0,0-5.3,8.122,8.89,8.89,0,0,1,4-1.561l.138-.018.147-.017.156-.017.081-.008h0l.17-.016.088-.008.184-.015.193-.015.2-.014.212-.014.221-.014.114-.007.356-.019.249-.012.258-.012.4-.017.426-.016.447-.014.31-.009.482-.013.333-.008.695-.014.361-.007.371-.006.574-.008.6-.007L55.974,10,56.612,10l.66,0,.913,0,.951,0h1.756l.789,0,1.085,0,.839,0L64.758,10H70.94a4.184,4.184,0,0,1,2.5.822l.021-.043.07-.146.065-.141.041-.091.039-.088.055-.128.035-.082.033-.08.031-.078.029-.075.027-.073.025-.07.023-.068.021-.065.019-.063.009-.03L74,9.447l.014-.056.006-.027.011-.053q.011-.051.017-.1l.006-.045,0-.021.007-.1.012-.079C74.437,6.6,73.28,4.971,70.089,3.773Z" transform="translate(943 2315)" fill="#fff"/>
    <path id="Path_870" data-name="Path 870" d="M46.258,63.694a5.088,5.088,0,0,1,1.294,2.351l-1.807.462-.14-.259h0l-.13-.267C44.39,63.389,40.8,63.8,39.647,65.52a5.338,5.338,0,0,0-.831,3.771,6.339,6.339,0,0,0,.63,2.1,3.349,3.349,0,0,0,3.476,1.716,2.946,2.946,0,0,0,2.591-1.9l.211-.446h0l1.807.455a4.838,4.838,0,0,1-5.62,3.723,5.571,5.571,0,0,1-5.078-5.441,7.075,7.075,0,0,1,1.253-5.113A5.669,5.669,0,0,1,46.258,63.694ZM90.849,62.4l.576.017a.826.826,0,0,1,.915.653l.2.545h0l3.728,10.7h0l.145.5h0l-.178.037h0c-.571-.008-1.278.177-1.688-.088-.3-.191-.387-.7-.508-1.159l-.1-.33c-.178-.484-.222-1.152-.57-1.4a1.376,1.376,0,0,0-.857-.14l-.656.035H88.987c-.289.89-.6,1.741-.848,2.608-.093.321-.242.463-.5.492l-.662-.013h0l-.955.009h0a5.413,5.413,0,0,1,.13-.558c1.319-3.795,2.647-7.589,3.949-11.384A.647.647,0,0,1,90.849,62.4Zm-37.058,0,.6.013c.487.025.677.11.853.462l.182.448h0l3.852,11.119h0l.13.41h0l-1.165.006c-.186,0-.37-.009-.554-.024-.135-.01-.312-.222-.369-.378-.32-.885-.609-1.782-.916-2.7-1.4,0-2.777-.01-4.153.016a.587.587,0,0,0-.389.34c-.287.781-.55,1.571-.794,2.367a.442.442,0,0,1-.511.376l-.5-.007h0l-1.105.007h0l1.424-4.081q1.363-3.936,2.712-7.869A.625.625,0,0,1,53.791,62.407Zm32.264.047v1.833H82.591V74.831l-1.918-.006V64.313H77.227V62.454ZM74.7,62.443V74.831H72.809V62.443Zm-12.771-.03,1.313-.008h0l1.305.015a16.314,16.314,0,0,1,3.044.2c1.862.411,2.8,2.017,2.562,4.1A3.475,3.475,0,0,1,66.7,69.755l-.932.007h0l-1.947-.007v5.058h-1.9Zm38.927.038V72.985h5.353V74.81h-7.3V62.451ZM54.241,65.1h-.119l-1.551,4.766,3.223.006Zm38.576,4.766-1.609-4.955L89.6,69.867ZM66.9,64.339l-1.01-.051h0l-2.072.028v3.163l.032.4h0l1.988.022c.323,0,.643-.014.962-.04.9-.076,1.339-.683,1.372-1.655C68.206,65.179,67.771,64.427,66.9,64.339Zm64.989-25.624a9.793,9.793,0,0,1,7.56,1.938,9.331,9.331,0,0,1,3.487,8.747l-.068.607H127.962a5.176,5.176,0,0,0,5.564,4.3,4.772,4.772,0,0,0,3.771-1.717.47.47,0,0,1,.335-.129l4.527-.006h0a6.081,6.081,0,0,1-1.539,2.776,9.025,9.025,0,0,1-4.874,2.627,10.613,10.613,0,0,1-6.816-.611,8.975,8.975,0,0,1-5.375-7.628,10.066,10.066,0,0,1,.846-5.647A9.013,9.013,0,0,1,131.888,38.715Zm-36.377-.1a9.425,9.425,0,0,1,9.69,9.781,9.77,9.77,0,0,1-19.524.533v-.588A9.386,9.386,0,0,1,95.511,38.61Zm-77.5.1a8.972,8.972,0,0,1,6.279,1.384l.582.424v-1.5h4.341V57.688H24.891V56.262a1.19,1.19,0,0,0-.253.1,7.856,7.856,0,0,1-5.385,1.759,9.434,9.434,0,0,1-7.3-3.243,9.179,9.179,0,0,1-2.218-5.412,9.93,9.93,0,0,1,1.932-7.237A9.254,9.254,0,0,1,18.012,38.706Zm30.765.006A10,10,0,0,1,55.893,40.3,9.217,9.217,0,0,1,59.9,48.654l-.043.661h0l-.06.687H44.861a5.332,5.332,0,0,0,2.023,3.327c1.853,1.442,5.894,1.346,7.277-.67a.578.578,0,0,1,.417-.193c1.493-.014,2.976-.009,4.51-.009a6.7,6.7,0,0,1-2.587,3.7,10.653,10.653,0,0,1-7.542,1.9,9.081,9.081,0,0,1-7.094-4.241,9.472,9.472,0,0,1-1.453-5.061,9.758,9.758,0,0,1,1.761-6.25A9.119,9.119,0,0,1,48.777,38.712Zm18.583-.055a6.188,6.188,0,0,1,4.531,2.414,5.266,5.266,0,0,1,1.057,3.46H68.612c-.011-.171-.01-.317-.032-.46A1.978,1.978,0,0,0,66.6,42.313a1.9,1.9,0,0,0-2.066,1.251,1.782,1.782,0,0,0,.819,2.166l.793.383h0l3.385,1.306c.285.116.567.239.841.377a4.748,4.748,0,0,1,2.62,4.945,5.548,5.548,0,0,1-5.3,5.31,7.264,7.264,0,0,1-5.425-1.318,5.6,5.6,0,0,1-2.153-4.582h4.3c.06.316.092.612.175.893A1.985,1.985,0,0,0,66.7,54.414a1.91,1.91,0,0,0,.92-3.627l-.828-.363h0l-1.7-.648a17.53,17.53,0,0,1-2.093-.893c-2.045-1.149-2.673-3.035-2.514-5.245C60.74,40.195,63.926,38.28,67.36,38.657Zm12.2-3.854v4.148H85.32v4.009H79.6l-.027.616h0v7.255h0a5.372,5.372,0,0,0,.133,1.27,2.287,2.287,0,0,0,2.5,1.692l3.017.017h0l.106.028h0v3.906l-.861-.013h0l-1.713.024a12.314,12.314,0,0,1-3.378-.327,5.138,5.138,0,0,1-3.957-4.881L75.351,49.6h0l-.05-5.908h0v-.711H73.295V38.992h2V34.8ZM35.035,41.454l5.676-2.449.038.539h0c0,1.134-.019,2.27.013,3.4a.642.642,0,0,1-.5.716L35.67,45.52h0a.815.815,0,0,0-.635.911l.019,5.3h0v6.011H30.73V39.021h4.306ZM4.32,41.459,10.034,39v2.867c0,.466-.007.929-.017,1.392,0,.128-.224.3-.386.369-1.586.662-3.184,1.316-4.787,1.944a.683.683,0,0,0-.52.758l.014,5.38h0l0,6.006H0v-18.7H4.32Zm117.889,2.609a9.774,9.774,0,0,1,.319,2.418c.033,3.587.014,7.175.013,10.763,0,.144-.023.288-.038.461h-4.3V46.485a3.609,3.609,0,0,0-2.475-3.648c-2.273-.7-4.6.179-5.167,2.542a6.23,6.23,0,0,0-.148,1.434l-.008,5.1h0l0,5.791h-4.3V39h4.265V40.33a1.05,1.05,0,0,0,.25-.112C113.749,37.253,120.637,38.235,122.209,44.069ZM97.581,43.012a5.406,5.406,0,0,0-6,1.069,5.936,5.936,0,0,0-1.544,5.394c.618,4.588,5.272,5.515,8.045,4.045l.336-.2c1.8-1.152,2.4-2.93,2.4-5.066l-.039-.632h0A4.937,4.937,0,0,0,97.581,43.012Zm-78.1-.388a5.085,5.085,0,0,0-5.252,3.785,7.748,7.748,0,0,0-.186,3.085,5.272,5.272,0,0,0,3.59,4.4,5.569,5.569,0,0,0,5.982-1.613A6.331,6.331,0,0,0,24.8,47.558,5.1,5.1,0,0,0,19.481,42.624Zm30.837-.192-.531.014c-2.31.155-4.377,1.763-4.692,3.488l-.04.371h10.2a4.938,4.938,0,0,0-4.935-3.873Zm83.241.009a5.062,5.062,0,0,0-5.326,3.377l-.138.484h10.2C138.184,44.357,136.049,42.58,133.558,42.441ZM71.5,0l5.7.009a1.152,1.152,0,0,1,.7.223L90.179,10.9,71.5,27.152,52.817,10.9l4.738-4.129c2.471-2.148,4.937-4.3,7.422-6.436A1.392,1.392,0,0,1,65.8.014L71.5,0Zm4.23,21.8h-3.55v3.094Zm-4.921,0H67.256l3.553,3.089ZM76.6,1.236q-5.11.023-10.219,0a.677.677,0,0,0-.492.161,1.043,1.043,0,0,0-.2.259L63.156,6.068q-1.273,2.2-2.556,4.4l-.079.157h0l-.055.219h0l0,.051a.68.68,0,0,0,.036.205l.046.114h0l5.212,9.035h0a.682.682,0,0,0,.637.295l1.269-.009H75.33l1.284.006a.66.66,0,0,0,.665-.364q2.56-4.467,5.149-8.915a.653.653,0,0,0-.009-.757Q79.844,6.086,77.3,1.646A.7.7,0,0,0,76.6,1.236ZM71.829,3.312c1.207.356,2.4.754,3.6,1.154a1.159,1.159,0,0,1,.559.329l.842,1.135h0l1.7,2.334h0l-1.006.75-.638-.839a3.98,3.98,0,0,1-.271-.429,5.679,5.679,0,0,0-3.95-2.9,5.188,5.188,0,0,0-2.608,0,5.989,5.989,0,0,0-3.976,2.878,5.437,5.437,0,0,0-.795,2.445,6.021,6.021,0,0,0,1.558,4.775,4.18,4.18,0,0,0,1.546,1.271l.93.283h0l1.013.388a2.59,2.59,0,0,0,2.018.005l1.016-.384.257-.085h0l.259-.069A3.044,3.044,0,0,0,75.858,14.9l.524-.763h0l1.137-1.526h0l1.006.736c-.865,1.19-1.715,2.376-2.591,3.544a.753.753,0,0,1-.334.211l-.2.068c-1.2.393-2.392.789-3.6,1.144a1.691,1.691,0,0,1-.91,0q-1.812-.533-3.6-1.153a1.666,1.666,0,0,1-.738-.536q-1.147-1.509-2.223-3.07a1.789,1.789,0,0,1-.3-.917c-.034-1.228-.031-2.455,0-3.683a1.684,1.684,0,0,1,.281-.866q1.093-1.584,2.258-3.114a1.579,1.579,0,0,1,.7-.5c1.189-.413,2.387-.806,3.594-1.162A1.8,1.8,0,0,1,71.829,3.312ZM85.8,11.54l-.522-.046a1.906,1.906,0,0,0-2.166,1.018L82,14.566h0l-1.985,3.38.093.056,7.454-6.49-1.221.03c-.188,0-.369.005-.547,0ZM57.306,11.5l-1.675,0-.064.118L62.9,18l-1.12-2.088q-.573-1.037-1.161-2.058L59.43,11.816a.656.656,0,0,0-.454-.295l-1.67-.016ZM71.5,8.475l1.981.017a.572.572,0,0,1,.418.3c.264.671.5,1.355.7,2.045a.573.573,0,0,1-.107.479l-.976,1h0L71.5,14.34h0l-2.018-2.029c-.328-.332-.653-.664-.976-1a.578.578,0,0,1-.112-.483c.209-.689.443-1.373.706-2.042a.57.57,0,0,1,.419-.295L71.5,8.475Zm1.38,1.26H70.107a3.637,3.637,0,0,0-.224.643.834.834,0,0,0,.056.581c.472.546.989,1.052,1.505,1.588l.184-.135,1.162-1.162c.445-.458.468-.591.215-1.216Zm14.659.533L80.05,3.754l.03.192h0q1.741,3.041,3.5,6.071a.484.484,0,0,0,.32.241l1.168.01h2.471ZM62.965,3.881l-.088-.071-7.418,6.454,3.566-.009.118-.027h0a.43.43,0,0,0,.232-.154l1.8-3.094Z" transform="translate(1162 2313)" fill="#fff"/>
    <g id="Group_20726" data-name="Group 20726" transform="translate(668 2326)">
      <path id="Path_871" data-name="Path 871" d="M29.635,38.285l8.281-4.806.02-9.3L43.6,20.9l-.751,15.708L29.555,44.319Zm.2-9.322,5.305-3.079.066,5.949-5.445,3.16Zm2.787-16.8,5.166-3L42.882,12.2l.066,5.949-5.166,3L37.716,15.2ZM16.586,40.087,21.745,43,26.9,40.087v6L21.745,49l-5.159-2.917ZM8.847,16.926l5.092-3.032,7.331,4.254,8.385-4.866,5.092,3.032.066,5.949L26.59,27.036v9.545L21.431,39.5l-5.159-2.917V27.224L8.781,22.875ZM8.011,7.2,21.919,0,35.21,7.714l-5.238,2.948L21.691,5.855l-8.018,4.63ZM0,21.148l5.662,3.286.02,9.3,8.281,4.806.08,6.034L.751,36.855Zm16.786-8.97,5.093-3.032,5.445,3.16-5.232,2.951ZM8.726,26.212l5.305,3.079.073,6.03L8.66,32.161ZM.191,11.9,5.283,8.87l5.166,3L5.357,14.9,5.29,20.85l-5.166-3Z" fill="#f3ba2f"/>
      <path id="Path_872" data-name="Path 872" d="M158.706,3.138a12.189,12.189,0,0,1,2.366.213,9.863,9.863,0,0,1,1.945.586,8.438,8.438,0,0,1,1.613.906,10.978,10.978,0,0,1,1.375,1.172l-2.591,3.01a9.832,9.832,0,0,0-2.209-1.545,5.6,5.6,0,0,0-2.526-.559,5.109,5.109,0,0,0-3.861,1.7,5.873,5.873,0,0,0-1.111,1.851,6.361,6.361,0,0,0-.4,2.251v.053a6.466,6.466,0,0,0,.4,2.264,5.931,5.931,0,0,0,1.1,1.865,5.12,5.12,0,0,0,1.692,1.266,5.066,5.066,0,0,0,2.182.466,5.632,5.632,0,0,0,2.684-.586,10.367,10.367,0,0,0,2.182-1.6l2.592,2.637a13.433,13.433,0,0,1-1.481,1.385,8.79,8.79,0,0,1-1.679,1.052,8.668,8.668,0,0,1-2,.666,11.954,11.954,0,0,1-2.432.227,9.524,9.524,0,0,1-3.782-.746,9.159,9.159,0,0,1-5-5.087,9.849,9.849,0,0,1-.714-3.618V12.78a9.766,9.766,0,0,1,.715-3.742,9.6,9.6,0,0,1,1.983-3.063A9.19,9.19,0,0,1,154.792,3.9,9.839,9.839,0,0,1,158.706,3.138Zm-82.3.32V22.1H72.335V3.457Zm9.924,0,8.674,11.48V3.457h4.02V22.1H95.561L86.6,10.25V22.1h-4.02V3.457Zm28.78-.133L123.045,22.1h-4.258l-1.693-4.182h-7.828L107.574,22.1h-4.153l7.935-18.778Zm16.086.133,8.674,11.48V3.457h4.019V22.1h-3.464L131.461,10.25V22.1h-4.02V3.457Zm53.67,0V7.107H174.95v3.782h8.727v3.649H174.95v3.916H185V22.1H170.93V3.457ZM60.1,3.457a6.517,6.517,0,0,1,4.831,1.651,4.326,4.326,0,0,1,1.267,3.17v.053A4.606,4.606,0,0,1,66,9.743a4.4,4.4,0,0,1-.526,1.105,4.2,4.2,0,0,1-.762.866,5.1,5.1,0,0,1-.933.639A6.24,6.24,0,0,1,66.3,14.018a4.224,4.224,0,0,1,.921,2.819v.151a4.868,4.868,0,0,1-.488,2.238,4.338,4.338,0,0,1-1.4,1.6,6.536,6.536,0,0,1-2.191.959,11.726,11.726,0,0,1-2.838.319H51.516V3.457ZM60.19,14.4H55.483v4.1h4.84a3.89,3.89,0,0,0,2.116-.493,1.692,1.692,0,0,0,.767-1.532v-.053a1.764,1.764,0,0,0-.714-1.478A3.826,3.826,0,0,0,60.19,14.4Zm52.99-6.153L110.721,14.3h4.919ZM59.5,7.053h-4.02V11h3.755a4.216,4.216,0,0,0,2.142-.466,1.613,1.613,0,0,0,.793-1.5V8.971a1.646,1.646,0,0,0-.688-1.425A3.378,3.378,0,0,0,59.5,7.053Z" fill="#f3ba2f"/>
      <rect id="Rectangle_26" data-name="Rectangle 26" width="133.483" height="17.501" transform="translate(51.516 29.39)" fill="url(#linear-gradient)"/>
      <path id="Path_873" data-name="Path 873" d="M63.354,41.868,63.71,40.5h1.831l.356,1.368h1.434L65.24,35.186H64.012l-2.077,6.682Zm1.89-2.492H64l.621-2.382Zm5.623,2.584a2.251,2.251,0,0,0,1.662-.587,2.507,2.507,0,0,0,.639-1.73H71.826a1.715,1.715,0,0,1-.228.938.876.876,0,0,1-.73.259.812.812,0,0,1-.76-.372,2.926,2.926,0,0,1-.221-1.368h0V37.839a2.66,2.66,0,0,1,.237-1.246.813.813,0,0,1,.762-.379.853.853,0,0,1,.728.268,1.806,1.806,0,0,1,.217.975h1.347a2.784,2.784,0,0,0-.641-1.753,2.447,2.447,0,0,0-3.376.135,3.231,3.231,0,0,0-.621,2.123h0v1.124a3.318,3.318,0,0,0,.6,2.127A2.089,2.089,0,0,0,70.867,41.96Zm6.139,0a2.251,2.251,0,0,0,1.662-.587,2.506,2.506,0,0,0,.639-1.73H77.965a1.713,1.713,0,0,1-.228.938.876.876,0,0,1-.73.259.812.812,0,0,1-.76-.372,2.926,2.926,0,0,1-.221-1.368h0V37.839a2.658,2.658,0,0,1,.237-1.246.813.813,0,0,1,.762-.379.853.853,0,0,1,.728.268,1.807,1.807,0,0,1,.217.975h1.347a2.784,2.784,0,0,0-.641-1.753,2.447,2.447,0,0,0-3.376.135,3.231,3.231,0,0,0-.621,2.123h0v1.124a3.317,3.317,0,0,0,.6,2.127A2.089,2.089,0,0,0,77.006,41.96Zm7.75-.092v-1.12H82.282V38.977h2.091V37.889H82.282V36.31h2.465V35.186H80.939v6.682Zm5.276,0v-1.12H87.676V35.186H86.334v6.682Zm5.4,0v-1.12H92.956V38.977h2.091V37.889H92.956V36.31h2.465V35.186H91.614v6.682Zm2.924,0V39.426h.667l1,2.442h1.443V41.8L100.3,39.069a1.945,1.945,0,0,0,.964-1.863,1.971,1.971,0,0,0-.55-1.494,2.169,2.169,0,0,0-1.559-.525H97.013v6.682Zm.762-3.566h-.762V36.31h.785q.781,0,.781,1.005a1.171,1.171,0,0,1-.2.718.7.7,0,0,1-.6.268Zm4.86,3.566.356-1.368h1.831l.356,1.368h1.434l-2.091-6.682h-1.228l-2.078,6.682Zm1.89-2.492h-1.241l.62-2.382Zm5.628,2.492V36.31h1.643V35.186h-4.606V36.31h1.616v5.558Zm5.385.092a2.179,2.179,0,0,0,1.755-.743,3.126,3.126,0,0,0,.633-2.088h0V37.986a3.252,3.252,0,0,0-.648-2.132,2.394,2.394,0,0,0-3.511.014,3.3,3.3,0,0,0-.635,2.15h0V39.16a3.082,3.082,0,0,0,.648,2.063A2.205,2.205,0,0,0,116.881,41.96Zm0-1.124a.883.883,0,0,1-.8-.415,2.5,2.5,0,0,1-.26-1.292h0V37.94a2.622,2.622,0,0,1,.265-1.292.942.942,0,0,1,1.584.016,2.75,2.75,0,0,1,.256,1.345h0v1.161a2.452,2.452,0,0,1-.26,1.26A.86.86,0,0,1,116.881,40.835Zm5.5,1.033V39.426h.667l1,2.442h1.443V41.8l-1.164-2.735a1.946,1.946,0,0,0,.963-1.863,1.967,1.967,0,0,0-.55-1.494,2.167,2.167,0,0,0-1.559-.525h-2.141v6.682Zm.763-3.566h-.763V36.31h.785q.782,0,.781,1.005a1.171,1.171,0,0,1-.2.718.7.7,0,0,1-.6.268Zm8.177,3.566v-2.35h.9a2.2,2.2,0,0,0,1.607-.569,2.076,2.076,0,0,0,.58-1.551,2.219,2.219,0,0,0-.587-1.6,2.071,2.071,0,0,0-1.573-.615h-2.264v6.682Zm.922-3.474h-.922V36.31h.936a.687.687,0,0,1,.575.3,1.33,1.33,0,0,1,.215.8,1.122,1.122,0,0,1-.21.734.729.729,0,0,1-.594.252Zm5.207,3.474V39.426h.667l1,2.442h1.443V41.8L139.4,39.069a1.945,1.945,0,0,0,.964-1.863,1.971,1.971,0,0,0-.55-1.494,2.17,2.17,0,0,0-1.56-.525h-2.141v6.682Zm.763-3.566h-.763V36.31h.786q.78,0,.78,1.005a1.177,1.177,0,0,1-.2.718.705.705,0,0,1-.6.268Zm6.166,3.658a2.179,2.179,0,0,0,1.755-.743,3.126,3.126,0,0,0,.633-2.088h0V37.986a3.246,3.246,0,0,0-.649-2.132,2.394,2.394,0,0,0-3.511.014,3.3,3.3,0,0,0-.634,2.15h0V39.16a3.082,3.082,0,0,0,.648,2.063A2.205,2.205,0,0,0,144.383,41.96Zm0-1.124a.883.883,0,0,1-.8-.415,2.5,2.5,0,0,1-.26-1.292h0V37.94a2.622,2.622,0,0,1,.265-1.292.942.942,0,0,1,1.584.016,2.75,2.75,0,0,1,.256,1.345h0v1.161a2.452,2.452,0,0,1-.26,1.26A.86.86,0,0,1,144.383,40.835Zm6.49,1.124a3.46,3.46,0,0,0,1.235-.213,2.449,2.449,0,0,0,.952-.636h0V38.353h-2.287v1.019h.94V40.6l-.119.083a1.157,1.157,0,0,1-.643.161.987.987,0,0,1-.893-.415,2.5,2.5,0,0,1-.271-1.329h0V37.884a2.559,2.559,0,0,1,.255-1.271.86.86,0,0,1,.79-.4.845.845,0,0,1,.657.232,1.517,1.517,0,0,1,.265.87h1.306a2.548,2.548,0,0,0-.637-1.684,2.249,2.249,0,0,0-1.632-.537,2.115,2.115,0,0,0-1.751.746,3.318,3.318,0,0,0-.6,2.127h0v1.2a3.091,3.091,0,0,0,.653,2.077A2.257,2.257,0,0,0,150.873,41.96Zm5.29-.092V39.426h.666l1,2.442h1.443V41.8l-1.164-2.735a1.946,1.946,0,0,0,.963-1.863,1.971,1.971,0,0,0-.55-1.494,2.169,2.169,0,0,0-1.559-.525H154.82v6.682Zm.762-3.566h-.762V36.31h.785q.78,0,.781,1.005a1.171,1.171,0,0,1-.2.718.705.705,0,0,1-.6.268Zm4.86,3.566.356-1.368h1.831l.356,1.368h1.434l-2.091-6.682h-1.228l-2.078,6.682Zm1.89-2.492h-1.241l.621-2.382Zm4.856,2.492V40.06l-.123-2.786,1.329,4.594h.913l1.328-4.594-.123,2.786v1.808H173.2V35.186h-1.753L170.2,40.019l-1.256-4.833h-1.753v6.682Z"/>
    </g>
  </g>
</svg>
