<svg xmlns="http://www.w3.org/2000/svg" width="167" height="46" viewBox="0 0 167 46">
  <path id="Path_867" data-name="Path 867" d="M78.345.025h4.848l6.062,28.744H84.663L80.805,7.111h0l-.119,0L78.468,19.7h0c.344.031.679.034,1.008.032h.165l.246,0h.326l.289,0h.523l.866,0h.225l.775,3.689H77.951L74.128,46H68.712L78.345.025ZM146.511,30.93l.1,0,.1,0a1.7,1.7,0,0,1,.323.013.477.477,0,0,1,.307.175l.158.267h0l.237.4h0l.158.268h0l.158.269h0l.237.406h0l.32.547h0l.9,1.548h0l-.11,0-.071,0h0l-.068,0h0l-.131.007h0l-.062,0a1.8,1.8,0,0,1-.431-.021.637.637,0,0,1-.387-.326.819.819,0,0,0-.91-.5h-.021a11.153,11.153,0,0,1-1.148.009L146,34a.5.5,0,0,0-.563.308l-.006.016a.754.754,0,0,1-.907.528l-.033,0h0l-.034-.005h0l-.034-.006h0l-.035-.007h0l-.034-.007h0l-.036-.008h0a1.294,1.294,0,0,1,.069-.181l.023-.051.026-.056.029-.06.015-.032.033-.067h0l.035-.07h0l.038-.074h0l.04-.077h0l.041-.08h0l.067-.126h0l.046-.087h0l.048-.09h0l.05-.092h0l.076-.141h0l.107-.194h0l.083-.148h0l.084-.15h0l.057-.1h0l.057-.1h0l.115-.2h0l.058-.1h0l.087-.149h0l.086-.147h0l.085-.144h0l.084-.141h0l.055-.091h0l.054-.089h0l.053-.087h0l.052-.084h0l.05-.081h0l.049-.078h0l.048-.075h0l.046-.071h0l.044-.068h0l.042-.064c.013-.021.027-.04.04-.059l.038-.055C146.457,31,146.485,30.964,146.511,30.93Zm-19.107.346a.65.65,0,0,1,1.17-.033q.691,1.172,1.372,2.351l.546.942h0a.937.937,0,0,1,.051.11l.047.124c0,.007.005.014.008.021l.018.044H130.5l-.071,0h0l-.1,0a2.147,2.147,0,0,0-.278.007l-.029,0a.558.558,0,0,1-.646-.356l-.007-.017a.729.729,0,0,0-.806-.473h-.022A9.6,9.6,0,0,1,127.3,34l-.083,0a.637.637,0,0,0-.7.4,1.71,1.71,0,0,1-.154.259l-.043.063-.042.063-.021.031h-.866l.022-.049h0l.02-.046h0l.045-.1h0l.016-.037c.017-.036.033-.069.052-.1Q126.474,32.876,127.4,31.276Zm-19.2-.012a.658.658,0,0,1,1.2.01c.625,1.063,1.243,2.13,1.863,3.2.016.028.031.058.047.089l.018.038h0l.028.061h0l.03.067h0l.023.048h0l.012.025h-.976l-.014-.008-.024-.013a.082.082,0,0,1-.039-.036,1.2,1.2,0,0,0-1.443-.774,3.633,3.633,0,0,1-.713.022l-.143-.007h0l-.1,0-.1,0a.432.432,0,0,0-.479.287.817.817,0,0,1-1.06.556l-.039-.008-.02,0-.039-.009-.02-.005c.007-.02.015-.04.022-.06l.031-.09a1.032,1.032,0,0,1,.074-.173Q107.27,32.863,108.2,31.264Zm-22.712-.331h.221l.663,0c.589,0,1.179,0,1.768.009a1.543,1.543,0,0,1,1.585,1.277,1.95,1.95,0,0,1-1.964,2.632H85.227V30.989l.068-.017.044-.012A.583.583,0,0,1,85.489,30.933Zm65.817.007V34.09h2.853l.029.637h0a1.049,1.049,0,0,1-.131.028l-.044.006-.046.006-.051.006h0l-.054.006-.028,0-.059.005-.03,0-.064.005h0l-.066,0h0l-.069,0h0l-.072,0h0l-.074,0h0l-.116.006h0l-.079,0h0l-.082,0h0l-.126,0h0l-.13,0h0l-.132,0h0l-.09,0h0l-.137,0h-.891l-.14,0h0l-.138,0h0l-.091,0h0l-.089,0h0l-.089,0h0l-.13,0h0l-.085,0h0l-.083,0h0l-.081,0h0l-.079,0h0l-.077,0h0l-.074-.005-.037,0-.071-.006h0c0-.478,0-.957,0-1.441v-.565h0l0-1.428h0V30.94h.955Zm-38.96.011h.775l.038,3.118h2.93l.034.666h0a1.636,1.636,0,0,1-.264.043l-.057.006-.03,0-.063.005-.033,0-.069.005h0l-.071,0h0l-.075,0h0l-.078,0h0l-.08,0h0l-.125.005h0l-.087,0h0l-.088,0h0l-.136,0h0l-.092,0h0l-.141,0h0l-.142,0h0l-.145,0h-.626l-.141,0h0l-.138,0h0l-.09,0h0l-.088,0h0l-.129,0h0l-.083,0h0l-.081,0h0l-.078,0h0l-.075,0h0l-.071,0-.035,0-.067,0-.032,0-.062-.005c-.079-.007-.148-.015-.205-.024Zm-12.683.006h.847l0,.015s0,.005,0,.008l0,.018h0l0,.02h0l0,.022h0l0,.024h0l.006.039h0l0,.043h0l0,.047h0l.006.068h0l.008.094h0l.006.082h0l0,.065h0l0,.068h0l.007.143h0l0,.127h0l.005.132h0l.006.194h0l0,.2h0l0,.178h0l0,.211h0v.213h0v.311h0l0,.187h0l0,.147h0l0,.108h0l0,.106h0l0,.07h0l0,.1h0l0,.1h0l0,.065h0l0,.094h0l0,.091h0l0,.058h0l0,.056h0l0,.081h0l0,.052h0l0,.049h0l0,.047h0l0,.045h0l0,.042h0l-.005.04a.126.126,0,0,0,0,.019h-.837a1.059,1.059,0,0,1-.026-.138l-.006-.047c0-.024-.006-.05-.008-.078l-.005-.057h0l-.005-.061h0l0-.065h0l0-.069h0l0-.072h0l-.006-.114h0l0-.08h0l-.005-.124h0l0-.13h0l0-.134h0l0-.138h0l0-.094h0l0-.144h0l0-.146h0l0-.147h0v-.1h0v-.149h0v-.1h0V32.51h0v-.1h0v-.145h0l0-.143h0l0-.093h0l0-.137h0l0-.089h0l0-.087h0l0-.126h0l0-.081h0l0-.078h0l0-.075h0l0-.072h0l0-.069,0-.033.005-.063,0-.03.005-.057Q99.658,30.994,99.663,30.957Zm24.2-.039a.679.679,0,0,1,.774.733c.006.067.007.134.007.205v.061h0v.063h0l0,.134h0v.147h-.806l-.14-.473h-2.284V34.04h2.341l.1-.654h.793c0,.251.008.5,0,.754-.018.464-.214.674-.68.689-.321.01-.642.01-.963.008l-.321,0h-.48l-.316,0c-.211,0-.422,0-.633,0-.5-.012-.779-.237-.8-.725-.031-.793-.031-1.589,0-2.382a.786.786,0,0,1,.867-.806C122.17,30.907,123.019,30.91,123.868,30.918Zm-26.962,0,.439,0h.079l.038,0h0l.037,0h0l.035,0h0l.034,0,.017,0,.033,0,.016,0,.031,0a.531.531,0,0,1,.5.5l0,.031,0,.016,0,.032,0,.017,0,.034v.017l0,.036h0v.037h0V31.7h0v.039h0v.041h0v.042h0c0,.005,0,.01,0,.015l0,.016h0l0,.017,0,.009-.006.028h0l-.018.084h0l-.01.047,0,.017h-.213c-.12,0-.242,0-.364,0a.425.425,0,0,1-.059-.008l-.021,0c-.053-.013-.1-.034-.109-.058a.333.333,0,0,0-.359-.3h-.08l-.058,0h0l-.069.005h0l-.034,0H96.7c-.3,0-.594-.006-.9-.006H95.55l-.66,0h-.27v2.351l.636.009.648.007h1.367v-.7H95.99v-.614h2.126v.99h0v.094h0v.059h0v.057h0V34h0l0,.052h0l0,.05h0l0,.048h0l0,.046c-.034.448-.153.584-.571.625l-.043,0h0l-.045,0h-.023l-.048,0h0l-.05,0H94.709c-.111,0-.221,0-.331,0-.443-.018-.71-.226-.723-.663-.026-.866-.026-1.734.007-2.6.017-.435.288-.648.734-.652.837-.008,1.674-.007,2.511,0Zm-4.766-.041v3.942h-.914v-3.89l.071-.012.068-.012a1.445,1.445,0,0,1,.193-.025c.084,0,.168,0,.257,0l.282,0Zm45.99.086V34.8h-.81V30.96Zm-31.992.014.028.655h-1.758V34.8h-.871V31.642h-1.769v-.636a1.4,1.4,0,0,1,.2-.031l.058-.006h0l.063-.005h0l.067-.005h0l.073,0h0l.077,0h0l.082,0h0l.085,0h0l.089,0h0l.093,0h0l.1,0h0l.15,0h0l.1,0h0l.105,0h0l.162,0h0l.165,0h0l.168,0h0l.17,0h.851l.164,0h0l.108,0h0l.105,0h0l.1,0h0l.1,0h0l.1,0h0l.094,0h0l.136.005h0l.085,0,.042,0,.079,0h0l.076,0h0l.07,0C105.986,30.956,106.072,30.964,106.138,30.974Zm37.688-.008v.714h-1.757V34.8h-.858V31.706h-1.769v-.74Zm-9.735-.038h.117l.352,0c.156,0,.313,0,.469.005a.715.715,0,0,1,.792.784c.007.138.007.276.005.414l0,.269h0l0,.04c0,.059-.006.115-.013.167l0,.034a.633.633,0,0,1-.632.6l-.036,0-.018,0-.038,0h-.019l-.04,0-.061,0c-.3.008-.593.008-.889.006l-.356,0h-1.243v1.536h-.839V30.928Zm-45.961.723c-.38-.014-.761-.016-1.148-.014l-.653,0h-.266v2.409l.395,0,.387.005c.384,0,.758.006,1.131-.017a.993.993,0,0,0,.962-.782,1.357,1.357,0,0,0-.318-1.386A.823.823,0,0,0,88.131,31.652Zm59.45,1.532-.755-1.476h0L146,33.147A2.978,2.978,0,0,0,147.581,33.183Zm-19.574-1.416c-.093.115-.18.23-.259.343l-.038.056-.038.056-.036.056c-.03.046-.058.092-.085.137l-.031.054q-.024.04-.045.08l-.028.052a2.176,2.176,0,0,0-.232.617l0,.019h1.536l-.741-1.469Zm-19.233-.082c-.034.06-.069.119-.1.177l-.067.114h0l-.165.276c-.011.018-.022.036-.032.054l-.064.108a6.7,6.7,0,0,0-.393.761l-.023.057h1.622l-.775-1.547Zm26.068.037H132.5V32.5h2.1a.284.284,0,0,0,.3-.317,1.258,1.258,0,0,0-.016-.2l-.009-.06h0l-.015-.094-.009-.066ZM54.66,25.056v3.651a1.235,1.235,0,0,1-.179.037l-.042.006h0l-.045.006-.024,0-.049.005-.025,0-.053.005h0l-.055,0h0l-.057,0h0l-.089.007h0l-.093.006h0l-.1.005h0l-.1,0h0l-.068,0h0l-.1,0h0l-.071,0h0l-.072,0h0l-.109,0h0l-.11,0H52.7l-.108,0h0l-.107,0h0l-.07,0h0l-.069,0h0l-.068,0h0l-.066,0h0l-.1,0h0l-.063,0h0l-.061,0h0l-.059,0h0l-.085-.007h0l-.054,0-.026,0-.05-.005-.024,0-.046-.006h0l0-.017h0l0-.019,0-.01,0-.022h0l0-.024h0l0-.026h0l0-.027h0l-.006-.044h0l-.005-.048h0l-.005-.052h0L51.6,28.4h0l-.006-.081h0l0-.064h0l-.007-.114h0l-.005-.1h0l-.006-.126h0l-.005-.132h0l0-.11h0l0-.141h0l0-.087h0l0-.147h0l0-.21h0l0-.213h0v-.163h0v-.123h0v-.163h0v-.121h0l0-.159h0l0-.117h0l0-.114h0l0-.111h0l0-.108h0l0-.1h0l0-.1h0l.005-.1h0l.006-.091h0l0-.058h0l.006-.082h0l0-.051,0-.025a1.007,1.007,0,0,1,.12-.027l.038-.006h0l.041-.006.022,0,.045-.006h0l.048-.005h0l.05,0h0l.053,0h0l.055,0h0l.086-.006h0l.091-.006h0l.063,0h0l.1,0h0l.067,0h0l.1,0h0l.105,0h0l.108,0h0l.11,0h0l.111,0h.6l.11,0h0l.073,0h0l.072,0h0l.071,0h0L54,25h0l.069,0h0l.067,0h0l.066,0h0l.064,0h0l.063,0h0l.061,0h0l.059.005.029,0,.056.006h0l.053.006h0l.051.006ZM120.532,0h5.124l-.031.073h0l-.045.1h0l-.041.1h0l-.026.062h0l-.026.06c-.022.049-.044.1-.067.144l-2.792,5.729q-3.49,7.161-6.987,14.318a2.85,2.85,0,0,0-.313,1.32c.012,1.241.012,2.482.011,3.723l0,1.861c0,.207,0,.414,0,.621v.668c-1.055.042-2.093.035-3.134.017l-.368-.007h0l-1.105-.021h0V.006h4.586c.014.384.015.768.013,1.151v.329c0,.109,0,.219,0,.328v.164c0,.646,0,1.293,0,1.939v7.919a6.376,6.376,0,0,0,.663-1.234l.066-.153h0l.07-.166c.047-.11.094-.22.142-.33.29-.659.567-1.323.85-1.984l.872-2.035h0q.425-.992.847-1.985c.282-.662.562-1.325.846-1.986q.182-.423.364-.845L120.532,0ZM46.705.148h4.6v3.6l-.134.008-.133.009c-.088.006-.176.01-.263.01q-3.875-.008-7.75-.02h-.045l-.107,0-.041,0h0l-.04,0a.86.86,0,0,0-.873.9l0,.043,0,.022,0,.045c0,.008,0,.015,0,.023-.023.509-.025,1.019-.024,1.529v.51q0,.17,0,.34v.17q0,.1,0,.2V7.84c0,.229,0,.458-.014.686l-.006.1a2.014,2.014,0,0,0,.761,1.751c2.282,1.984,4.547,3.988,6.829,5.973l.761.661a3.025,3.025,0,0,1,1.109,2.425q-.006,2.2,0,4.406v2.937q0,.734,0,1.469c0,.07,0,.139-.007.212l-.014.23q0,.041,0,.083H0V25.109H.671L22.115,25.1l10.722-.006,4.078,0h0l8.157-.008h.166c.055,0,.111,0,.166,0a.936.936,0,0,0,.947-.835,3.9,3.9,0,0,0,.047-.662c0-.239,0-.478,0-.717l0-.538c0-.538-.006-1.076.011-1.613l.006-.179a2.147,2.147,0,0,0-.825-1.83c-2.709-2.342-5.393-4.715-8.1-7.066a3.139,3.139,0,0,1-1.151-2.523c.009-1.25,0-2.5,0-3.75l-.006-1.071q0-.8-.007-1.607V2.575a4.226,4.226,0,0,1,.025-.5A2.042,2.042,0,0,1,38.2.179,3.6,3.6,0,0,1,38.705.15h8ZM55.358.17q6.117.008,12.235.022A4.753,4.753,0,0,1,68.2.227a2.083,2.083,0,0,1,1.841,1.666,4.973,4.973,0,0,1,.1,1.043q.006,4.4,0,8.794v4.4h0a2.168,2.168,0,0,1-2.053,2.306,4.637,4.637,0,0,1-.551.046q-3.294.013-6.588.018c-.058,0-.115,0-.176-.01l-.062-.006h0l-.065-.007h0l-.068-.006-.036,0v-3.7h4.8V4.1h0a1.9,1.9,0,0,0-.322-.044l-.077-.006-.041,0-.087-.006h0l-.093-.005h0l-.1-.005-.051,0-.161-.007h0l-.113,0h0l-.118,0h0l-.122,0h0l-.126,0h0l-.129,0h0l-.2,0h0l-.136,0h0l-.139,0h0l-.211,0h0l-.215,0h0l-.217,0h-1.3l-.2,0h0l-.133,0h0l-.13,0h0l-.189,0h0l-.121,0h0L60.5,4h0l-.113,0h0l-.108,0-.1,0-.1,0-.047,0-.089.005-.194.015-.007.041h0l-.016.085c-.014.072-.027.147-.034.222a1.862,1.862,0,0,0,0,.207v.083q0,.021,0,.042l-.023,23.45h0v.6H55.095c0-.025,0-.052-.005-.078l-.013-.166c-.007-.1-.014-.2-.014-.308l-.01-2.863q-.01-2.864-.013-5.727,0-7.494,0-14.987V.221l.068-.012L55.22.186A.729.729,0,0,1,55.358.17Zm51.6-.148c0,.037.006.073.009.109l.01.108c.008.089.015.178.015.266q.015,6.427.024,12.855a1.953,1.953,0,0,1-1.9,2.214,7.165,7.165,0,0,1-.931.062l-.288,0-.144,0-.108,0h0l-.072,0h-.37l-.372,0h-.183c.284.8.586,1.561.889,2.31l.182.448h0l.242.593.06.148.12.3q.09.222.178.443l.059.148q.432,1.094.873,2.184l.44,1.091q.221.545.44,1.091l.627,1.564h0l1.121,2.8h-4.916l-.5-1.249q-.189-.471-.377-.944l-1.2-3.013q-1.5-3.766-2.985-7.535a2.594,2.594,0,0,1-.169-.854c-.01-.32-.013-.64-.013-.967V14h0v-.2h0l0-.508h0v-.314c0-.035,0-.071,0-.106h4.629V4.023H96.589q0,2.055,0,4.113v4.115h0v4.1h0v12.4H91.966V.021ZM72.8,25.077,71.9,28.759H60.12V25.1h0a7.367,7.367,0,0,1,.858-.049l.2-.005h0l.223-.005h0l.24,0h0l.256,0h0l.27,0h0l.284,0h0l.3,0h0l.308,0h0l.482,0h0l.5,0h0l.344,0h0l.527,0h0l.537,0h0l.544,0H68.86l.337,0h0l.329,0h0l.32,0h0l.309,0h0l.3,0h0l.285,0h0l.272,0h0l.257,0,.123,0,.233,0C72.259,25.037,72.687,25.055,72.8,25.077Zm47.008-9.731.059-.1h0l6.463,13.477h-5.105l-.033-.063h0l-.067-.125c-.044-.083-.087-.166-.127-.251l-.358-.767h0l-1.074-2.3q-1.074-2.3-2.159-4.6a.838.838,0,0,1,.024-.866c.463-.844.914-1.693,1.364-2.544l.386-.729.387-.728.018-.033h0l.018-.033h0l.019-.033h0l.02-.034h0l.053-.089h0l.112-.187ZM167,0V3.746H124.585L126.456,0H167ZM119.986.018a1.191,1.191,0,0,1-.056.229L119.912.3h0l-.02.059h0l-.021.063-.012.033-.024.068h0L119.809.6h0l-.028.075h0l-.03.078h0l-.031.08h0l-.032.083h0L119.655,1h0l-.053.132h0l-.037.09h0l-.056.138h0l-.058.141h0l-.061.143h0l-.04.1h0l-.062.145h0l-.063.145h0l-.042.1h0l-.064.144h0l-.042.1h0l-.042.094h0l-.042.093h0l-.063.137h0l-.061.133h0l-.04.086h0l-.04.084h0l-.039.081h0l-.038.079-.019.038-.037.074-.018.036-.035.069h0l-.034.066-.016.032-.032.06c-.01.019-.021.038-.03.056l-.029.052h0l-.028.047c-.013.023-.026.043-.038.062h-2.668V.018Zm-9.725,0a.839.839,0,0,1,.023.111l.006.042c0,.022,0,.046.008.072l.005.053h0l.006.057h0l0,.061h0l0,.064h0l.007.1h0l0,.072h0l.006.114h0l0,.079h0l0,.081h0l0,.126h0l0,.13h0l0,.089h0l0,.136h0l0,.138h0l0,.14h0v.094h0V1.92h0v.142h0V2.2h0V2.3h0v.139h0v.092h0l0,.135h0l0,.132h0l0,.086h0l0,.084h0l0,.122h0l0,.078h0l0,.076h0l0,.073h0l0,.07c0,.011,0,.023,0,.034l-.005.065h0l0,.061c0,.01,0,.02,0,.029l-.006.056a.24.24,0,0,0,0,.026l-.006.05,0,.023h-2.842V1.594h0V.785h0V.247h0a.544.544,0,0,1,.016-.116l.012-.055h0l.008-.04c0-.007,0-.014,0-.021ZM83.633.02h7.894v2h0v.965q0,.12,0,.24c0,.049,0,.1,0,.147l-.006.093h0l0,.066h0l0,.069,0,.036H84.358L83.633.02Z" fill="#fff"/>
</svg>
