<svg xmlns="http://www.w3.org/2000/svg" width="129" height="71" viewBox="0 0 129 71">
  <path id="Path_869" data-name="Path 869" d="M103.866,58.564c2.326,0,2.96,2.376,2.96,5.017,0,.254-.015.9-.033,1.572h0l0,.13c-.015.543-.031,1.087-.042,1.44h0l-.015.342-.009.205h0l-.006.136-.006.136c-.047,1.016-.1,1.959-.1,2.376,0,.159.026.211.237.291h0l.688.264a.284.284,0,0,1,.158.29c0,.053-.026.053-.079.053-.267-.022-.853-.026-1.489-.026h-.361c-.661,0-1.216.026-1.507.026-.052,0-.105-.053-.105-.159-.019-.192-.039-.733-.048-1.268h0v-.1c0-.166,0-.33,0-.48s.026-.554.026-.66h0l-.053-.026c-.079.158-.158.37-.264.554C103.258,69.891,102.386,71,100.88,71c-1.454,0-2.749-1.267-2.749-3.7,0-2.218,1.11-4.726,3.462-4.726a2.549,2.549,0,0,1,1.85.687,4.726,4.726,0,0,1,.344.37h0l.1-.026a9.27,9.27,0,0,0-.1-1.426c-.106-1.109-.582-2.324-1.665-2.324a4.077,4.077,0,0,0-2.8,1.716c-.026.026-.053.053-.079.053-.079,0-.317-.238-.211-.37A5.765,5.765,0,0,1,103.866,58.564Zm-17.575,0a5.938,5.938,0,0,1,1.691.185.177.177,0,0,1,.106.185h0l.238,2.429c0,.132-.238.291-.344.291-.026,0-.053,0-.079-.053-.344-.634-.661-1.215-1.084-1.848a1.317,1.317,0,0,0-.317-.37,1.343,1.343,0,0,0-.846-.238,1.57,1.57,0,0,0-1.533,1.69c0,1.109.529,1.716,1.956,2.64,1.506.977,2.511,2.086,2.511,3.644C88.59,69.363,86.529,71,83.6,71a6.589,6.589,0,0,1-1.691-.211.263.263,0,0,1-.185-.238h0L81.507,68.1c0-.132.264-.264.343-.264.026,0,.053,0,.079.053.344.581.714,1.294,1.11,1.9a1.413,1.413,0,0,0,.476.423,1.639,1.639,0,0,0,.793.238,1.854,1.854,0,0,0,2.035-1.8c0-1.03-.581-1.769-2.22-2.746-1.744-1.03-2.458-2.086-2.458-3.459h0v-.026C81.666,60.623,83.463,58.564,86.291,58.564Zm-23.337,0c2.907,0,4.493,2.376,4.493,5.466,0,3.38-1.48,6.971-5.55,6.971H61.87c-2.617,0-4.2-2.429-4.2-5.545C57.668,61.89,59.307,58.564,62.954,58.564Zm-21.117,0c2.326,0,2.96,2.376,2.96,5.017,0,.254-.015.9-.033,1.572h0l0,.13c-.015.543-.031,1.087-.042,1.44h0l-.014.342-.009.205h0l-.006.136-.006.136c-.047,1.016-.1,1.959-.1,2.376,0,.159.027.211.238.291h0l.687.264a.285.285,0,0,1,.159.29c0,.053-.026.053-.079.053-.267-.022-.853-.026-1.489-.026H43.74c-.661,0-1.216.026-1.506.026-.053,0-.106-.053-.106-.159-.019-.192-.038-.733-.048-1.268h0v-.1c0-.166,0-.33,0-.48s.026-.554.026-.66h0l-.053-.026c-.079.158-.159.37-.264.554C41.229,69.891,40.357,71,38.851,71,37.4,71,36.1,69.733,36.1,67.3c0-2.218,1.11-4.726,3.462-4.726a2.549,2.549,0,0,1,1.85.687,4.723,4.723,0,0,1,.344.37h0l.106-.026a9.264,9.264,0,0,0-.106-1.426c-.106-1.109-.581-2.324-1.665-2.324a4.075,4.075,0,0,0-2.8,1.716c-.026.026-.053.053-.079.053-.079,0-.317-.238-.211-.37A5.765,5.765,0,0,1,41.837,58.564Zm-18.791,0c2.352,0,3.647,2.72,3.647,5.122h0v.026a.773.773,0,0,1-.529.845,12.917,12.917,0,0,1-2.9.194h-.137c-.732-.008-1.444-.038-1.953-.086,0,.246,0,.54.012.836h0l0,.126a9.709,9.709,0,0,0,.091,1.2c.317,1.822,1.057,3.142,2.458,3.142a4.27,4.27,0,0,0,1.3-.211,13.381,13.381,0,0,0,1.454-.66c.053-.026.132.185.132.29a.2.2,0,0,1-.053.132,12.58,12.58,0,0,1-2.669,1.32A5.878,5.878,0,0,1,22.253,71C19.69,71,18,69.31,18,65.614,18,62.445,19.61,58.564,23.046,58.564Zm9.329-3.353c.053,0,.079.053.053.211-.079.739-.238,2.588-.264,3.565h0l3.2.079a.057.057,0,0,1,.053.053c0,.159-.106.4-.159.4h0l-3.092.264q-.159,2.693-.159,6.02c0,3.8.951,4.357,1.9,4.357a4.485,4.485,0,0,0,.608-.026,5.051,5.051,0,0,0,1.031-.317c.079-.026.106.132.106.238a.206.206,0,0,1-.106.211,6.179,6.179,0,0,1-1.929.713,4,4,0,0,1-.535.025h-.549c-2.141,0-3.542-.977-3.568-4.779,0-.756.052-1.98.128-3.243h0l.013-.217.014-.217c.063-.976.139-1.947.214-2.713h0l-1.692.026c-.053,0-.106-.026-.106-.132a1.62,1.62,0,0,1,.079-.422c.079-.158.185-.343.423-.343h0l1.4.026c.053-.475.185-1.452.37-2.271.053-.291.238-.607.951-.924l.621-.243h0l.081-.032A5.7,5.7,0,0,1,32.375,55.21Zm93.347,0c.053,0,.079.053.053.211-.08.739-.238,2.588-.265,3.565h0l3.2.079a.056.056,0,0,1,.053.053c0,.159-.106.4-.158.4h0l-3.093.264q-.158,2.693-.158,6.02c0,3.8.951,4.357,1.9,4.357a4.49,4.49,0,0,0,.608-.026,5.042,5.042,0,0,0,1.03-.317c.08-.026.106.132.106.238a.206.206,0,0,1-.106.211,6.179,6.179,0,0,1-1.929.713,4,4,0,0,1-.535.025h-.549c-2.14,0-3.541-.977-3.568-4.779,0-.756.052-1.98.129-3.243h0l.027-.434c.063-.976.139-1.947.214-2.713h0l-1.691.026c-.053,0-.106-.026-.106-.132a1.619,1.619,0,0,1,.08-.422c.079-.158.185-.343.422-.343h0l1.4.026c.053-.475.185-1.452.37-2.271.053-.291.238-.607.952-.924l.621-.243h0l.081-.032A5.725,5.725,0,0,1,125.723,55.21Zm-71.676-.9a4.363,4.363,0,0,1,1.8.29c.106.026.132.106.159.238h0l.37,3.353c.026.106-.264.238-.37.238-.027,0-.053-.026-.079-.053-.449-.977-.9-1.98-1.348-2.957A1.15,1.15,0,0,0,54.312,55a.724.724,0,0,0-.5-.185,2.285,2.285,0,0,0-1.744,1.268c-1.057,1.611-1.612,3.908-1.612,7.34,0,5.017,1.982,6.5,3.251,6.5a5.837,5.837,0,0,0,1.4-.158,8.093,8.093,0,0,0,1.348-.555c.053-.026.132.132.132.317a.228.228,0,0,1-.079.158,11.643,11.643,0,0,1-1.9,1.03,5.5,5.5,0,0,1-1.929.29c-2.934,0-5.55-2.06-5.55-7.156h0v-.026c0-3.961,1.3-6.575,3.066-8.053A5.828,5.828,0,0,1,54.047,54.313Zm40.357.9c.053,0,.079.053.053.211-.079.739-.238,2.588-.264,3.565h0l3.2.079a.057.057,0,0,1,.053.053c0,.159-.106.4-.159.4h0l-3.092.264q-.159,2.693-.159,6.02c0,3.8.951,4.357,1.9,4.357a4.486,4.486,0,0,0,.608-.026,5.051,5.051,0,0,0,1.031-.317c.079-.026.106.132.106.238a.206.206,0,0,1-.106.211,6.179,6.179,0,0,1-1.929.713,4,4,0,0,1-.535.025h-.549c-2.141,0-3.542-.977-3.568-4.779,0-.756.052-1.98.128-3.243h0l.013-.217.014-.217c.063-.976.139-1.947.214-2.713h0l-1.691.026c-.053,0-.106-.026-.106-.132a1.616,1.616,0,0,1,.079-.422c.079-.158.185-.343.423-.343h0l1.4.026c.053-.475.185-1.452.37-2.271.053-.291.238-.607.951-.924l.621-.243h0l.082-.032A5.688,5.688,0,0,1,94.4,55.21ZM4.572,54.524a.2.2,0,0,1,.185.158c.449,1.584,2.669,9.506,3.224,11.565.079.238.159.528.317,1h.159c.159-.449.238-.845.317-1.083.714-2.271,2.326-8.529,3.171-11.512.026-.079.053-.132.132-.132h4.1a.07.07,0,0,1,.079.079c0,.106-.053.29-.132.317h0l-.608.158c-.291.079-.344.343-.37.634,0,.147-.007.433-.007.809v.529c0,.549,0,1.2.009,1.872h0v.36h0v.18c.009,1.379.021,2.706.021,3.168v1.6c0,.579,0,1.248,0,1.925h0v.271h0V66.7c0,1.29.01,2.528.022,3.141,0,.29.053.4.238.449h0l.661.238c.053.026.079.238.079.291,0,.026-.027.026-.053.026-.344-.026-1.163-.053-2.167-.053-1.084,0-2.088.026-2.484.053-.079,0-.079-.026-.079-.079,0-.106.053-.238.132-.264h0l.872-.211c.185-.053.238-.238.238-.423-.079-2.588-.476-8.423-.555-10.667,0-.291-.026-.607,0-.871h-.212c-.106.343-.185.634-.264.845-.389,1.275-.974,3.193-1.579,5.126h0l-.079.252c-.594,1.891-1.2,3.771-1.656,5.053h0l-.06.167q-.074.2-.141.385c-.132.343-.211.4-.714.422a4.485,4.485,0,0,1-.581.026.167.167,0,0,1-.159-.132c-.441-1.235-1.1-3.1-1.751-4.99h0l-.093-.271c-.681-1.987-1.341-3.98-1.724-5.3-.053-.211-.185-.5-.238-.766H2.7a5.709,5.709,0,0,1-.079.766c-.081.918-.24,2.7-.4,4.533h0l-.055.624c-.186,2.118-.363,4.164-.417,4.851,0,.264.053.4.238.423h0l.846.158c.053,0,.106.185.106.264,0,.053,0,.079-.079.079-.449-.026-.9-.053-1.48-.053-.449,0-.978.026-1.321.053C0,70.842,0,70.815,0,70.789c0-.106.053-.291.132-.291h0l.608-.132c.185-.026.238-.106.238-.4.012-.592.044-1.885.081-3.233h0l.005-.184c.046-1.658.1-3.355.126-3.9.025-.456.072-1.872.116-3.333l.018-.626c.042-1.456.077-2.826.077-3.2,0-.185-.079-.291-.37-.37h0L.4,54.92c-.106-.026-.132-.211-.132-.317a.07.07,0,0,1,.079-.079H4.572Zm108.121,4.04c.132-.026.185.079.185.211,0,.059-.025.963-.056,1.965h0l0,.108,0,.108h0l-.006.163h0v.054l0,.109,0,.108c-.019.577-.039,1.134-.056,1.531,0,.264-.026.528-.053.819h.106c.079-.317.159-.607.211-.739.608-2.007,1.956-4.436,3.6-4.436,1.823,0,2.7,1.8,2.7,5.1,0,1.743-.159,4.911-.265,6.02-.026.343.027.449.238.528h0l.872.317a.4.4,0,0,1,.106.264c0,.026,0,.053-.053.053l-.764-.025h0l-.147,0c-.441-.013-.891-.023-1.494-.023-.887,0-1.452.016-1.984.036h0l-.1,0-.1,0h0l-.1,0h0l-.149.006c-.053,0-.053-.026-.053-.053,0-.132.026-.238.105-.264h0l.82-.264a.4.4,0,0,0,.291-.4c.014-.2.052-1.017.083-1.886h0l0-.119c.025-.694.045-1.405.045-1.85,0-.407,0-.855-.016-1.313h0l0-.138c-.064-1.792-.323-3.671-1.354-3.671S113.3,63,112.825,65.693c-.006.046-.013.1-.021.156h0l-.011.09a36.453,36.453,0,0,0-.258,3.978.327.327,0,0,0,.238.343h0l.819.264c.079.026.106.185.106.264,0,.026,0,.053-.053.053-.82-.026-1.48-.053-2.458-.053-1.084,0-1.692.026-2.484.053-.053,0-.053-.026-.053-.053,0-.132.053-.264.132-.291h0l.951-.238c.159-.053.265-.132.265-.29,0-.374-.014-1.371-.027-2.395h0l0-.307c-.011-.844-.021-1.665-.022-2.129h0v-.181c0-.441-.027-1.343-.054-2.265h0l-.007-.243c-.029-.945-.058-1.871-.07-2.3,0-.185-.053-.317-.238-.343h0l-.9-.079c-.079,0-.158-.211-.158-.343,0-.026,0-.053.079-.079h0Zm-39.96,0c.132-.026.185.079.185.211,0,.059-.025.963-.056,1.965h0l0,.108h0l0,.108-.005.163h0l0,.054,0,.109,0,.108c-.019.577-.038,1.134-.055,1.531,0,.264-.026.528-.053.819h.106A7.479,7.479,0,0,1,73.05,63c.608-2.007,1.956-4.436,3.594-4.436,1.824,0,2.7,1.8,2.7,5.1,0,1.743-.159,4.911-.264,6.02-.026.343.026.449.238.528h0l.872.317a.4.4,0,0,1,.106.264c0,.026,0,.053-.053.053l-.765-.025h0l-.147,0c-.441-.013-.891-.023-1.494-.023-.887,0-1.452.016-1.984.036h0l-.1,0-.1,0h0l-.1,0-.15.006c-.053,0-.053-.026-.053-.053,0-.132.026-.238.106-.264h0l.819-.264a.4.4,0,0,0,.291-.4c.014-.2.052-1.017.084-1.886h0l0-.119c.025-.694.044-1.405.044-1.85V65.7c0-.319-.005-.658-.016-1h0l0-.138c-.064-1.792-.323-3.671-1.354-3.671S73.34,63,72.865,65.693c-.007.046-.014.1-.021.156h0l-.011.09a36.452,36.452,0,0,0-.258,3.978.327.327,0,0,0,.238.343h0l.819.264c.079.026.106.185.106.264,0,.026,0,.053-.053.053-.819-.026-1.48-.053-2.458-.053-.65,0-1.129.009-1.579.023l-.446.014-.459.016c-.053,0-.053-.026-.053-.053,0-.132.053-.264.132-.291h0l.951-.238c.159-.053.264-.132.264-.29,0-.374-.014-1.371-.027-2.395h0l0-.307c-.011-.844-.021-1.665-.022-2.129v-.08c0-.391-.026-1.366-.055-2.365h0l-.007-.243c-.028-.945-.058-1.871-.07-2.3,0-.185-.053-.317-.238-.343h0l-.9-.079c-.079,0-.159-.211-.159-.343,0-.026,0-.053.079-.079h0Zm-10.122.5c-1.533,0-1.771,2.878-1.771,5.994,0,2.72.608,5.439,1.8,5.439h.026c1.459,0,1.6-2.57,1.611-5.263h0v-.176q0-.132,0-.264v-.264C64.275,61.521,63.773,59.065,62.61,59.065Zm39.776,4.251c-.949,0-1.275,1.64-1.294,3.425h0v.166c0,1.663.423,2.667,1.11,2.667h.026c.661,0,1.428-1.056,1.745-2.614a4.074,4.074,0,0,0,.105-.766c0-.185-.052-.528-.079-.739C103.866,64.716,103.39,63.316,102.386,63.316Zm-62.029,0c-.949,0-1.275,1.64-1.294,3.425h0v.166c0,1.663.423,2.667,1.11,2.667H40.2c.661,0,1.427-1.056,1.744-2.614a4.086,4.086,0,0,0,.106-.766c0-.185-.053-.528-.079-.739C41.837,64.716,41.361,63.316,40.357,63.316ZM22.7,59.065h-.026c-.819,0-1.48,1.8-1.507,5.149a5.527,5.527,0,0,0,2.141-.158c.264-.106.476-.37.476-1.083h0v-.08c0-.921-.058-3.828-1.083-3.828ZM79.549,0a9.554,9.554,0,0,1,8.262,14.37l-15.353,26.3a9.569,9.569,0,0,1-16.531-.011l-15.305-26.3A9.558,9.558,0,0,1,48.891,0ZM53.322,13.811l-.307.006-.324.007-.315.008-.454.012-.291.009-.418.014-.267.01-.382.015-.243.011-.233.011-.113.006-.325.018-.2.012-.195.013-.185.013-.175.014L48.724,14l-.079.007-.151.014-.142.015-.132.015-.122.016a5.129,5.129,0,0,0-2.62,1.128L59.191,38.761a5.792,5.792,0,0,0,9.956.089l.049-.082L70.3,36.875c-.337.021-.694.026-1.077.019l-.2,0-.108-.015a5.763,5.763,0,0,1-3.151-1.321l-.11-.09-.056-.046-.113-.1-.057-.049-.115-.1-.177-.159A10.509,10.509,0,0,1,63.8,33.377l-.139-.2q-.319-.461-.683-1.024l-.164-.255-.084-.131-.171-.27-.175-.28-.18-.29-.185-.3-.094-.154h0l-.192-.316-.2-.326-.2-.337-.1-.172-.208-.352-.213-.362-.217-.373-.222-.383-.227-.394-.232-.4-.237-.415-.241-.425-.246-.436-.251-.447-.256-.457-.394-.706-.269-.484-.274-.495-.42-.762-.431-.787-.443-.811-.3-.554-.462-.852-.118-.219-1.7-2.912A4.151,4.151,0,0,1,53.322,13.811ZM79.645,3.773H76.511a7.418,7.418,0,0,1,1.314,5.637l-.009.059v.009a6.251,6.251,0,0,1-.314,1.4l-.041.12-.021.06-.044.122-.023.062-.048.125-.05.127-.026.064-.054.13-.056.132-.059.134-.061.136-.063.137-.066.14-.068.141-.035.071h0l-.072.145-.074.147-.076.149-.079.151-.081.153-.083.155-.086.157-.088.159-.091.161-.093.163-.047.083-.1.167-.149.254-.1.172-.1.175-.162.266-.167.271-.114.184-.107.17-2.334,3.83L67.831,27.8a4.171,4.171,0,0,1-2.04,1.765l0,.006.148.236.143.226.138.216.133.205.065.1.125.19.12.179.115.169a7.387,7.387,0,0,0,.893,1.134l.134.121.083.074.04.035.077.066.074.061.071.057.068.052a2,2,0,0,0,.947.408l.086.015.079.012.1,0h.136a3.9,3.9,0,0,0,2.13-.477l.044-.024.022-.013.046-.027.024-.015.051-.032.053-.035.028-.019.058-.04.06-.043.063-.046.066-.05.1-.08.072-.057.075-.06.077-.064.08-.066.125-.106.086-.074.089-.077.138-.122.143-.128.148-.135.153-.142.159-.148.1-.1L84.55,12.47a5.783,5.783,0,0,0-4.9-8.7Zm-9.556,0h-21.2a5.786,5.786,0,0,0-5.3,8.122,8.89,8.89,0,0,1,4-1.561l.138-.018.147-.017.156-.017.081-.008h0l.17-.016.088-.008.184-.015.193-.015.2-.014.212-.014.221-.014.114-.007.356-.019.249-.012.258-.012.4-.017.426-.016.447-.014.31-.009.482-.013.333-.008.695-.014.361-.007.371-.006.574-.008.6-.007L55.974,10,56.612,10l.66,0,.913,0,.951,0h1.756l.789,0,1.085,0,.839,0L64.758,10H70.94a4.184,4.184,0,0,1,2.5.822l.021-.043.07-.146.065-.141.041-.091.039-.088.055-.128.035-.082.033-.08.031-.078.029-.075.027-.073.025-.07.023-.068.021-.065.019-.063.009-.03L74,9.447l.014-.056.006-.027.011-.053q.011-.051.017-.1l.006-.045,0-.021.007-.1.012-.079C74.437,6.6,73.28,4.971,70.089,3.773Z" fill="#fff"/>
</svg>
