<svg xmlns="http://www.w3.org/2000/svg" width="143" height="75" viewBox="0 0 143 75">
  <path id="Path_870" data-name="Path 870" d="M46.258,63.694a5.088,5.088,0,0,1,1.294,2.351l-1.807.462-.14-.259h0l-.13-.267C44.39,63.389,40.8,63.8,39.647,65.52a5.338,5.338,0,0,0-.831,3.771,6.339,6.339,0,0,0,.63,2.1,3.349,3.349,0,0,0,3.476,1.716,2.946,2.946,0,0,0,2.591-1.9l.211-.446h0l1.807.455a4.838,4.838,0,0,1-5.62,3.723,5.571,5.571,0,0,1-5.078-5.441,7.075,7.075,0,0,1,1.253-5.113A5.669,5.669,0,0,1,46.258,63.694ZM90.849,62.4l.576.017a.826.826,0,0,1,.915.653l.2.545h0l3.728,10.7h0l.145.5h0l-.178.037h0c-.571-.008-1.278.177-1.688-.088-.3-.191-.387-.7-.508-1.159l-.1-.33c-.178-.484-.222-1.152-.57-1.4a1.376,1.376,0,0,0-.857-.14l-.656.035H88.987c-.289.89-.6,1.741-.848,2.608-.093.321-.242.463-.5.492l-.662-.013h0l-.955.009h0a5.413,5.413,0,0,1,.13-.558c1.319-3.795,2.647-7.589,3.949-11.384A.647.647,0,0,1,90.849,62.4Zm-37.058,0,.6.013c.487.025.677.11.853.462l.182.448h0l3.852,11.119h0l.13.41h0l-1.165.006c-.186,0-.37-.009-.554-.024-.135-.01-.312-.222-.369-.378-.32-.885-.609-1.782-.916-2.7-1.4,0-2.777-.01-4.153.016a.587.587,0,0,0-.389.34c-.287.781-.55,1.571-.794,2.367a.442.442,0,0,1-.511.376l-.5-.007h0l-1.105.007h0l1.424-4.081q1.363-3.936,2.712-7.869A.625.625,0,0,1,53.791,62.407Zm32.264.047v1.833H82.591V74.831l-1.918-.006V64.313H77.227V62.454ZM74.7,62.443V74.831H72.809V62.443Zm-12.771-.03,1.313-.008h0l1.305.015a16.314,16.314,0,0,1,3.044.2c1.862.411,2.8,2.017,2.562,4.1A3.475,3.475,0,0,1,66.7,69.755l-.932.007h0l-1.947-.007v5.058h-1.9Zm38.927.038V72.985h5.353V74.81h-7.3V62.451ZM54.241,65.1h-.119l-1.551,4.766,3.223.006Zm38.576,4.766-1.609-4.955L89.6,69.867ZM66.9,64.339l-1.01-.051h0l-2.072.028v3.163l.032.4h0l1.988.022c.323,0,.643-.014.962-.04.9-.076,1.339-.683,1.372-1.655C68.206,65.179,67.771,64.427,66.9,64.339Zm64.989-25.624a9.793,9.793,0,0,1,7.56,1.938,9.331,9.331,0,0,1,3.487,8.747l-.068.607H127.962a5.176,5.176,0,0,0,5.564,4.3,4.772,4.772,0,0,0,3.771-1.717.47.47,0,0,1,.335-.129l4.527-.006h0a6.081,6.081,0,0,1-1.539,2.776,9.025,9.025,0,0,1-4.874,2.627,10.613,10.613,0,0,1-6.816-.611,8.975,8.975,0,0,1-5.375-7.628,10.066,10.066,0,0,1,.846-5.647A9.013,9.013,0,0,1,131.888,38.715Zm-36.377-.1a9.425,9.425,0,0,1,9.69,9.781,9.77,9.77,0,0,1-19.524.533v-.588A9.386,9.386,0,0,1,95.511,38.61Zm-77.5.1a8.972,8.972,0,0,1,6.279,1.384l.582.424v-1.5h4.341V57.688H24.891V56.262a1.19,1.19,0,0,0-.253.1,7.856,7.856,0,0,1-5.385,1.759,9.434,9.434,0,0,1-7.3-3.243,9.179,9.179,0,0,1-2.218-5.412,9.93,9.93,0,0,1,1.932-7.237A9.254,9.254,0,0,1,18.012,38.706Zm30.765.006A10,10,0,0,1,55.893,40.3,9.217,9.217,0,0,1,59.9,48.654l-.043.661h0l-.06.687H44.861a5.332,5.332,0,0,0,2.023,3.327c1.853,1.442,5.894,1.346,7.277-.67a.578.578,0,0,1,.417-.193c1.493-.014,2.976-.009,4.51-.009a6.7,6.7,0,0,1-2.587,3.7,10.653,10.653,0,0,1-7.542,1.9,9.081,9.081,0,0,1-7.094-4.241,9.472,9.472,0,0,1-1.453-5.061,9.758,9.758,0,0,1,1.761-6.25A9.119,9.119,0,0,1,48.777,38.712Zm18.583-.055a6.188,6.188,0,0,1,4.531,2.414,5.266,5.266,0,0,1,1.057,3.46H68.612c-.011-.171-.01-.317-.032-.46A1.978,1.978,0,0,0,66.6,42.313a1.9,1.9,0,0,0-2.066,1.251,1.782,1.782,0,0,0,.819,2.166l.793.383h0l3.385,1.306c.285.116.567.239.841.377a4.748,4.748,0,0,1,2.62,4.945,5.548,5.548,0,0,1-5.3,5.31,7.264,7.264,0,0,1-5.425-1.318,5.6,5.6,0,0,1-2.153-4.582h4.3c.06.316.092.612.175.893A1.985,1.985,0,0,0,66.7,54.414a1.91,1.91,0,0,0,.92-3.627l-.828-.363h0l-1.7-.648a17.53,17.53,0,0,1-2.093-.893c-2.045-1.149-2.673-3.035-2.514-5.245C60.74,40.195,63.926,38.28,67.36,38.657Zm12.2-3.854v4.148H85.32v4.009H79.6l-.027.616h0v7.255h0a5.372,5.372,0,0,0,.133,1.27,2.287,2.287,0,0,0,2.5,1.692l3.017.017h0l.106.028h0v3.906l-.861-.013h0l-1.713.024a12.314,12.314,0,0,1-3.378-.327,5.138,5.138,0,0,1-3.957-4.881L75.351,49.6h0l-.05-5.908h0v-.711H73.295V38.992h2V34.8ZM35.035,41.454l5.676-2.449.038.539h0c0,1.134-.019,2.27.013,3.4a.642.642,0,0,1-.5.716L35.67,45.52h0a.815.815,0,0,0-.635.911l.019,5.3h0v6.011H30.73V39.021h4.306ZM4.32,41.459,10.034,39v2.867c0,.466-.007.929-.017,1.392,0,.128-.224.3-.386.369-1.586.662-3.184,1.316-4.787,1.944a.683.683,0,0,0-.52.758l.014,5.38h0l0,6.006H0v-18.7H4.32Zm117.889,2.609a9.774,9.774,0,0,1,.319,2.418c.033,3.587.014,7.175.013,10.763,0,.144-.023.288-.038.461h-4.3V46.485a3.609,3.609,0,0,0-2.475-3.648c-2.273-.7-4.6.179-5.167,2.542a6.23,6.23,0,0,0-.148,1.434l-.008,5.1h0l0,5.791h-4.3V39h4.265V40.33a1.05,1.05,0,0,0,.25-.112C113.749,37.253,120.637,38.235,122.209,44.069ZM97.581,43.012a5.406,5.406,0,0,0-6,1.069,5.936,5.936,0,0,0-1.544,5.394c.618,4.588,5.272,5.515,8.045,4.045l.336-.2c1.8-1.152,2.4-2.93,2.4-5.066l-.039-.632h0A4.937,4.937,0,0,0,97.581,43.012Zm-78.1-.388a5.085,5.085,0,0,0-5.252,3.785,7.748,7.748,0,0,0-.186,3.085,5.272,5.272,0,0,0,3.59,4.4,5.569,5.569,0,0,0,5.982-1.613A6.331,6.331,0,0,0,24.8,47.558,5.1,5.1,0,0,0,19.481,42.624Zm30.837-.192-.531.014c-2.31.155-4.377,1.763-4.692,3.488l-.04.371h10.2a4.938,4.938,0,0,0-4.935-3.873Zm83.241.009a5.062,5.062,0,0,0-5.326,3.377l-.138.484h10.2C138.184,44.357,136.049,42.58,133.558,42.441ZM71.5,0l5.7.009a1.152,1.152,0,0,1,.7.223L90.179,10.9,71.5,27.152,52.817,10.9l4.738-4.129c2.471-2.148,4.937-4.3,7.422-6.436A1.392,1.392,0,0,1,65.8.014L71.5,0Zm4.23,21.8h-3.55v3.094Zm-4.921,0H67.256l3.553,3.089ZM76.6,1.236q-5.11.023-10.219,0a.677.677,0,0,0-.492.161,1.043,1.043,0,0,0-.2.259L63.156,6.068q-1.273,2.2-2.556,4.4l-.079.157h0l-.055.219h0l0,.051a.68.68,0,0,0,.036.205l.046.114h0l5.212,9.035h0a.682.682,0,0,0,.637.295l1.269-.009H75.33l1.284.006a.66.66,0,0,0,.665-.364q2.56-4.467,5.149-8.915a.653.653,0,0,0-.009-.757Q79.844,6.086,77.3,1.646A.7.7,0,0,0,76.6,1.236ZM71.829,3.312c1.207.356,2.4.754,3.6,1.154a1.159,1.159,0,0,1,.559.329l.842,1.135h0l1.7,2.334h0l-1.006.75-.638-.839a3.98,3.98,0,0,1-.271-.429,5.679,5.679,0,0,0-3.95-2.9,5.188,5.188,0,0,0-2.608,0,5.989,5.989,0,0,0-3.976,2.878,5.437,5.437,0,0,0-.795,2.445,6.021,6.021,0,0,0,1.558,4.775,4.18,4.18,0,0,0,1.546,1.271l.93.283h0l1.013.388a2.59,2.59,0,0,0,2.018.005l1.016-.384.257-.085h0l.259-.069A3.044,3.044,0,0,0,75.858,14.9l.524-.763h0l1.137-1.526h0l1.006.736c-.865,1.19-1.715,2.376-2.591,3.544a.753.753,0,0,1-.334.211l-.2.068c-1.2.393-2.392.789-3.6,1.144a1.691,1.691,0,0,1-.91,0q-1.812-.533-3.6-1.153a1.666,1.666,0,0,1-.738-.536q-1.147-1.509-2.223-3.07a1.789,1.789,0,0,1-.3-.917c-.034-1.228-.031-2.455,0-3.683a1.684,1.684,0,0,1,.281-.866q1.093-1.584,2.258-3.114a1.579,1.579,0,0,1,.7-.5c1.189-.413,2.387-.806,3.594-1.162A1.8,1.8,0,0,1,71.829,3.312ZM85.8,11.54l-.522-.046a1.906,1.906,0,0,0-2.166,1.018L82,14.566h0l-1.985,3.38.093.056,7.454-6.49-1.221.03c-.188,0-.369.005-.547,0ZM57.306,11.5l-1.675,0-.064.118L62.9,18l-1.12-2.088q-.573-1.037-1.161-2.058L59.43,11.816a.656.656,0,0,0-.454-.295l-1.67-.016ZM71.5,8.475l1.981.017a.572.572,0,0,1,.418.3c.264.671.5,1.355.7,2.045a.573.573,0,0,1-.107.479l-.976,1h0L71.5,14.34h0l-2.018-2.029c-.328-.332-.653-.664-.976-1a.578.578,0,0,1-.112-.483c.209-.689.443-1.373.706-2.042a.57.57,0,0,1,.419-.295L71.5,8.475Zm1.38,1.26H70.107a3.637,3.637,0,0,0-.224.643.834.834,0,0,0,.056.581c.472.546.989,1.052,1.505,1.588l.184-.135,1.162-1.162c.445-.458.468-.591.215-1.216Zm14.659.533L80.05,3.754l.03.192h0q1.741,3.041,3.5,6.071a.484.484,0,0,0,.32.241l1.168.01h2.471ZM62.965,3.881l-.088-.071-7.418,6.454,3.566-.009.118-.027h0a.43.43,0,0,0,.232-.154l1.8-3.094Z" fill="#fff"/>
</svg>
