<svg xmlns="http://www.w3.org/2000/svg" width="186" height="16" viewBox="0 0 186 16">
  <path id="Path_868" data-name="Path 868" d="M142.912.377a3.684,3.684,0,0,1,.982.1,1.693,1.693,0,0,1,.554.251.766.766,0,0,1,.247.346l.032.094a3.457,3.457,0,0,1,.127,1.089V8.586a8.01,8.01,0,0,1-1.751,5.026,6.442,6.442,0,0,1-2.2,1.738,6.793,6.793,0,0,1-2.991.649,6.574,6.574,0,0,1-2.97-.67,6.189,6.189,0,0,1-2.157-1.759,7.964,7.964,0,0,1-1.73-5.026V2.1h0l0-.243h0l.007-.2h0l.011-.154h0a1.851,1.851,0,0,1,.213-.565.937.937,0,0,1,.577-.44,4.786,4.786,0,0,1,2.179,0,.852.852,0,0,1,.555.44,2.83,2.83,0,0,1,.257,1.319V8.545a4.926,4.926,0,0,0,.64,2.429,2.386,2.386,0,0,0,.961.942,3.08,3.08,0,0,0,1.517.356,2.623,2.623,0,0,0,2.328-1.131,4.534,4.534,0,0,0,.77-2.618V2.115a2.257,2.257,0,0,1,.214-1.152A1.082,1.082,0,0,1,141.907.5,3.442,3.442,0,0,1,142.912.377ZM42.284,0a2.363,2.363,0,0,1,1.389.733,1.959,1.959,0,0,1,.833,1.3,1.937,1.937,0,0,1-.619,1.2l-4.4,4.743,4.294,4.628a2.231,2.231,0,0,1,.726,1.34q0,.544-.833,1.278a2.29,2.29,0,0,1-1.389.733,2,2,0,0,1-1.3-.838l-4.059-4.565L32.863,15.12a2.065,2.065,0,0,1-1.325.838,2.441,2.441,0,0,1-1.388-.733q-.833-.754-.833-1.278a2.283,2.283,0,0,1,.748-1.34l4.294-4.628L30.065,3.351a2.138,2.138,0,0,1-.748-1.319A1.8,1.8,0,0,1,30.036.858l.115-.1A2.34,2.34,0,0,1,31.539,0a2,2,0,0,1,1.325.838L36.922,5.4,40.981.838Q41.75,0,42.284,0ZM180.1.147A7.8,7.8,0,0,1,182.2.411l.235.07a4.418,4.418,0,0,1,1.475.649l.534.4q.663.607.662,1.026a2.279,2.279,0,0,1-.513,1.152A1.959,1.959,0,0,1,183.1,4.754a2.219,2.219,0,0,1-1.111-.419l-.057-.042h0l-.139-.115-.06-.052a2.573,2.573,0,0,0-.321-.272,2.194,2.194,0,0,0-1.153-.272,1.933,1.933,0,0,0-1.153.335,1.032,1.032,0,0,0-.45.9,1.071,1.071,0,0,0,.535.921,3.342,3.342,0,0,0,1.168.447l.2.035a14.287,14.287,0,0,1,1.457.311l.316.087a10.542,10.542,0,0,1,1.773.628,3.037,3.037,0,0,1,1.346,1.319A4.354,4.354,0,0,1,186,10.848a5.066,5.066,0,0,1-.555,2.408,4.2,4.2,0,0,1-1.453,1.592,6.724,6.724,0,0,1-3.7,1.11,7.611,7.611,0,0,1-1.9-.23,5.777,5.777,0,0,1-1.309-.52l-.144-.087a5.179,5.179,0,0,1-1.581-1.3l-.192-.23a1.982,1.982,0,0,1-.555-1.194q0-.544.918-1.424a1.635,1.635,0,0,1,1.132-.5q.6,0,1.667,1.047a3.392,3.392,0,0,0,.854.691,2.108,2.108,0,0,0,1.026.314q1.986,0,1.985-1.592a.917.917,0,0,0-.555-.8,3.59,3.59,0,0,0-1.147-.442l-.2-.04a12.651,12.651,0,0,1-1.752-.461,12.467,12.467,0,0,1-1.752-.775,3.591,3.591,0,0,1-1.366-1.382,4.672,4.672,0,0,1-.535-2.3,4.342,4.342,0,0,1,1.389-3.2A5.224,5.224,0,0,1,180.1.147ZM153.5.4a5.994,5.994,0,0,1,3.653,1.34A4.925,4.925,0,0,1,158.56,3.5a5.448,5.448,0,0,1,.555,2.471,5.15,5.15,0,0,1-1.6,3.9l.194.454h0l.315.722h0l.593,1.333h0l.35.779h0a3.284,3.284,0,0,1,.32,1.089q0,.8-1.324,1.34a3,3,0,0,1-1.111.293,1.188,1.188,0,0,1-.683-.189,1.7,1.7,0,0,1-.385-.419l-.075-.153h0l-.232-.507h0l-.551-1.254h0l-.808-1.877h0l-.662.042h-2.691v2.5h0l-.007.238q-.009.164-.024.286l-.012.077a1.5,1.5,0,0,1-.191.545q-.3.565-1.668.565-1.494,0-1.751-.775a3.45,3.45,0,0,1-.128-1.089V2.108h0l.006-.336h0L147,1.6q0-.038.006-.071a1.861,1.861,0,0,1,.215-.565q.3-.565,1.665-.565ZM11.727.419a3.679,3.679,0,0,1,.983.1,1.458,1.458,0,0,1,.556.251.768.768,0,0,1,.246.346l.031.094a3.231,3.231,0,0,1,.128,1.068V13.906q0,.144,0,.265l-.01.221h0l-.017.176h0l-.011.071a1.47,1.47,0,0,1-.192.545q-.3.565-1.666.565a3.585,3.585,0,0,1-1.154-.126,1.245,1.245,0,0,1-.534-.4L5.058,8.683h0L3.76,7.016h0v7.028h0l-.007.243q-.008.165-.024.281l-.011.071a1.47,1.47,0,0,1-.192.545q-.3.565-1.666.565-1.324,0-1.623-.565a1.868,1.868,0,0,1-.214-.566l-.01-.162h0L0,14.141q0-.059,0-.124V2.2A2.56,2.56,0,0,1,.192,1.047a1.046,1.046,0,0,1,.619-.5A3.618,3.618,0,0,1,1.858.419a3.51,3.51,0,0,1,.909.1l.1.029a1.437,1.437,0,0,1,.487.21l.068.058h0l.06.059h0l.138.151h0l.2.226.078.092L7.5,6.139h0L9.417,8.644h0l.494.634h0V2.2A2.559,2.559,0,0,1,10.1,1.047a1.045,1.045,0,0,1,.62-.5A3.438,3.438,0,0,1,11.727.419ZM17.746.4h8.417q.14,0,.26,0l.218.01a2.4,2.4,0,0,1,.249.028,1.545,1.545,0,0,1,.577.188q.577.293.577,1.634,0,1.466-.79,1.717a3.64,3.64,0,0,1-1.111.126H19.583V6.22h4.23l.26,0a3.356,3.356,0,0,1,.466.038,1.544,1.544,0,0,1,.577.188q.577.293.577,1.633,0,1.466-.812,1.717a3.64,3.64,0,0,1-1.111.126H19.583v2.115h6.579q.14,0,.26,0l.218.01h0l.176.017h0l.072.011a1.545,1.545,0,0,1,.577.188q.577.293.577,1.634,0,1.466-.79,1.717a3.642,3.642,0,0,1-1.111.126H17.682q-1.5,0-1.752-.8a3.231,3.231,0,0,1-.128-1.068V2.241A1.961,1.961,0,0,1,16.208.8,2.221,2.221,0,0,1,17.746.4ZM59.014.377a2.27,2.27,0,0,1,1,.168.762.762,0,0,1,.427.482,2.97,2.97,0,0,1,.107.88,2.97,2.97,0,0,1-.107.88.719.719,0,0,1-.363.44,2.531,2.531,0,0,1-1.089.188h-4.08V13.948q0,.138,0,.255l-.01.214h0l-.018.173c0,.025-.007.049-.011.071a1.47,1.47,0,0,1-.192.544.871.871,0,0,1-.556.419,4.6,4.6,0,0,1-2.136,0,.952.952,0,0,1-.556-.419,2.275,2.275,0,0,1-.192-.544l-.006-.076h0l-.009-.181h0l-.005-.219q0-.059,0-.123V3.414h-4.1a2.56,2.56,0,0,1-1-.147.835.835,0,0,1-.427-.5,2.967,2.967,0,0,1-.107-.88,2.756,2.756,0,0,1,.107-.859.725.725,0,0,1,.363-.461A2.532,2.532,0,0,1,47.137.377ZM87.1.4h8.417q.141,0,.26,0l.218.01a2.394,2.394,0,0,1,.248.028,1.544,1.544,0,0,1,.577.188q.577.293.577,1.634,0,1.466-.791,1.717a3.639,3.639,0,0,1-1.111.126H88.933V6.22h4.23l.26,0a3.359,3.359,0,0,1,.467.038,1.544,1.544,0,0,1,.577.188q.577.293.577,1.633,0,1.466-.812,1.717a3.638,3.638,0,0,1-1.11.126H88.933v2.115h6.579q.141,0,.26,0l.218.01h0l.176.017h0l.072.011a1.544,1.544,0,0,1,.577.188q.577.293.577,1.634,0,1.466-.791,1.717a3.641,3.641,0,0,1-1.111.126H87.032q-1.5,0-1.752-.8a3.235,3.235,0,0,1-.128-1.068V2.241A1.961,1.961,0,0,1,85.558.8,2.22,2.22,0,0,1,87.1.4Zm23.833.021a3.682,3.682,0,0,1,.983.1,1.458,1.458,0,0,1,.555.251.779.779,0,0,1,.246.346l.032.094a3.246,3.246,0,0,1,.128,1.068V13.906l0,.265a3.644,3.644,0,0,1-.029.4l-.011.071a1.5,1.5,0,0,1-.192.545q-.3.565-1.667.565a3.579,3.579,0,0,1-1.153-.126,1.253,1.253,0,0,1-.534-.4L104.272,8.7h0l-1.311-1.684h0v6.89q0,.144,0,.265l-.011.221h0l-.017.176h0l-.012.071a1.464,1.464,0,0,1-.192.545q-.3.565-1.666.565-1.324,0-1.624-.565a1.868,1.868,0,0,1-.214-.566l-.006-.076h0l-.009-.181h0l-.005-.219h0l0-.257h0V2.2a2.562,2.562,0,0,1,.192-1.152,1.047,1.047,0,0,1,.619-.5A3.623,3.623,0,0,1,101.06.419a3.51,3.51,0,0,1,.909.1l.1.029a1.425,1.425,0,0,1,.486.21l.068.058h0l.06.059h0l.138.151h0l.195.226.078.092,3.615,4.8h0l1.915,2.505h0l.494.634h0V2.2a2.546,2.546,0,0,1,.193-1.152,1.045,1.045,0,0,1,.619-.5A3.435,3.435,0,0,1,110.929.419ZM127.9.377a2.276,2.276,0,0,1,1.005.168.767.767,0,0,1,.427.482,2.977,2.977,0,0,1,.107.88,2.977,2.977,0,0,1-.107.88.723.723,0,0,1-.364.44,2.524,2.524,0,0,1-1.088.188h-4.08V13.948a4.2,4.2,0,0,1-.044.712,1.477,1.477,0,0,1-.191.544.877.877,0,0,1-.556.419,4.6,4.6,0,0,1-2.136,0,.952.952,0,0,1-.556-.419,2.282,2.282,0,0,1-.192-.544l-.01-.162h0l-.007-.2h0l0-.371h0V3.414h-4.1a2.564,2.564,0,0,1-1-.147.83.83,0,0,1-.427-.5,2.944,2.944,0,0,1-.107-.88,2.734,2.734,0,0,1,.107-.859.719.719,0,0,1,.364-.461,2.521,2.521,0,0,1,1.088-.188ZM162.83.4h8.416c.093,0,.18,0,.26,0l.218.01a2.4,2.4,0,0,1,.248.028,1.542,1.542,0,0,1,.577.188q.578.293.577,1.634,0,1.466-.79,1.717a3.65,3.65,0,0,1-1.112.126h-6.558V6.22h4.23l.26,0a3.353,3.353,0,0,1,.466.038,1.547,1.547,0,0,1,.577.188q.577.293.577,1.633,0,1.466-.812,1.717a3.635,3.635,0,0,1-1.11.126h-4.188v2.115h6.58c.093,0,.18,0,.26,0l.218.01h0l.176.017h0l.072.011a1.542,1.542,0,0,1,.577.188q.578.293.577,1.634,0,1.466-.79,1.717a3.652,3.652,0,0,1-1.112.126h-8.459q-1.494,0-1.751-.8a3.24,3.24,0,0,1-.129-1.068V2.241A1.963,1.963,0,0,1,161.291.8,2.224,2.224,0,0,1,162.83.4ZM81.024.272a2.856,2.856,0,0,1,1.261.356q1.26.607,1.26,1.34a2.658,2.658,0,0,1-.321,1.005L77.329,14.7a1.858,1.858,0,0,1-.726.754,1.933,1.933,0,0,1-.983.272h-.213a2.087,2.087,0,0,1-1.026-.272,1.9,1.9,0,0,1-.7-.754l-5.9-11.728a2.649,2.649,0,0,1-.321-1.005q0-.69,1.116-1.268L68.72.628A2.687,2.687,0,0,1,69.789.272a1.515,1.515,0,0,1,.577.084.989.989,0,0,1,.363.293,3.166,3.166,0,0,1,.341.565l.076.139h0l.106.211h0l.189.393h0l.313.671h0L73.313,5.99h0l.5,1.056h0l.477,1.019q.233.5.453.982l.769,1.592h0l4.272-9.173.109-.247h0l.1-.209q.047-.1.09-.172A1.118,1.118,0,0,1,81.024.272ZM153.455,4.1h-2.691V7.812H153.5a2.075,2.075,0,0,0,1.24-.461,1.614,1.614,0,0,0,.619-1.382,1.614,1.614,0,0,0-.619-1.382A2.07,2.07,0,0,0,153.455,4.1Z" fill="#fff"/>
</svg>
